<?xml version="1.0" encoding="utf-8"?>
<!-- Generator: Adobe Illustrator 24.3.0, SVG Export Plug-In . SVG Version: 6.00 Build 0)  -->
<svg version="1.1" id="Layer_1" xmlns="http://www.w3.org/2000/svg" xmlns:xlink="http://www.w3.org/1999/xlink" x="0px" y="0px"
	 viewBox="0 0 92.9 93.1" style="enable-background:new 0 0 92.9 93.1;" xml:space="preserve">
<style type="text/css">
	.st0{fill:#FFBA0C;}
	.st1{fill:#FFFFFF;}
	.st2{fill:#E4E4E4;}
	.st3{fill:#E0E0E0;}
	.st4{opacity:0.25;fill:#231F20;}
	.st5{fill:#58C2B1;}
	.st6{fill:#221F1F;}
	.st7{fill:#263238;}
	.st8{fill:#5B6673;}
	.st9{opacity:0.15;}
	.st10{opacity:0.7;fill:#FFFFFF;}
	.st11{fill:#F1F0F0;}
	.st12{fill:#118C76;}
	.st13{fill:#EBEBEB;}
	.st14{fill:#002F24;}
	.st15{fill:#7AC142;}
	.st16{opacity:0.5;}
	.st17{fill:#FAFBFB;}
	.st18{opacity:0.8;fill:#FAFBFB;}
	.st19{opacity:0.3;}
	.st20{fill:#004033;}
	.st21{fill:#138B76;}
	.st22{fill:#37474F;}
	.st23{opacity:0.4;fill:#FFFFFF;}
	.st24{fill:#F59E8F;}
	.st25{fill:#F5F5F5;}
	.st26{fill:#911A1D;}
	.st27{fill:#F27D21;}
	.st28{fill:#471111;}
	.st29{fill:#F7A7A8;}
	.st30{fill:#F3908F;}
	.st31{opacity:0.2;}
	.st32{opacity:4.761900e-02;fill:#9DA4CD;}
	.st33{opacity:6.916095e-02;fill:#969CC3;}
	.st34{opacity:9.070291e-02;fill:#8E94B9;}
	.st35{opacity:0.1122;fill:#878DB0;}
	.st36{opacity:0.1338;fill:#7F85A6;}
	.st37{opacity:0.1553;fill:#787D9C;}
	.st38{opacity:0.1769;fill:#707592;}
	.st39{opacity:0.1984;fill:#696D89;}
	.st40{opacity:0.22;fill:#61667F;}
	.st41{opacity:0.2415;fill:#5A5E75;}
	.st42{opacity:0.263;fill:#52566B;}
	.st43{opacity:0.2846;fill:#4B4E62;}
	.st44{opacity:0.3061;fill:#434658;}
	.st45{opacity:0.3277;fill:#3C3E4E;}
	.st46{opacity:0.3492;fill:#343744;}
	.st47{opacity:0.3707;fill:#2D2F3B;}
	.st48{opacity:0.3923;fill:#252731;}
	.st49{opacity:0.4138;fill:#1E1F27;}
	.st50{opacity:0.4354;fill:#16171D;}
	.st51{opacity:0.4569;fill:#0F1014;}
	.st52{opacity:0.4785;fill:#07080A;}
	.st53{opacity:0;fill:#B0B5DB;}
	.st54{opacity:9.090909e-02;fill:#A0A5C7;}
	.st55{opacity:0.1818;fill:#9094B3;}
	.st56{opacity:0.2727;fill:#80849F;}
	.st57{opacity:0.3636;fill:#70738B;}
	.st58{opacity:0.4545;fill:#606377;}
	.st59{opacity:0.5455;fill:#505264;}
	.st60{opacity:0.6364;fill:#404250;}
	.st61{opacity:0.7273;fill:#30313C;}
	.st62{opacity:0.8182;fill:#202128;}
	.st63{opacity:0.9091;fill:#101014;}
	.st64{fill:url(#SVGID_1_);}
	.st65{fill:url(#SVGID_2_);}
	.st66{fill:url(#SVGID_3_);}
	.st67{opacity:0;fill:#9DA4CD;}
	.st68{opacity:2.380952e-02;fill:#969CC3;}
	.st69{opacity:4.761905e-02;fill:#8E94B9;}
	.st70{opacity:7.142857e-02;fill:#878DB0;}
	.st71{opacity:9.523810e-02;fill:#7F85A6;}
	.st72{opacity:0.119;fill:#787D9C;}
	.st73{opacity:0.1429;fill:#707592;}
	.st74{opacity:0.1667;fill:#696D89;}
	.st75{opacity:0.1905;fill:#61667F;}
	.st76{opacity:0.2143;fill:#5A5E75;}
	.st77{opacity:0.2381;fill:#52566B;}
	.st78{opacity:0.2619;fill:#4B4E62;}
	.st79{opacity:0.2857;fill:#434658;}
	.st80{opacity:0.3095;fill:#3C3E4E;}
	.st81{opacity:0.3333;fill:#343744;}
	.st82{opacity:0.3571;fill:#2D2F3B;}
	.st83{opacity:0.381;fill:#252731;}
	.st84{opacity:0.4048;fill:#1E1F27;}
	.st85{opacity:0.4286;fill:#16171D;}
	.st86{opacity:0.4524;fill:#0F1014;}
	.st87{opacity:0.4762;fill:#07080A;}
	.st88{fill:url(#SVGID_4_);}
	.st89{fill:url(#SVGID_5_);}
	.st90{fill:url(#SVGID_6_);}
	.st91{fill:#B0B5DB;}
	.st92{fill:url(#SVGID_7_);}
	.st93{fill:#082C1B;}
	.st94{fill:url(#SVGID_8_);}
	.st95{fill:url(#SVGID_9_);}
	.st96{fill:#025B43;}
	.st97{fill:url(#SVGID_10_);}
	.st98{fill:url(#SVGID_11_);}
	.st99{fill:url(#SVGID_12_);}
	.st100{fill:url(#SVGID_13_);}
	.st101{fill:url(#SVGID_14_);}
	.st102{fill:url(#SVGID_15_);}
	.st103{fill:url(#SVGID_16_);}
	.st104{fill:url(#SVGID_17_);}
	.st105{fill:url(#SVGID_18_);}
	.st106{fill:url(#SVGID_19_);}
	.st107{fill:url(#SVGID_20_);}
	.st108{fill:url(#SVGID_21_);}
	.st109{fill:url(#SVGID_22_);}
	.st110{fill:url(#SVGID_23_);}
	.st111{fill:url(#SVGID_24_);}
	.st112{fill:url(#SVGID_25_);}
	.st113{fill:url(#SVGID_26_);}
	.st114{fill:url(#SVGID_27_);}
	.st115{fill:url(#SVGID_28_);}
	.st116{fill:url(#SVGID_29_);}
	.st117{fill:url(#SVGID_30_);}
	.st118{fill:url(#SVGID_31_);}
	.st119{fill:url(#SVGID_32_);}
	.st120{fill:url(#SVGID_33_);}
	.st121{fill:url(#SVGID_34_);}
	.st122{fill:url(#SVGID_35_);}
	.st123{fill:url(#SVGID_36_);}
	.st124{fill:url(#SVGID_37_);}
	.st125{filter:url(#Adobe_OpacityMaskFilter);}
	.st126{fill:url(#SVGID_39_);}
	.st127{mask:url(#SVGID_38_);}
	.st128{opacity:0.61;fill:url(#SVGID_40_);}
	.st129{fill:url(#SVGID_41_);}
	.st130{fill:url(#SVGID_42_);}
	.st131{fill:url(#SVGID_43_);}
	.st132{fill:url(#SVGID_44_);}
	.st133{fill:url(#SVGID_45_);}
	.st134{fill:url(#SVGID_46_);}
	.st135{fill:url(#SVGID_47_);}
	.st136{fill:url(#SVGID_48_);}
	.st137{fill:url(#SVGID_49_);}
	.st138{fill:url(#SVGID_50_);}
	.st139{fill:url(#SVGID_51_);}
	.st140{fill:url(#SVGID_52_);}
	.st141{fill:url(#SVGID_53_);}
	.st142{fill:url(#SVGID_54_);}
	.st143{fill:url(#SVGID_55_);}
	.st144{fill:url(#SVGID_56_);}
	.st145{fill:url(#SVGID_57_);}
	.st146{fill:url(#SVGID_58_);}
	.st147{fill:url(#SVGID_59_);}
	.st148{fill:url(#SVGID_60_);}
	.st149{fill:url(#SVGID_61_);}
	.st150{fill:url(#SVGID_62_);}
	.st151{fill:url(#SVGID_63_);}
	.st152{fill:url(#SVGID_64_);}
	.st153{fill:url(#SVGID_65_);}
	.st154{fill:url(#SVGID_66_);}
	.st155{fill:url(#SVGID_67_);}
	.st156{fill:url(#SVGID_68_);}
	.st157{fill:url(#SVGID_69_);}
	.st158{filter:url(#Adobe_OpacityMaskFilter_1_);}
	.st159{fill:url(#SVGID_71_);}
	.st160{mask:url(#SVGID_70_);}
	.st161{opacity:0.61;fill:url(#SVGID_72_);}
	.st162{fill:url(#SVGID_73_);}
	.st163{fill:url(#SVGID_74_);}
	.st164{fill:url(#SVGID_75_);}
	.st165{fill:url(#SVGID_76_);}
	.st166{fill:url(#SVGID_77_);}
	.st167{fill:url(#SVGID_78_);}
	.st168{fill:url(#SVGID_79_);}
	.st169{fill:url(#SVGID_80_);}
	.st170{fill:url(#SVGID_81_);}
	.st171{fill:url(#SVGID_82_);}
	.st172{fill:url(#SVGID_83_);}
	.st173{fill:url(#SVGID_84_);}
	.st174{fill:url(#SVGID_85_);}
	.st175{fill:url(#SVGID_86_);}
	.st176{fill:url(#SVGID_87_);}
	.st177{fill:url(#SVGID_88_);}
	.st178{fill:url(#SVGID_89_);}
	.st179{fill:url(#SVGID_90_);}
	.st180{fill:url(#SVGID_91_);}
	.st181{fill:url(#SVGID_92_);}
	.st182{fill:url(#SVGID_93_);}
	.st183{fill:url(#SVGID_94_);}
	.st184{fill:url(#SVGID_95_);}
	.st185{fill:url(#SVGID_96_);}
	.st186{fill:url(#SVGID_97_);}
	.st187{fill:url(#SVGID_98_);}
	.st188{fill:url(#SVGID_99_);}
	.st189{fill:url(#SVGID_100_);}
	.st190{fill:url(#SVGID_101_);}
	.st191{filter:url(#Adobe_OpacityMaskFilter_2_);}
	.st192{fill:url(#SVGID_103_);}
	.st193{mask:url(#SVGID_102_);}
	.st194{opacity:0.61;fill:url(#SVGID_104_);}
	.st195{opacity:0.61;fill:url(#SVGID_105_);}
	.st196{fill:url(#SVGID_106_);}
	.st197{fill:url(#SVGID_107_);}
	.st198{fill:url(#SVGID_108_);}
	.st199{fill:url(#SVGID_109_);}
	.st200{fill:url(#SVGID_110_);}
	.st201{fill:url(#SVGID_111_);}
	.st202{fill:url(#SVGID_112_);}
	.st203{fill:url(#SVGID_113_);}
	.st204{fill:url(#SVGID_114_);}
	.st205{fill:url(#SVGID_115_);}
	.st206{fill:url(#SVGID_116_);}
	.st207{fill:url(#SVGID_117_);}
	.st208{fill:url(#SVGID_118_);}
	.st209{fill:url(#SVGID_119_);}
	.st210{fill:url(#SVGID_120_);}
	.st211{fill:url(#SVGID_121_);}
	.st212{fill:url(#SVGID_122_);}
	.st213{fill:url(#SVGID_123_);}
	.st214{fill:url(#SVGID_124_);}
	.st215{fill:url(#SVGID_125_);}
	.st216{fill:url(#SVGID_126_);}
	.st217{fill:url(#SVGID_127_);}
	.st218{fill:url(#SVGID_128_);}
	.st219{fill:url(#SVGID_129_);}
	.st220{fill:url(#SVGID_130_);}
	.st221{fill:url(#SVGID_131_);}
	.st222{fill:url(#SVGID_132_);}
	.st223{fill:url(#SVGID_133_);}
	.st224{fill:url(#SVGID_134_);}
	.st225{filter:url(#Adobe_OpacityMaskFilter_3_);}
	.st226{fill:url(#SVGID_136_);}
	.st227{mask:url(#SVGID_135_);}
	.st228{opacity:0.61;fill:url(#SVGID_137_);}
	.st229{fill:url(#SVGID_138_);}
	.st230{fill:url(#SVGID_139_);}
	.st231{fill:url(#SVGID_140_);}
	.st232{fill:url(#SVGID_141_);}
	.st233{fill:url(#SVGID_142_);}
	.st234{fill:url(#SVGID_143_);}
	.st235{fill:url(#SVGID_144_);}
	.st236{fill:url(#SVGID_145_);}
	.st237{fill:url(#SVGID_146_);}
	.st238{fill:url(#SVGID_147_);}
	.st239{fill:url(#SVGID_148_);}
	.st240{fill:url(#SVGID_149_);}
	.st241{fill:url(#SVGID_150_);}
	.st242{fill:url(#SVGID_151_);}
	.st243{fill:url(#SVGID_152_);}
	.st244{fill:url(#SVGID_153_);}
	.st245{fill:url(#SVGID_154_);}
	.st246{fill:url(#SVGID_155_);}
	.st247{fill:url(#SVGID_156_);}
	.st248{fill:url(#SVGID_157_);}
	.st249{fill:url(#SVGID_158_);}
	.st250{fill:url(#SVGID_159_);}
	.st251{fill:url(#SVGID_160_);}
	.st252{fill:url(#SVGID_161_);}
	.st253{fill:url(#SVGID_162_);}
	.st254{fill:url(#SVGID_163_);}
	.st255{fill:url(#SVGID_164_);}
	.st256{fill:url(#SVGID_165_);}
	.st257{fill:url(#SVGID_166_);}
	.st258{fill:url(#SVGID_167_);}
	.st259{fill:url(#SVGID_168_);}
	.st260{fill:url(#SVGID_169_);}
	.st261{fill:url(#SVGID_170_);}
	.st262{fill:url(#SVGID_171_);}
	.st263{fill:url(#SVGID_172_);}
	.st264{fill:url(#SVGID_173_);}
	.st265{fill:url(#SVGID_174_);}
	.st266{fill:url(#SVGID_175_);}
	.st267{fill:url(#SVGID_176_);}
	.st268{fill:url(#SVGID_177_);}
	.st269{fill:url(#SVGID_178_);}
	.st270{fill:url(#SVGID_179_);}
	.st271{fill:url(#SVGID_180_);}
	.st272{fill:url(#SVGID_181_);}
	.st273{fill:url(#SVGID_182_);}
	.st274{fill:url(#SVGID_183_);}
	.st275{fill:url(#SVGID_184_);}
	.st276{fill:url(#SVGID_185_);}
	.st277{fill:url(#SVGID_186_);}
	.st278{fill:url(#SVGID_187_);}
	.st279{fill:url(#SVGID_188_);}
	.st280{fill:url(#SVGID_189_);}
	.st281{fill:url(#SVGID_190_);}
	.st282{fill:url(#SVGID_191_);}
	.st283{fill:url(#SVGID_192_);}
	.st284{fill:url(#SVGID_193_);}
	.st285{fill:url(#SVGID_194_);}
	.st286{fill:url(#SVGID_195_);}
	.st287{fill:url(#SVGID_196_);}
	.st288{fill:url(#SVGID_197_);}
	.st289{fill:url(#SVGID_198_);}
	.st290{fill:url(#SVGID_199_);}
	.st291{fill:url(#SVGID_200_);}
	.st292{fill:url(#SVGID_201_);}
	.st293{fill:url(#SVGID_202_);}
	.st294{fill:url(#SVGID_203_);}
	.st295{fill:url(#SVGID_204_);}
	.st296{fill:url(#SVGID_205_);}
	.st297{fill:url(#SVGID_206_);}
	.st298{fill:url(#SVGID_207_);}
	.st299{fill:url(#SVGID_208_);}
	.st300{fill:url(#SVGID_209_);}
	.st301{fill:url(#SVGID_210_);}
	.st302{fill:url(#SVGID_211_);}
	.st303{fill:url(#SVGID_212_);}
	.st304{fill:url(#SVGID_213_);}
	.st305{fill:url(#SVGID_214_);}
	.st306{fill:url(#SVGID_215_);}
	.st307{fill:url(#SVGID_216_);}
	.st308{fill:url(#SVGID_217_);}
	.st309{fill:url(#SVGID_218_);}
	.st310{fill:url(#SVGID_219_);}
	.st311{fill:url(#SVGID_220_);}
	.st312{fill:url(#SVGID_221_);}
	.st313{fill:url(#SVGID_222_);}
	.st314{fill:url(#SVGID_223_);}
	.st315{fill:url(#SVGID_224_);}
	.st316{fill:url(#SVGID_225_);}
	.st317{fill:url(#SVGID_226_);}
	.st318{fill:url(#SVGID_227_);}
	.st319{fill:url(#SVGID_228_);}
	.st320{fill:url(#SVGID_229_);}
	.st321{fill:url(#SVGID_230_);}
	.st322{fill:url(#SVGID_231_);}
	.st323{fill:url(#SVGID_232_);}
	.st324{fill:url(#SVGID_233_);}
	.st325{fill:url(#SVGID_234_);}
	.st326{opacity:0.95;}
	.st327{fill:url(#SVGID_235_);}
	.st328{fill:url(#SVGID_236_);}
	.st329{fill:url(#SVGID_237_);}
	.st330{fill:url(#SVGID_238_);}
	.st331{fill:url(#SVGID_239_);}
	.st332{fill:url(#SVGID_240_);}
	.st333{fill:url(#SVGID_241_);}
	.st334{fill:url(#SVGID_242_);}
	.st335{fill:url(#SVGID_243_);}
	.st336{fill:url(#SVGID_244_);}
	.st337{fill:url(#SVGID_245_);}
	.st338{fill:url(#SVGID_246_);}
	.st339{fill:url(#SVGID_247_);}
	.st340{fill:url(#SVGID_248_);}
	.st341{fill:url(#SVGID_249_);}
	.st342{fill:url(#SVGID_250_);}
	.st343{fill:url(#SVGID_251_);}
	.st344{fill:url(#SVGID_252_);}
	.st345{fill:url(#SVGID_253_);}
	.st346{fill:url(#SVGID_254_);}
	.st347{fill:url(#SVGID_255_);}
	.st348{fill:url(#SVGID_256_);}
	.st349{fill:url(#SVGID_257_);}
	.st350{fill:url(#SVGID_258_);}
	.st351{fill:url(#SVGID_259_);}
	.st352{fill:url(#SVGID_260_);}
	.st353{fill:url(#SVGID_261_);}
	.st354{fill:url(#SVGID_262_);}
	.st355{fill:url(#SVGID_263_);}
	.st356{fill:url(#SVGID_264_);}
	.st357{fill:url(#SVGID_265_);}
	.st358{fill:url(#SVGID_266_);}
	.st359{fill:url(#SVGID_267_);}
	.st360{fill:url(#SVGID_268_);}
	.st361{fill:url(#SVGID_269_);}
	.st362{fill:url(#SVGID_270_);}
	.st363{fill:url(#SVGID_271_);}
	.st364{fill:url(#SVGID_272_);}
	.st365{fill:url(#SVGID_273_);}
	.st366{fill:url(#SVGID_274_);}
	.st367{fill:url(#SVGID_275_);}
	.st368{fill:url(#SVGID_276_);}
	.st369{fill:#1C644E;}
	.st370{fill:#548E68;}
	.st371{fill:#DBEEE0;}
	.st372{fill:#00261A;}
	.st373{opacity:0.2;fill:#92B4D1;}
	.st374{fill:#001A46;}
	.st375{fill:#F0F8FF;}
	.st376{fill:#FFD70F;}
	.st377{fill:url(#SVGID_277_);}
	.st378{fill:#BEE0B4;}
	.st379{fill:#03336E;}
	.st380{fill:#0BA19F;}
	.st381{fill:#0FBAB8;}
	.st382{fill:#3ECFCD;}
	.st383{fill:#FFDC00;}
	.st384{fill:#407454;}
	.st385{clip-path:url(#SVGID_279_);}
	.st386{fill:none;stroke:#000000;stroke-width:5.000000e-02;stroke-miterlimit:10;}
	.st387{fill:#EEF8EE;}
	.st388{fill:#FFC000;}
	.st389{fill:#1A2E35;stroke:#1A2E35;stroke-linecap:round;stroke-linejoin:round;stroke-miterlimit:10;}
	.st390{fill:#FFC10E;stroke:#000000;stroke-width:0.75;stroke-miterlimit:10;}
	.st391{fill:#F5F5F5;stroke:#000000;stroke-miterlimit:10;}
	.st392{fill:#FFFFFF;stroke:#000000;stroke-miterlimit:10;}
	.st393{fill:none;stroke:#1A2E35;stroke-linecap:round;stroke-linejoin:round;stroke-miterlimit:10;}
	.st394{fill:#FFAD80;stroke:#000000;stroke-miterlimit:10;}
	.st395{fill:#FFFFFF;stroke:#1A2E35;stroke-linecap:round;stroke-linejoin:round;stroke-miterlimit:10;}
	.st396{fill:#1A2E35;}
	.st397{fill:none;stroke:#1A2E35;stroke-width:3;stroke-linecap:round;stroke-linejoin:round;stroke-miterlimit:10;}
	.st398{fill:none;stroke:#7AC142;stroke-miterlimit:10;}
	.st399{clip-path:url(#SVGID_281_);}
	.st400{fill:#7AC142;stroke:#000000;stroke-miterlimit:10;}
	.st401{fill:#4E8E42;}
	.st402{fill:#5AE4A7;stroke:#1A2E35;stroke-linecap:round;stroke-linejoin:round;stroke-miterlimit:10;}
	.st403{fill:#FF9462;}
	.st404{fill:none;stroke:#6E6E6E;stroke-linecap:round;stroke-linejoin:round;stroke-miterlimit:10;}
	.st405{fill:#D06C42;}
	.st406{fill:#737373;stroke:#1A2E35;stroke-linecap:round;stroke-linejoin:round;stroke-miterlimit:10;}
	.st407{fill:#151521;}
	.st408{fill:#2A2A3D;}
	.st409{fill:#FCFCFC;stroke:#000000;stroke-miterlimit:10;}
	.st410{fill:#003629;}
	.st411{fill:#FCFCFC;}
	.st412{enable-background:new    ;}
	.st413{fill:#FFD4B8;stroke:#1A2E35;stroke-width:0.75;stroke-linecap:round;stroke-linejoin:round;stroke-miterlimit:10;}
	.st414{fill:#9E493E;}
	.st415{fill:#FFC40D;stroke:#000000;stroke-width:0.5;stroke-miterlimit:10;}
	.st416{fill:#FFB68C;}
	.st417{fill:#455B64;}
	.st418{fill:#FFD4B8;stroke:#1A2E35;stroke-width:0.25;stroke-linecap:round;stroke-linejoin:round;stroke-miterlimit:10;}
	.st419{fill:none;stroke:#000000;stroke-miterlimit:10;}
	.st420{fill:#FFD4B8;stroke:#1A2E35;stroke-linecap:round;stroke-linejoin:round;stroke-miterlimit:10;}
	.st421{fill:none;stroke:#000000;stroke-linecap:round;stroke-linejoin:round;stroke-miterlimit:10;}
	.st422{fill:#EB996E;}
	.st423{fill:#FFD4B8;stroke:#1A2E35;stroke-width:0.5;stroke-linecap:round;stroke-linejoin:round;stroke-miterlimit:10;}
	.st424{clip-path:url(#XMLID_11_);fill:#EB996E;}
	.st425{opacity:0.3;clip-path:url(#XMLID_12_);fill-opacity:0.7;}
	.st426{fill:none;stroke:#1A2E35;stroke-width:0.25;stroke-linecap:round;stroke-linejoin:round;stroke-miterlimit:10;}
	.st427{clip-path:url(#XMLID_13_);fill:#EB996E;}
	.st428{clip-path:url(#XMLID_14_);fill:#EB996E;}
	.st429{opacity:0.3;clip-path:url(#XMLID_15_);fill-opacity:0.7;}
	.st430{opacity:0.3;clip-path:url(#XMLID_16_);fill-opacity:0.7;}
	.st431{opacity:0.3;clip-path:url(#XMLID_17_);fill:#FFFFFF;fill-opacity:0.7;}
	.st432{clip-path:url(#XMLID_18_);fill:#004033;}
	.st433{fill:#3C579D;}
	.st434{fill:#7184B8;}
	.st435{fill:#647AB2;}
	.st436{fill:#556DAA;}
	.st437{fill:#FEFEFE;}
	.st438{fill:#0075B3;}
	.st439{fill:#2187BD;}
	.st440{fill:#76B5D6;}
	.st441{fill:#34A753;}
	.st442{fill:#FDEAB2;}
	.st443{fill:#47B062;}
	.st444{fill:#FDF1CD;}
	.st445{fill:#FDF2D0;}
	.st446{fill:#85CA98;}
	.st447{fill:#57B771;}
	.st448{fill:#99D3A8;}
	.st449{fill:#CDE9D5;}
	.st450{fill:#E94335;}
	.st451{fill:#4284F3;}
	.st452{fill:#FABB04;}
	.st453{fill:#007AC8;}
	.st454{fill:#FFFFFF;stroke:#231F20;stroke-width:2;stroke-miterlimit:10;}
	.st455{opacity:0.1;fill:#27AC77;}
	.st456{fill:#7AC142;stroke:#000000;stroke-width:0.5;stroke-miterlimit:10;}
	.st457{fill:#FFC10E;stroke:#000000;stroke-width:0.25;stroke-miterlimit:10;}
	.st458{clip-path:url(#SVGID_285_);fill:#FFFFFF;stroke:#000000;stroke-miterlimit:10;}
	.st459{clip-path:url(#SVGID_287_);}
	.st460{clip-path:url(#SVGID_289_);}
	.st461{fill:#FFFFFF;stroke:#231F20;stroke-width:0.75;stroke-miterlimit:10;}
	.st462{fill:#89C13E;}
	.st463{fill:#FFBA0C;stroke:#000000;stroke-miterlimit:10;}
	.st464{fill:#05362A;}
	.st465{fill:#2B2B2B;}
	.st466{fill:#FFBA0C;stroke:#000000;stroke-width:2;stroke-miterlimit:10;}
</style>
<g>
	<path class="st1" d="M88.3,46.5c-0.9,55-82.8,55-83.7,0C5.5-8.5,87.4-8.5,88.3,46.5z"/>
	<g>
		<path class="st433" d="M80,46c0,0.5,0,1,0,1.4c-0.1,0.3-0.1,0.5,0,0.8c0,0.4,0,0.8,0,1.2c-0.1,0.9-0.2,1.9-0.2,2.8
			c-0.2,2.1-0.8,4.2-1.5,6.2c-1.4,3.8-3.4,7.3-6.1,10.4c-2.7,3.1-5.8,5.7-9.5,7.6c-3,1.6-6.2,2.8-9.5,3.4c-0.9,0.2-1.9,0.2-2.8,0.3
			c-3.1,0.2-6.2,0.2-9.3-0.2c-2.9-0.4-5.7-1.3-8.4-2.6c-2.9-1.3-5.6-3-8-5.1c-3-2.6-5.5-5.6-7.4-9.2c-1.7-3.1-3-6.4-3.6-9.9
			c-0.2-0.9-0.2-1.9-0.3-2.8C13.1,47.1,13,44,13.4,41c0.3-2.9,1.3-5.6,2.5-8.3c1.3-2.9,3-5.7,5.2-8.1c2.6-3,5.6-5.5,9.2-7.4
			c2.9-1.6,5.9-2.8,9.1-3.5c1.4-0.3,2.8-0.3,4.1-0.4c0.2,0,0.3,0.1,0.5-0.1c0.2,0,0.4,0,0.7,0c0.3,0.1,0.6,0,0.9,0.1
			c0.2,0,0.5,0.1,0.7-0.1c0.3,0,0.5,0,0.8,0c0.2,0.1,0.5,0,0.7,0.1c0.3,0,0.6,0.1,0.9-0.1c0.2,0,0.4,0,0.7,0c1,0.1,1.9,0.1,2.9,0.2
			c2.1,0.2,4.1,0.8,6,1.5c3.9,1.4,7.4,3.5,10.5,6.2c3.2,2.8,5.8,6,7.7,9.8c1.4,2.7,2.4,5.5,3.1,8.4c0.3,1.4,0.3,2.8,0.4,4.1
			c0,0.2-0.1,0.3,0.1,0.5c0,0.3,0,0.7,0,1C79.9,45.4,79.9,45.7,80,46z"/>
		<path class="st434" d="M45.5,13.3c-0.3,0-0.6,0.1-0.9-0.1c0.3,0,0.6,0,0.9,0C45.6,13.3,45.6,13.3,45.5,13.3z"/>
		<path class="st434" d="M48.6,13.2c-0.3,0.2-0.6,0.1-0.9,0.1c-0.1,0-0.1-0.1,0-0.1C47.9,13.2,48.3,13.2,48.6,13.2z"/>
		<path class="st435" d="M80,46c-0.2-0.3-0.2-0.6,0-0.9C80,45.4,80,45.7,80,46z"/>
		<path class="st435" d="M80,48.2c-0.2-0.3-0.2-0.5,0-0.8C80,47.7,80,47.9,80,48.2z"/>
		<path class="st436" d="M45.5,13.3c0,0,0-0.1,0-0.1c0.2,0,0.4,0,0.7,0C46,13.4,45.8,13.4,45.5,13.3z"/>
		<path class="st436" d="M47.6,13.2c0,0,0,0.1,0,0.1c-0.2,0-0.5,0-0.7-0.1C47.2,13.2,47.4,13.2,47.6,13.2z"/>
		<path class="st437" d="M42.6,58c0-2.9,0-5.8,0-8.7c0-0.6-0.2-0.7-0.7-0.7c-1.8,0-3.7,0-5.5,0c-0.5,0-0.6-0.1-0.6-0.6
			c0-1.9,0-3.7,0-5.6c0-0.4,0.2-0.5,0.6-0.5c1.9,0,3.7,0,5.6,0c0.4,0,0.6-0.1,0.6-0.6c0-2.1,0-4.2,0-6.3c0-1.9,0.5-3.7,1.5-5.3
			c1.6-2.6,4.1-3.8,7.1-3.9c1.9-0.1,3.7,0.1,5.6,0.3c0.4,0,0.6,0.2,0.6,0.6c0,2,0,4,0,5.9c0,0.5-0.2,0.6-0.6,0.6c-1.4,0-2.9,0-4.3,0
			c-2.1,0-3.1,1-3.2,3.1c-0.1,1.7,0,3.5-0.1,5.2c0,0.5,0.2,0.5,0.6,0.5c2.2,0,4.4,0,6.7,0c0.4,0,0.6,0.1,0.5,0.6
			c-0.3,1.8-0.6,3.6-0.9,5.4c-0.1,0.6-0.2,0.8-0.9,0.8c-1.7-0.1-3.5,0-5.2,0c-0.6,0-0.7,0.2-0.7,0.8c0,5.8,0,11.6,0,17.3
			c0,0.6-0.2,0.8-0.8,0.8c-1.8,0-3.6,0-5.4,0c-0.4,0-0.5-0.1-0.5-0.5C42.6,64,42.6,61,42.6,58z"/>
	</g>
</g>
</svg>
