<?xml version="1.0" encoding="utf-8"?>
<!-- Generator: Adobe Illustrator 24.3.0, SVG Export Plug-In . SVG Version: 6.00 Build 0)  -->
<svg version="1.1" id="Layer_1" xmlns="http://www.w3.org/2000/svg" xmlns:xlink="http://www.w3.org/1999/xlink" x="0px" y="0px"
	 viewBox="0 0 450 300" style="enable-background:new 0 0 450 300;" xml:space="preserve">
<style type="text/css">
	.st0{fill:none;stroke:#1A2E35;stroke-width:0.25;stroke-miterlimit:10;}
	.st1{fill:#E1E1E1;}
	.st2{fill:#FAFAFA;}
	.st3{fill:#FFFFFF;}
	.st4{fill:#ECECEC;}
	.st5{fill:#F5F5F5;}
	.st6{fill:#004033;}
	.st7{fill:#1A2E35;}
	.st8{fill:#7AC142;}
	.st9{fill:#FFD4B8;stroke:#1A2E35;stroke-width:0.25;stroke-linecap:round;stroke-linejoin:round;stroke-miterlimit:10;}
	.st10{fill:#9E493E;}
	.st11{fill:#FFC40D;stroke:#000000;stroke-width:0.25;stroke-miterlimit:10;}
	.st12{opacity:0.3;}
	.st13{fill:#FFB68C;}
	.st14{fill:#375A64;}
	.st15{fill:none;stroke:#000000;stroke-miterlimit:10;}
	.st16{fill:#7AC142;stroke:#000000;stroke-width:0.5;stroke-miterlimit:10;}
	.st17{fill:#FFD4B8;stroke:#1A2E35;stroke-width:0.5;stroke-linecap:round;stroke-linejoin:round;stroke-miterlimit:10;}
	.st18{fill:none;stroke:#FFFFFF;stroke-linecap:round;stroke-linejoin:round;stroke-miterlimit:10;}
	.st19{fill:#FF9A6C;}
	.st20{fill:none;stroke:#1A2E35;stroke-linecap:round;stroke-linejoin:round;stroke-miterlimit:10;}
	.st21{fill:#FFFFFF;stroke:#1A2E35;stroke-linecap:round;stroke-linejoin:round;stroke-miterlimit:10;}
	.st22{clip-path:url(#XMLID_10_);fill:#FF9A6C;}
	.st23{opacity:0.3;clip-path:url(#XMLID_11_);fill-opacity:0.7;}
	.st24{fill:none;stroke:#1A2E35;stroke-width:0.25;stroke-linecap:round;stroke-linejoin:round;stroke-miterlimit:10;}
	.st25{clip-path:url(#XMLID_12_);fill:#FF9A6C;}
	.st26{clip-path:url(#XMLID_13_);fill:#FF9A6C;}
	.st27{opacity:0.3;clip-path:url(#XMLID_15_);fill-opacity:0.7;}
	.st28{opacity:0.3;clip-path:url(#XMLID_16_);fill-opacity:0.7;}
	.st29{fill:#118C76;}
	.st30{opacity:0.3;clip-path:url(#XMLID_17_);fill:#FFFFFF;fill-opacity:0.7;}
	.st31{clip-path:url(#XMLID_18_);fill:#004033;}
	.st32{fill:#FFFFFF;stroke:#000000;stroke-width:2;stroke-linecap:round;stroke-linejoin:round;stroke-miterlimit:10;}
	.st33{fill:#FFFFFF;stroke:#000000;stroke-linecap:round;stroke-linejoin:round;stroke-miterlimit:10;}
	.st34{fill:#1A2E35;stroke:#000000;stroke-linecap:round;stroke-linejoin:round;stroke-miterlimit:10;}
	.st35{fill:#FFC40D;}
	.st36{fill:#FFFFFF;stroke:#000000;stroke-width:0.75;stroke-linecap:round;stroke-linejoin:round;stroke-miterlimit:10;}
	.st37{fill:#8C8C8C;stroke:#000000;stroke-width:0.75;stroke-linecap:round;stroke-linejoin:round;stroke-miterlimit:10;}
	.st38{fill:#FFBF9D;}
	.st39{stroke:#000000;stroke-linecap:round;stroke-linejoin:round;stroke-miterlimit:10;}
	.st40{fill:#011612;}
	.st41{fill:#7AC142;stroke:#000000;stroke-width:0.75;stroke-miterlimit:10;}
	.st42{fill:#5AE4A7;stroke:#000000;stroke-linecap:round;stroke-linejoin:round;stroke-miterlimit:10;}
	.st43{fill:#308618;stroke:#000000;stroke-width:0.5;stroke-miterlimit:10;}
	.st44{fill:#308618;}
	.st45{opacity:0.6;}
	.st46{fill:#27393C;stroke:#000000;stroke-width:0.75;stroke-miterlimit:10;}
	.st47{fill:#375A64;stroke:#000000;stroke-width:0.75;stroke-miterlimit:10;}
	.st48{opacity:0.2;}
	.st49{fill:#009438;}
	.st50{fill:#005E38;}
	.st51{fill:#FF4F5B;}
	.st52{fill:none;stroke:#1A2E35;stroke-miterlimit:10;}
	.st53{fill:#1A2E35;stroke:#1A2E35;stroke-linecap:round;stroke-linejoin:round;stroke-miterlimit:10;}
	.st54{fill:#7AC142;stroke:#000000;stroke-miterlimit:10;}
	.st55{fill:#AAFF00;stroke:#1A2E35;stroke-linecap:round;stroke-linejoin:round;stroke-miterlimit:10;}
	.st56{fill:#FFD29C;stroke:#1A2E35;stroke-linecap:round;stroke-linejoin:round;stroke-miterlimit:10;}
	.st57{fill:#FFD69C;stroke:#1A2E35;stroke-linecap:round;stroke-linejoin:round;stroke-miterlimit:10;}
	.st58{fill:none;stroke:#1A2E35;stroke-width:2;stroke-linecap:round;stroke-linejoin:round;stroke-miterlimit:10;}
	.st59{fill:#4E5E64;stroke:#1A2E35;stroke-linecap:round;stroke-linejoin:round;stroke-miterlimit:10;}
	.st60{fill:#FFC40D;stroke:#000000;stroke-miterlimit:10;}
	.st61{fill:#A3A3A3;stroke:#1A2E35;stroke-linecap:round;stroke-linejoin:round;stroke-miterlimit:10;}
	.st62{fill:#AAFF00;}
	.st63{fill:#1A2E35;stroke:#1A2E35;stroke-miterlimit:10;}
	.st64{fill:#4F4F4F;stroke:#1A2E35;stroke-linecap:round;stroke-linejoin:round;stroke-miterlimit:10;}
	.st65{fill:#EEF8EE;stroke:#000000;stroke-miterlimit:10;}
	.st66{fill:#FFC000;}
	.st67{fill:#FF9A6C;stroke:#000000;stroke-width:0.5;stroke-miterlimit:10;}
	.st68{fill:#118C76;stroke:#000000;stroke-miterlimit:10;}
	.st69{fill:#FFC40D;stroke:#000000;stroke-width:0.5;stroke-miterlimit:10;}
	.st70{fill:#7BC043;stroke:#000000;stroke-width:0.5;stroke-miterlimit:10;}
	.st71{fill:#FFBC98;stroke:#000000;stroke-width:0.5;stroke-miterlimit:10;}
	.st72{fill:url(#SVGID_1_);}
	.st73{fill:#F5F5F5;stroke:#000000;stroke-miterlimit:10;}
	.st74{fill:#FFFFFF;stroke:#000000;stroke-miterlimit:10;}
	.st75{fill:#7BC043;}
	.st76{fill:#FFC10E;stroke:#000000;stroke-width:0.75;stroke-miterlimit:10;}
	.st77{fill:#FFC10E;}
	.st78{fill:#5AE4A7;}
	.st79{fill:#FFFFFF;stroke:#1A2E35;stroke-miterlimit:10;}
	.st80{fill:#FFD8B6;stroke:#000000;stroke-miterlimit:10;}
	.st81{fill:#5AE4A7;stroke:#1A2E35;stroke-linecap:round;stroke-linejoin:round;stroke-miterlimit:10;}
	.st82{fill:none;stroke:#4C4C4C;stroke-linecap:round;stroke-linejoin:round;stroke-miterlimit:10;}
	.st83{fill:#FFAD80;}
	.st84{fill:#4C4C4C;stroke:#1A2E35;stroke-linecap:round;stroke-linejoin:round;stroke-miterlimit:10;}
	.st85{fill:#FFAD80;stroke:#000000;stroke-miterlimit:10;}
	.st86{fill:#B5B5B5;stroke:#1A2E35;stroke-linecap:round;stroke-linejoin:round;stroke-miterlimit:10;}
	.st87{fill:#FFFFFF;stroke:#1A2E35;stroke-width:0.75;stroke-linecap:round;stroke-linejoin:round;stroke-miterlimit:10;}
	.st88{fill:#808080;stroke:#1A2E35;stroke-linecap:round;stroke-linejoin:round;stroke-miterlimit:10;}
	.st89{fill:#9A4648;}
	.st90{fill:#FFC40D;stroke:#000000;stroke-width:0.75;stroke-miterlimit:10;}
	.st91{fill:#FFCAA4;stroke:#1A2E35;stroke-width:0.75;stroke-linecap:round;stroke-linejoin:round;stroke-miterlimit:10;}
	.st92{fill:#FFCAA4;stroke:#1A2E35;stroke-width:0.25;stroke-linecap:round;stroke-linejoin:round;stroke-miterlimit:10;}
	.st93{clip-path:url(#XMLID_53_);fill:#7AC142;stroke:#000000;stroke-width:0.5;stroke-miterlimit:10;}
	.st94{opacity:0.5;clip-path:url(#XMLID_53_);fill:#FFFFFF;}
	.st95{fill:#7AC142;stroke:#231F20;stroke-width:0.75;stroke-miterlimit:10;}
	.st96{opacity:0.2;fill-opacity:0.7;}
	.st97{fill:#FFC488;}
	.st98{fill:none;stroke:#FFFFFF;stroke-miterlimit:10;}
	.st99{opacity:0.5;fill:#FFFFFF;}
	.st100{fill:none;}
	.st101{fill:#054E38;}
	.st102{fill:#05362A;}
	.st103{fill:#E4A686;}
	.st104{fill:#AA6550;}
	.st105{opacity:0.43;fill:#1A2E35;}
	.st106{fill:#FFD4B8;stroke:#1A2E35;stroke-linecap:round;stroke-linejoin:round;stroke-miterlimit:10;}
	.st107{fill:#7AC142;stroke:#1A2E35;stroke-width:0.5;stroke-miterlimit:10;}
	.st108{fill:none;stroke:#1A2E35;stroke-width:0.75;stroke-linecap:round;stroke-linejoin:round;stroke-miterlimit:10;}
	.st109{fill:none;stroke:#1A2E35;stroke-width:0.5;stroke-linecap:round;stroke-linejoin:round;stroke-miterlimit:10;}
	.st110{fill:none;stroke:#1A2E35;stroke-width:3;stroke-linecap:round;stroke-linejoin:round;stroke-miterlimit:10;}
	.st111{fill:#FFFFFF;stroke:#1A2E35;stroke-width:0.5;stroke-linecap:round;stroke-linejoin:round;stroke-miterlimit:10;}
	.st112{fill:none;stroke:#004033;stroke-width:0.5;stroke-miterlimit:10;}
	.st113{fill:#DBEEE0;}
	.st114{fill:#9CA5A8;}
	.st115{fill:#00463E;}
	.st116{clip-path:url(#XMLID_54_);fill:#FFC40D;}
	.st117{clip-path:url(#XMLID_54_);}
	.st118{fill:#D7D7D7;}
	.st119{fill:#E1E1E1;stroke:#FFFFFF;stroke-miterlimit:10;}
	.st120{fill:#CCCCCC;stroke:#000000;stroke-width:0.5;stroke-miterlimit:10;}
	.st121{clip-path:url(#XMLID_55_);fill:#FFBF9A;}
	.st122{clip-path:url(#XMLID_56_);fill:#FFBF9A;}
	.st123{fill:#00423A;stroke:#000000;stroke-width:0.5;stroke-miterlimit:10;}
	.st124{clip-path:url(#XMLID_60_);}
	.st125{fill:#00423A;}
	.st126{clip-path:url(#XMLID_125_);fill:#FFBF9A;stroke:#FFFFFF;stroke-width:0.5;stroke-miterlimit:10;}
	.st127{clip-path:url(#XMLID_125_);fill:#FFA886;}
	.st128{fill:#FFBF9A;stroke:#000000;stroke-width:0.5;stroke-miterlimit:10;}
	.st129{clip-path:url(#XMLID_127_);fill:#FFBF9A;stroke:#FFFFFF;stroke-width:0.25;stroke-miterlimit:10;}
	.st130{clip-path:url(#XMLID_128_);fill:none;stroke:#1A2E35;stroke-linecap:round;stroke-linejoin:round;stroke-miterlimit:10;}
	.st131{fill:#121A21;stroke:#1A2E35;stroke-width:0.5;stroke-linecap:round;stroke-linejoin:round;stroke-miterlimit:10;}
	.st132{fill:none;stroke:#000000;stroke-width:0.5;stroke-linecap:round;stroke-linejoin:round;stroke-miterlimit:10;}
	.st133{fill:#002E2C;stroke:#000000;stroke-width:0.5;stroke-miterlimit:10;}
	.st134{fill:#001A19;stroke:#000000;stroke-width:0.5;stroke-linecap:round;stroke-linejoin:round;stroke-miterlimit:10;}
	.st135{fill:none;stroke:#FFFFFF;stroke-width:0.5;stroke-linecap:round;stroke-linejoin:round;stroke-miterlimit:10;}
	.st136{fill:#1A2E35;stroke:#000000;stroke-width:0.5;stroke-linecap:round;stroke-linejoin:round;stroke-miterlimit:10;}
	.st137{opacity:0.17;clip-path:url(#XMLID_129_);fill:#FFFFFF;stroke:#FFFFFF;stroke-miterlimit:10;}
	.st138{clip-path:url(#XMLID_130_);fill:#FFA886;}
	.st139{fill:none;stroke:#000000;stroke-linecap:round;stroke-linejoin:round;stroke-miterlimit:10;}
</style>
<g>
	<g>
		<g>
			
				<rect x="401.3" y="61.2" transform="matrix(1 -5.354316e-03 5.354316e-03 1 -0.3924 2.164)" class="st1" width="5.3" height="26.4"/>
		</g>
	</g>
	<g>
		<g>
			<g>
				
					<rect x="355.3" y="61.3" transform="matrix(1 -5.351492e-03 5.351492e-03 1 -0.3617 1.9391)" class="st4" width="13.7" height="14.6"/>
			</g>
		</g>
		<g>
			<g>
				
					<rect x="369" y="61.2" transform="matrix(1 -5.356020e-03 5.356020e-03 1 -0.3614 2.014)" class="st5" width="13.7" height="14.6"/>
			</g>
		</g>
		<g>
			<g>
				<g>
					<path class="st1" d="M355.3,65.3c9.1,0.1,18.3,0,27.4-0.1c0.2,0,0.2-0.3,0-0.3c-9.1-0.1-18.3,0-27.4,0.2
						C355.1,65.1,355.1,65.3,355.3,65.3L355.3,65.3z"/>
				</g>
			</g>
		</g>
	</g>
	<g>
		<g>
			<g>
				
					<rect x="346.7" y="75.6" transform="matrix(1 -5.357951e-03 5.357951e-03 1 -0.4319 1.9257)" class="st4" width="25" height="11.9"/>
			</g>
		</g>
		<g>
			<g>
				
					<rect x="371.6" y="75.5" transform="matrix(1 -5.355446e-03 5.355446e-03 1 -0.4306 2.058)" class="st5" width="25" height="11.9"/>
			</g>
		</g>
		<g>
			<g>
				<g>
					<path class="st1" d="M346.7,79c16.6,0.2,33.2,0,49.8-0.2c0.2,0,0.2-0.3,0-0.3c-16.6-0.1-33.2-0.1-49.8,0.3
						C346.5,78.8,346.5,79,346.7,79L346.7,79z"/>
				</g>
			</g>
		</g>
	</g>
	<g>
		<g>
			<rect x="337.4" y="87.6" class="st1" width="96.8" height="4.3"/>
		</g>
		<g>
			<rect x="353.2" y="89.6" class="st1" width="3.9" height="14.5"/>
		</g>
		<g>
			<rect x="411.8" y="89.6" class="st1" width="3.9" height="14.5"/>
		</g>
	</g>
	<g>
		<g>
			
				<rect x="406.5" y="51.3" transform="matrix(1 -5.354316e-03 5.354316e-03 1 -0.3662 2.1918)" class="st4" width="5.3" height="36.3"/>
		</g>
	</g>
	<g>
		<g>
			<g>
				
					<rect x="411.9" y="58.1" transform="matrix(1 -5.367831e-03 5.367831e-03 1 -0.3848 2.2339)" class="st5" width="8.2" height="29.4"/>
			</g>
		</g>
		<g>
			<g>
				<path class="st1" d="M420,63.7c0,0.1-1.8,0.1-4.1,0.1c-2.3,0-4.1-0.1-4.1-0.1c0-0.1,1.8-0.1,4.1-0.1
					C418.1,63.6,420,63.7,420,63.7z"/>
			</g>
		</g>
		<g>
			<g>
				<path class="st1" d="M420,62.5c0,0.1-1.8,0.1-4.1,0.1c-2.3,0-4.1-0.1-4.1-0.1c0-0.1,1.8-0.1,4.1-0.1
					C418.1,62.4,420,62.4,420,62.5z"/>
			</g>
		</g>
		<g>
			<g>
				<path class="st1" d="M420,83.1c0,0.1-1.8,0.1-4.1,0.1c-2.3,0-4.1-0.1-4.1-0.1c0-0.1,1.8-0.1,4.1-0.1C418.1,82.9,420,83,420,83.1
					z"/>
			</g>
		</g>
		<g>
			<g>
				<path class="st1" d="M420,81.8c0,0.1-1.8,0.1-4.1,0.1c-2.3,0-4.1-0.1-4.1-0.1c0-0.1,1.8-0.1,4.1-0.1
					C418.1,81.7,420,81.8,420,81.8z"/>
			</g>
		</g>
		<g>
			<g>
				<path class="st1" d="M416,79.1c-0.1,0-0.1-3-0.1-6.6c0-3.7,0.1-6.6,0.1-6.6c0.1,0,0.1,3,0.1,6.6C416.1,76.2,416.1,79.1,416,79.1
					z"/>
			</g>
		</g>
	</g>
	<g>
		<g>
			<rect x="420.1" y="65.3" class="st4" width="9" height="22.2"/>
		</g>
		<g>
			<path class="st2" d="M424.8,81.8c-1.2,0-2-0.8-2-2c0-0.6,0.2-1.2,0.7-1.5l0.2,0.3c-0.4,0.3-0.6,0.7-0.6,1.2
				c0,0.9,0.7,1.6,1.7,1.6c1,0,1.7-0.7,1.7-1.6c0-0.5-0.2-0.9-0.6-1.2l0.2-0.3c0.5,0.3,0.7,0.9,0.7,1.5
				C426.8,80.9,426,81.8,424.8,81.8z"/>
			<path class="st2" d="M426.3,77.7l-0.3-0.2c0.3-0.3,0.5-0.8,0.5-1.4c0-0.8-0.3-1.2-0.7-1.2c-1.2,0-0.3,2.6-1.9,2.6
				c-0.6,0-1.1-0.5-1.1-1.5c0-0.5,0.2-1,0.4-1.4l0.3,0.2c-0.2,0.3-0.4,0.8-0.4,1.2c0,0.8,0.3,1.1,0.7,1.1c1.2,0,0.3-2.6,1.9-2.6
				c0.6,0,1.1,0.6,1.1,1.6C426.8,76.8,426.6,77.4,426.3,77.7z"/>
			<path class="st2" d="M426.3,74.1l-0.3-0.2c0.3-0.3,0.5-0.8,0.5-1.4c0-0.8-0.3-1.2-0.7-1.2c-1.2,0-0.3,2.6-1.9,2.6
				c-0.6,0-1.1-0.5-1.1-1.5c0-0.5,0.2-1,0.4-1.4l0.3,0.2c-0.2,0.3-0.4,0.8-0.4,1.2c0,0.8,0.3,1.1,0.7,1.1c1.2,0,0.3-2.6,1.9-2.6
				c0.6,0,1.1,0.6,1.1,1.6C426.8,73.2,426.6,73.8,426.3,74.1z"/>
		</g>
	</g>
	<g>
		<path class="st1" d="M410.5,57.5c0,0.8-0.7,1.5-1.5,1.5c-0.8,0-1.5-0.7-1.5-1.5s0.7-1.5,1.5-1.5C409.8,56,410.5,56.7,410.5,57.5z"
			/>
	</g>
	<g>
		<rect x="408.5" y="61.7" class="st1" width="0.9" height="21.6"/>
	</g>
</g>
<g>
	<g>
		<g>
			<g>
				<rect x="357.7" y="224.5" class="st4" width="44.9" height="3.5"/>
			</g>
		</g>
		<g>
			<g>
				<rect x="390.2" y="224.5" class="st1" width="12.3" height="3.5"/>
			</g>
		</g>
	</g>
	<g>
		<g>
			<path class="st5" d="M351.9,228c0,0.3,0,15.7,0,15.7h-2.5v1.7h2.5v10.5h46v-9.6h-3.4v-2.1h3.4v-3.1h1.5v-1.4h-1.8V228H351.9z"/>
		</g>
	</g>
	<g>
		<g>
			<polygon class="st1" points="385.7,228 385.7,255.7 398,255.7 398,246.1 394.5,246.1 394.5,244.2 398,244.2 398,241.1 
				399.5,241.1 399.5,239.5 397.7,239.5 397.7,228 			"/>
		</g>
	</g>
	<g>
		<g>
			<g>
				<path class="st1" d="M386.6,245.1c0,0.1-8.3,0.2-18.6,0.2c-10.3,0-18.6-0.1-18.6-0.2c0-0.1,8.3-0.2,18.6-0.2
					C378.3,245,386.6,245,386.6,245.1z"/>
			</g>
		</g>
	</g>
	<g>
		<g>
			<g>
				<path class="st1" d="M386.6,243.5c0,0.1-8.3,0.2-18.6,0.2c-10.3,0-18.6-0.1-18.6-0.2c0-0.1,8.3-0.2,18.6-0.2
					C378.3,243.4,386.6,243.4,386.6,243.5z"/>
			</g>
		</g>
	</g>
	<g>
		<g>
			<g>
				<path class="st1" d="M389,239.3c0,0.1-8.3,0.2-18.6,0.2c-10.3,0-18.6-0.1-18.6-0.2c0-0.1,8.3-0.2,18.6-0.2
					C380.7,239.1,389,239.2,389,239.3z"/>
			</g>
		</g>
	</g>
	<g>
		<g>
			<g>
				<path class="st1" d="M389.2,250.9c0,0.1-8.3,0.2-18.6,0.2c-10.3,0-18.6-0.1-18.6-0.2c0-0.1,8.3-0.2,18.6-0.2
					C380.9,250.8,389.2,250.9,389.2,250.9z"/>
			</g>
		</g>
	</g>
	<g>
		<g>
			<g>
				<path class="st5" d="M357.2,259.2c0,0.3,0,15.7,0,15.7h-2.5v1.7h2.5v10.5h46v-9.6h-3.4v-2.1h3.4v-3.1h1.5v-1.4h-1.8v-11.7H357.2
					z"/>
			</g>
		</g>
		<g>
			<g>
				<polygon class="st1" points="391,259.2 391,286.9 403.2,286.9 403.2,277.4 399.8,277.4 399.8,275.5 403.2,275.5 403.2,272.4 
					404.7,272.4 404.7,270.8 402.9,270.8 402.9,259.2 				"/>
			</g>
		</g>
		<g>
			<g>
				<g>
					<path class="st1" d="M391.8,276.4c0,0.1-8.3,0.2-18.6,0.2c-10.3,0-18.6-0.1-18.6-0.2c0-0.1,8.3-0.2,18.6-0.2
						C383.5,276.2,391.8,276.3,391.8,276.4z"/>
				</g>
			</g>
		</g>
		<g>
			<g>
				<g>
					<path class="st1" d="M391.8,274.8c0,0.1-8.3,0.2-18.6,0.2c-10.3,0-18.6-0.1-18.6-0.2s8.3-0.2,18.6-0.2
						C383.5,274.6,391.8,274.7,391.8,274.8z"/>
				</g>
			</g>
		</g>
		<g>
			<g>
				<g>
					<path class="st1" d="M394.2,270.5c0,0.1-8.3,0.2-18.6,0.2c-10.3,0-18.6-0.1-18.6-0.2c0-0.1,8.3-0.2,18.6-0.2
						C385.9,270.3,394.2,270.4,394.2,270.5z"/>
				</g>
			</g>
		</g>
		<g>
			<g>
				<g>
					<path class="st1" d="M394.4,282.2c0,0.1-8.3,0.2-18.6,0.2c-10.3,0-18.6-0.1-18.6-0.2c0-0.1,8.3-0.2,18.6-0.2
						C386.1,282,394.4,282.1,394.4,282.2z"/>
				</g>
			</g>
		</g>
	</g>
	<g>
		<g>
			<g>
				<path class="st5" d="M356.5,196.6c0,0.3,0,15.7,0,15.7H354v1.7h2.5v10.5h46v-9.6h-3.4v-2.1h3.4v-3.1h1.5v-1.4h-1.8v-11.7H356.5z
					"/>
			</g>
		</g>
		<g>
			<g>
				<polygon class="st1" points="390.3,196.6 390.3,224.3 402.5,224.3 402.5,214.7 399.1,214.7 399.1,212.8 402.5,212.9 
					402.5,209.8 404.1,209.8 404,208.2 402.2,208.1 402.2,196.6 				"/>
			</g>
		</g>
		<g>
			<g>
				<g>
					<path class="st1" d="M391.2,213.7c0,0.1-8.3,0.2-18.6,0.2c-10.3,0-18.6-0.1-18.6-0.2c0-0.1,8.3-0.2,18.6-0.2
						C382.8,213.6,391.2,213.6,391.2,213.7z"/>
				</g>
			</g>
		</g>
		<g>
			<g>
				<g>
					<path class="st1" d="M391.2,212.1c0,0.1-8.3,0.2-18.6,0.2c-10.3,0-18.6-0.1-18.6-0.2c0-0.1,8.3-0.2,18.6-0.2
						C382.8,212,391.2,212,391.2,212.1z"/>
				</g>
			</g>
		</g>
		<g>
			<g>
				<g>
					<path class="st1" d="M393.5,207.9c0,0.1-8.3,0.2-18.6,0.2c-10.3,0-18.6-0.1-18.6-0.2c0-0.1,8.3-0.2,18.6-0.2
						C385.2,207.7,393.5,207.8,393.5,207.9z"/>
				</g>
			</g>
		</g>
		<g>
			<g>
				<g>
					<path class="st1" d="M393.8,219.5c0,0.1-8.3,0.2-18.6,0.2c-10.3,0-18.6-0.1-18.6-0.2c0-0.1,8.3-0.2,18.6-0.2
						C385.5,219.4,393.8,219.5,393.8,219.5z"/>
				</g>
			</g>
		</g>
	</g>
	<g>
		<g>
			<g>
				<rect x="354.6" y="255.7" class="st4" width="44.9" height="3.5"/>
			</g>
		</g>
		<g>
			<g>
				<rect x="387.2" y="255.7" class="st1" width="12.3" height="3.5"/>
			</g>
		</g>
	</g>
</g>
<g>
	<g>
		<g>
			<rect x="76.1" y="22.6" class="st3" width="302.3" height="182.4"/>
		</g>
		<g>
			<g>
				<path class="st7" d="M378.4,204.9c0-1,0-70.6-0.1-182.4l0.1,0.1c-81.7,0-187.3,0-302.3,0h0l0.2-0.2c0,64.6,0,126.3,0,182.4
					l-0.1-0.1C253.5,204.9,377.1,204.9,378.4,204.9c-1.4,0-124.9,0.1-302.3,0.1l-0.1,0v-0.1c0-56.1,0-117.8,0-182.4l0-0.2h0.2h0
					c115,0,220.6,0,302.3,0h0.1l0,0.1C378.5,134.3,378.4,203.9,378.4,204.9z"/>
			</g>
		</g>
	</g>
	<g>
		<path class="st1" d="M115.7,53.5c0,0-1.6,14.9,0.5,23l19.9-0.9c0,0-4.3-14.7-1.6-21.2L115.7,53.5z"/>
	</g>
	<g>
		<g>
			<path class="st35" d="M115.5,53.5c0,0,0.1,16.1,1,21l20.1-1c0,0-1.8-15.8-1.1-20H115.5z"/>
		</g>
		<g>
			<g>
				<path class="st3" d="M132.5,60.3c0,0.1-3,0.3-6.7,0.6c-3.7,0.2-6.8,0.3-6.8,0.2c0-0.1,3-0.3,6.7-0.6
					C129.5,60.3,132.5,60.2,132.5,60.3z"/>
			</g>
		</g>
		<g>
			<g>
				<path class="st3" d="M132.5,63.7c0,0.1-3,0.3-6.7,0.6c-3.7,0.2-6.8,0.3-6.8,0.2c0-0.1,3-0.3,6.7-0.6
					C129.5,63.7,132.5,63.6,132.5,63.7z"/>
			</g>
		</g>
		<g>
			<g>
				<path class="st3" d="M129.1,67c0,0.1-1.7,0.3-3.8,0.4c-2.1,0.1-3.9,0.2-3.9,0.1c0-0.1,1.7-0.3,3.8-0.4
					C127.3,66.9,129.1,66.9,129.1,67z"/>
			</g>
		</g>
	</g>
	<g>
		<g>
			<path class="st35" d="M115.2,77.5c0,0,0.1,16.1,1,21l20.1-1c0,0-1.8-15.8-1.1-20H115.2z"/>
		</g>
		<g>
			<g>
				<path class="st3" d="M132.1,84.3c0,0.1-3,0.3-6.7,0.6c-3.7,0.2-6.8,0.3-6.8,0.2c0-0.1,3-0.3,6.7-0.6
					C129.1,84.3,132.1,84.2,132.1,84.3z"/>
			</g>
		</g>
		<g>
			<g>
				<path class="st3" d="M132.1,87.7c0,0.1-3,0.3-6.7,0.6c-3.7,0.2-6.8,0.3-6.8,0.2c0-0.1,3-0.3,6.7-0.6
					C129.1,87.7,132.1,87.6,132.1,87.7z"/>
			</g>
		</g>
		<g>
			<g>
				<path class="st3" d="M128.7,91c0,0.1-1.7,0.3-3.8,0.4c-2.1,0.1-3.9,0.2-3.9,0.1c0-0.1,1.7-0.3,3.8-0.4
					C127,90.9,128.7,90.9,128.7,91z"/>
			</g>
		</g>
	</g>
	<g>
		<g>
			<path class="st7" d="M115.2,104.7c0,0,0.1,16.1,1,21l20.1-1c0,0-1.8-15.8-1.1-20H115.2z"/>
		</g>
		<g>
			<g>
				<path class="st3" d="M132.1,111.5c0,0.1-3,0.3-6.7,0.6c-3.7,0.2-6.8,0.3-6.8,0.2c0-0.1,3-0.3,6.7-0.6
					C129.1,111.5,132.1,111.4,132.1,111.5z"/>
			</g>
		</g>
		<g>
			<g>
				<path class="st3" d="M132.1,114.9c0,0.1-3,0.3-6.7,0.6c-3.7,0.2-6.8,0.3-6.8,0.2c0-0.1,3-0.3,6.7-0.6
					C129.1,114.9,132.1,114.8,132.1,114.9z"/>
			</g>
		</g>
		<g>
			<g>
				<path class="st3" d="M128.7,118.2c0,0.1-1.7,0.3-3.8,0.4c-2.1,0.1-3.9,0.2-3.9,0.1c0-0.1,1.7-0.3,3.8-0.4
					C127,118.1,128.7,118.1,128.7,118.2z"/>
			</g>
		</g>
	</g>
	<g>
		<g>
			<path class="st29" d="M112.8,136.5c0,0,0.1,16.1,1,21l20.1-1c0,0-1.8-15.8-1.1-20H112.8z"/>
		</g>
		<g>
			<g>
				<path class="st3" d="M129.8,143.3c0,0.1-3,0.3-6.7,0.6c-3.7,0.2-6.8,0.3-6.8,0.2c0-0.1,3-0.3,6.7-0.6
					C126.8,143.3,129.8,143.2,129.8,143.3z"/>
			</g>
		</g>
		<g>
			<g>
				<path class="st3" d="M129.8,146.7c0,0.1-3,0.3-6.7,0.6c-3.7,0.2-6.8,0.3-6.8,0.2c0-0.1,3-0.3,6.7-0.6
					C126.8,146.7,129.8,146.6,129.8,146.7z"/>
			</g>
		</g>
		<g>
			<g>
				<path class="st3" d="M126.4,150c0,0.1-1.7,0.3-3.8,0.4c-2.1,0.1-3.9,0.2-3.9,0.1c0-0.1,1.7-0.3,3.8-0.4
					C124.6,149.9,126.4,149.9,126.4,150z"/>
			</g>
		</g>
	</g>
	<g>
		<g>
			<path class="st7" d="M139.5,136.7c0,0,0.1,16.1,1,21l20.1-1c0,0-1.8-15.8-1.1-20H139.5z"/>
		</g>
		<g>
			<g>
				<path class="st3" d="M156.5,143.4c0,0.1-3,0.3-6.7,0.6c-3.7,0.2-6.8,0.3-6.8,0.2c0-0.1,3-0.3,6.7-0.6
					C153.5,143.4,156.5,143.3,156.5,143.4z"/>
			</g>
		</g>
		<g>
			<g>
				<path class="st3" d="M156.5,146.8c0,0.1-3,0.3-6.7,0.6c-3.7,0.2-6.8,0.3-6.8,0.2c0-0.1,3-0.3,6.7-0.6
					C153.5,146.8,156.5,146.7,156.5,146.8z"/>
			</g>
		</g>
		<g>
			<g>
				<path class="st3" d="M153.1,150.1c0,0.1-1.7,0.3-3.8,0.4c-2.1,0.1-3.9,0.2-3.9,0.1c0-0.1,1.7-0.3,3.8-0.4
					C151.3,150.1,153.1,150.1,153.1,150.1z"/>
			</g>
		</g>
	</g>
	<g>
		<g>
			<path class="st35" d="M161.8,137.8c0,0,0.1,16.1,1,21l20.1-1c0,0-1.8-15.8-1.1-20H161.8z"/>
		</g>
		<g>
			<g>
				<path class="st3" d="M178.8,144.6c0,0.1-3,0.3-6.7,0.6c-3.7,0.2-6.8,0.3-6.8,0.2c0-0.1,3-0.3,6.7-0.6
					C175.8,144.6,178.8,144.5,178.8,144.6z"/>
			</g>
		</g>
		<g>
			<g>
				<path class="st3" d="M178.8,148c0,0.1-3,0.3-6.7,0.6c-3.7,0.2-6.8,0.3-6.8,0.2c0-0.1,3-0.3,6.7-0.6
					C175.8,148,178.8,147.9,178.8,148z"/>
			</g>
		</g>
		<g>
			<g>
				<path class="st3" d="M175.4,151.3c0,0.1-1.7,0.3-3.8,0.4c-2.1,0.1-3.9,0.2-3.9,0.1c0-0.1,1.7-0.3,3.8-0.4
					C173.7,151.2,175.4,151.2,175.4,151.3z"/>
			</g>
		</g>
	</g>
	<g>
		<g>
			<g>
				<path class="st101" d="M135.8,165.3c0,0,0.1,16.1,1,21l20.1-1c0,0-1.8-15.8-1.1-20H135.8z"/>
			</g>
		</g>
		<g>
			<g>
				<path class="st3" d="M152.7,172c0,0.1-3,0.3-6.7,0.6c-3.7,0.2-6.8,0.3-6.8,0.2c0-0.1,3-0.3,6.7-0.6
					C149.7,172,152.7,171.9,152.7,172z"/>
			</g>
		</g>
		<g>
			<g>
				<path class="st3" d="M152.7,175.4c0,0.1-3,0.3-6.7,0.6c-3.7,0.2-6.8,0.3-6.8,0.2c0-0.1,3-0.3,6.7-0.6
					C149.7,175.4,152.7,175.3,152.7,175.4z"/>
			</g>
		</g>
		<g>
			<g>
				<path class="st3" d="M149.3,178.7c0,0.1-1.7,0.3-3.8,0.4c-2.1,0.1-3.9,0.2-3.9,0.1c0-0.1,1.7-0.3,3.8-0.4
					C147.6,178.7,149.3,178.7,149.3,178.7z"/>
			</g>
		</g>
	</g>
	<g>
		<g>
			<path class="st102" d="M200.4,128.4c0,0,0.1,16.1,1,21l20.1-1c0,0-1.8-15.8-1.1-20H200.4z"/>
		</g>
		<g>
			<g>
				<path class="st3" d="M217.4,135.1c0,0.1-3,0.3-6.7,0.6c-3.7,0.2-6.8,0.3-6.8,0.2c0-0.1,3-0.3,6.7-0.6
					C214.3,135.2,217.4,135,217.4,135.1z"/>
			</g>
		</g>
		<g>
			<g>
				<path class="st3" d="M217.4,138.5c0,0.1-3,0.3-6.7,0.6c-3.7,0.2-6.8,0.3-6.8,0.2c0-0.1,3-0.3,6.7-0.6
					C214.3,138.6,217.4,138.4,217.4,138.5z"/>
			</g>
		</g>
		<g>
			<g>
				<path class="st3" d="M213.9,141.9c0,0.1-1.7,0.3-3.8,0.4c-2.1,0.1-3.9,0.2-3.9,0.1c0-0.1,1.7-0.3,3.8-0.4
					C212.2,141.8,213.9,141.8,213.9,141.9z"/>
			</g>
		</g>
	</g>
	<g>
		<g>
			<path class="st29" d="M244.1,166.1c0,0,0.1,16.1,1,21l20.1-1c0,0-1.8-15.8-1.1-20H244.1z"/>
		</g>
		<g>
			<g>
				<path class="st3" d="M261.1,172.8c0,0.1-3,0.3-6.7,0.6c-3.7,0.2-6.8,0.3-6.8,0.2c0-0.1,3-0.3,6.7-0.6
					C258,172.8,261.1,172.7,261.1,172.8z"/>
			</g>
		</g>
		<g>
			<g>
				<path class="st3" d="M261.1,176.2c0,0.1-3,0.3-6.7,0.6c-3.7,0.2-6.8,0.3-6.8,0.2c0-0.1,3-0.3,6.7-0.6
					C258.1,176.2,261.1,176.1,261.1,176.2z"/>
			</g>
		</g>
		<g>
			<g>
				<path class="st3" d="M257.7,179.6c0,0.1-1.7,0.3-3.8,0.4c-2.1,0.1-3.9,0.2-3.9,0.1c0-0.1,1.7-0.3,3.8-0.4
					C255.9,179.5,257.7,179.5,257.7,179.6z"/>
			</g>
		</g>
	</g>
	<g>
		<g>
			<path class="st29" d="M269,166.4c0,0,0.1,16.1,1,21l20.1-1c0,0-1.8-15.8-1.1-20H269z"/>
		</g>
		<g>
			<g>
				<path class="st3" d="M285.9,173.2c0,0.1-3,0.3-6.7,0.6c-3.7,0.2-6.8,0.3-6.8,0.2c0-0.1,3-0.3,6.7-0.6
					C282.9,173.2,285.9,173.1,285.9,173.2z"/>
			</g>
		</g>
		<g>
			<g>
				<path class="st3" d="M285.9,176.6c0,0.1-3,0.3-6.7,0.6c-3.7,0.2-6.8,0.3-6.8,0.2c0-0.1,3-0.3,6.7-0.6
					C282.9,176.6,285.9,176.5,285.9,176.6z"/>
			</g>
		</g>
		<g>
			<g>
				<path class="st3" d="M282.5,179.9c0,0.1-1.7,0.3-3.8,0.4c-2.1,0.1-3.9,0.2-3.9,0.1c0-0.1,1.7-0.3,3.8-0.4
					C280.8,179.8,282.5,179.8,282.5,179.9z"/>
			</g>
		</g>
	</g>
	<g>
		<g>
			<path class="st7" d="M293.8,166.8c0,0,0.1,16.1,1,21l20.1-1c0,0-1.8-15.8-1.1-20H293.8z"/>
		</g>
		<g>
			<g>
				<path class="st3" d="M310.8,173.5c0,0.1-3,0.3-6.7,0.6c-3.7,0.2-6.8,0.3-6.8,0.2c0-0.1,3-0.3,6.7-0.6
					C307.8,173.5,310.8,173.4,310.8,173.5z"/>
			</g>
		</g>
		<g>
			<g>
				<path class="st3" d="M310.8,176.9c0,0.1-3,0.3-6.7,0.6c-3.7,0.2-6.8,0.3-6.8,0.2c0-0.1,3-0.3,6.7-0.6
					C307.8,176.9,310.8,176.8,310.8,176.9z"/>
			</g>
		</g>
		<g>
			<g>
				<path class="st3" d="M307.4,180.2c0,0.1-1.7,0.3-3.8,0.4c-2.1,0.1-3.9,0.2-3.9,0.1c0-0.1,1.7-0.3,3.8-0.4
					C305.6,180.2,307.4,180.2,307.4,180.2z"/>
			</g>
		</g>
	</g>
	<g>
		<g>
			<path class="st29" d="M323.7,165.8c0,0,0.1,16.1,1,21l20.1-1c0,0-1.8-15.8-1.1-20H323.7z"/>
		</g>
		<g>
			<g>
				<path class="st3" d="M340.7,172.6c0,0.1-3,0.3-6.7,0.6c-3.7,0.2-6.8,0.3-6.8,0.2c0-0.1,3-0.3,6.7-0.6
					C337.6,172.6,340.7,172.5,340.7,172.6z"/>
			</g>
		</g>
		<g>
			<g>
				<path class="st3" d="M340.7,176c0,0.1-3,0.3-6.7,0.6c-3.7,0.2-6.8,0.3-6.8,0.2c0-0.1,3-0.3,6.7-0.6
					C337.6,176,340.7,175.9,340.7,176z"/>
			</g>
		</g>
		<g>
			<g>
				<path class="st3" d="M337.3,179.3c0,0.1-1.7,0.3-3.8,0.4c-2.1,0.1-3.9,0.2-3.9,0.1c0-0.1,1.7-0.3,3.8-0.4
					C335.5,179.3,337.2,179.2,337.3,179.3z"/>
			</g>
		</g>
	</g>
	<g>
		<g>
			<path class="st101" d="M345.4,168.1c0,0,0.1,16.1,1,21l20.1-1c0,0-1.8-15.8-1.1-20H345.4z"/>
		</g>
		<g>
			<g>
				<path class="st3" d="M362.3,174.9c0,0.1-3,0.3-6.7,0.6c-3.7,0.2-6.8,0.3-6.8,0.2c0-0.1,3-0.3,6.7-0.6
					C359.3,174.9,362.3,174.8,362.3,174.9z"/>
			</g>
		</g>
		<g>
			<g>
				<path class="st3" d="M362.3,178.3c0,0.1-3,0.3-6.7,0.6c-3.7,0.2-6.8,0.3-6.8,0.2c0-0.1,3-0.3,6.7-0.6
					C359.3,178.3,362.3,178.2,362.3,178.3z"/>
			</g>
		</g>
		<g>
			<g>
				<path class="st3" d="M358.9,181.6c0,0.1-1.7,0.3-3.8,0.4c-2.1,0.1-3.9,0.2-3.9,0.1c0-0.1,1.7-0.3,3.8-0.4
					C357.2,181.6,358.9,181.5,358.9,181.6z"/>
			</g>
		</g>
	</g>
	<g>
		<g>
			<path class="st29" d="M244,136.9c0,0,0.1,16.1,1,21l20.1-1c0,0-1.8-15.8-1.1-20H244z"/>
		</g>
		<g>
			<g>
				<path class="st3" d="M261,143.6c0,0.1-3,0.3-6.7,0.6c-3.7,0.2-6.8,0.3-6.8,0.2c0-0.1,3-0.3,6.7-0.6
					C258,143.7,261,143.6,261,143.6z"/>
			</g>
		</g>
		<g>
			<g>
				<path class="st3" d="M261,147c0,0.1-3,0.3-6.7,0.6c-3.7,0.2-6.8,0.3-6.8,0.2c0-0.1,3-0.3,6.7-0.6C258,147.1,261,147,261,147z"/>
			</g>
		</g>
		<g>
			<g>
				<path class="st3" d="M257.6,150.4c0,0.1-1.7,0.3-3.8,0.4c-2.1,0.1-3.9,0.2-3.9,0.1c0-0.1,1.7-0.3,3.8-0.4
					C255.8,150.3,257.6,150.3,257.6,150.4z"/>
			</g>
		</g>
	</g>
	<g>
		<g>
			<path class="st35" d="M270.3,137c0,0,0.1,16.1,1,21l20.1-1c0,0-1.8-15.8-1.1-20H270.3z"/>
		</g>
		<g>
			<g>
				<path class="st3" d="M287.3,143.7c0,0.1-3,0.3-6.7,0.6c-3.7,0.2-6.8,0.3-6.8,0.2c0-0.1,3-0.3,6.7-0.6
					C284.2,143.7,287.3,143.6,287.3,143.7z"/>
			</g>
		</g>
		<g>
			<g>
				<path class="st3" d="M287.3,147.1c0,0.1-3,0.3-6.7,0.6c-3.7,0.2-6.8,0.3-6.8,0.2c0-0.1,3-0.3,6.7-0.6
					C284.3,147.1,287.3,147,287.3,147.1z"/>
			</g>
		</g>
		<g>
			<g>
				<path class="st3" d="M283.9,150.5c0,0.1-1.7,0.3-3.8,0.4c-2.1,0.1-3.9,0.2-3.9,0.1c0-0.1,1.7-0.3,3.8-0.4
					C282.1,150.4,283.9,150.4,283.9,150.5z"/>
			</g>
		</g>
	</g>
	<g>
		<g>
			<path class="st29" d="M322.1,137c0,0,0.1,16.1,1,21l20.1-1c0,0-1.8-15.8-1.1-20H322.1z"/>
		</g>
		<g>
			<g>
				<path class="st3" d="M339.1,143.7c0,0.1-3,0.3-6.7,0.6c-3.7,0.2-6.8,0.3-6.8,0.2c0-0.1,3-0.3,6.7-0.6
					C336.1,143.8,339.1,143.6,339.1,143.7z"/>
			</g>
		</g>
		<g>
			<g>
				<path class="st3" d="M339.1,147.1c0,0.1-3,0.3-6.7,0.6c-3.7,0.2-6.8,0.3-6.8,0.2c0-0.1,3-0.3,6.7-0.6
					C336.1,147.2,339.1,147,339.1,147.1z"/>
			</g>
		</g>
		<g>
			<g>
				<path class="st3" d="M335.7,150.5c0,0.1-1.7,0.3-3.8,0.4c-2.1,0.1-3.9,0.2-3.9,0.1c0-0.1,1.7-0.3,3.8-0.4
					C333.9,150.4,335.7,150.4,335.7,150.5z"/>
			</g>
		</g>
	</g>
	<g>
		<g>
			<path class="st7" d="M146.4,104.7c0,0,0.1,16.1,1,21l20.1-1c0,0-1.8-15.8-1.1-20H146.4z"/>
		</g>
		<g>
			<g>
				<path class="st3" d="M163.4,111.5c0,0.1-3,0.3-6.7,0.6c-3.7,0.2-6.8,0.3-6.8,0.2c0-0.1,3-0.3,6.7-0.6
					C160.4,111.5,163.4,111.4,163.4,111.5z"/>
			</g>
		</g>
		<g>
			<g>
				<path class="st3" d="M163.4,114.9c0,0.1-3,0.3-6.7,0.6c-3.7,0.2-6.8,0.3-6.8,0.2c0-0.1,3-0.3,6.7-0.6
					C160.4,114.9,163.4,114.8,163.4,114.9z"/>
			</g>
		</g>
		<g>
			<g>
				<path class="st3" d="M160,118.2c0,0.1-1.7,0.3-3.8,0.4c-2.1,0.1-3.9,0.2-3.9,0.1c0-0.1,1.7-0.3,3.8-0.4
					C158.3,118.1,160,118.1,160,118.2z"/>
			</g>
		</g>
	</g>
	<g>
		<g>
			<path class="st35" d="M138.4,53.5c0,0,0.1,16.1,1,21l20.1-1c0,0-1.8-15.8-1.1-20H138.4z"/>
		</g>
		<g>
			<g>
				<path class="st3" d="M155.4,60.3c0,0.1-3,0.3-6.7,0.6c-3.7,0.2-6.8,0.3-6.8,0.2c0-0.1,3-0.3,6.7-0.6
					C152.4,60.3,155.4,60.2,155.4,60.3z"/>
			</g>
		</g>
		<g>
			<g>
				<path class="st3" d="M155.4,63.7c0,0.1-3,0.3-6.7,0.6c-3.7,0.2-6.8,0.3-6.8,0.2c0-0.1,3-0.3,6.7-0.6
					C152.4,63.7,155.4,63.6,155.4,63.7z"/>
			</g>
		</g>
		<g>
			<g>
				<path class="st3" d="M152,67c0,0.1-1.7,0.3-3.8,0.4c-2.1,0.1-3.9,0.2-3.9,0.1c0-0.1,1.7-0.3,3.8-0.4C150.3,66.9,152,66.9,152,67
					z"/>
			</g>
		</g>
	</g>
	<g>
		<g>
			<path class="st35" d="M138.9,77.6c0,0,0.1,16.1,1,21l20.1-1c0,0-1.8-15.8-1.1-20H138.9z"/>
		</g>
		<g>
			<g>
				<path class="st3" d="M155.8,84.3c0,0.1-3,0.3-6.7,0.6c-3.7,0.2-6.8,0.3-6.8,0.2c0-0.1,3-0.3,6.7-0.6
					C152.8,84.4,155.8,84.3,155.8,84.3z"/>
			</g>
		</g>
		<g>
			<g>
				<path class="st3" d="M155.8,87.8c0,0.1-3,0.3-6.7,0.6c-3.7,0.2-6.8,0.3-6.8,0.2c0-0.1,3-0.3,6.7-0.6
					C152.8,87.8,155.8,87.7,155.8,87.8z"/>
			</g>
		</g>
		<g>
			<g>
				<path class="st3" d="M152.4,91.1c0,0.1-1.7,0.3-3.8,0.4c-2.1,0.1-3.9,0.2-3.9,0.1c0-0.1,1.7-0.3,3.8-0.4
					C150.7,91,152.4,91,152.4,91.1z"/>
			</g>
		</g>
	</g>
	<g>
		<g>
			<path class="st35" d="M163.5,53.5c0,0,0.1,16.1,1,21l20.1-1c0,0-1.8-15.8-1.1-20H163.5z"/>
		</g>
		<g>
			<g>
				<path class="st3" d="M180.5,60.3c0,0.1-3,0.3-6.7,0.6c-3.7,0.2-6.8,0.3-6.8,0.2c0-0.1,3-0.3,6.7-0.6
					C177.5,60.3,180.5,60.2,180.5,60.3z"/>
			</g>
		</g>
		<g>
			<g>
				<path class="st3" d="M180.5,63.7c0,0.1-3,0.3-6.7,0.6c-3.7,0.2-6.8,0.3-6.8,0.2c0-0.1,3-0.3,6.7-0.6
					C177.5,63.7,180.5,63.6,180.5,63.7z"/>
			</g>
		</g>
		<g>
			<g>
				<path class="st3" d="M177.1,67c0,0.1-1.7,0.3-3.8,0.4c-2.1,0.1-3.9,0.2-3.9,0.1c0-0.1,1.7-0.3,3.8-0.4
					C175.3,66.9,177.1,66.9,177.1,67z"/>
			</g>
		</g>
	</g>
	<g>
		<g>
			<path class="st35" d="M188.6,53.5c0,0,0.1,16.1,1,21l20.1-1c0,0-1.8-15.8-1.1-20H188.6z"/>
		</g>
		<g>
			<g>
				<path class="st3" d="M205.6,60.3c0,0.1-3,0.3-6.7,0.6c-3.7,0.2-6.8,0.3-6.8,0.2c0-0.1,3-0.3,6.7-0.6
					C202.6,60.3,205.6,60.2,205.6,60.3z"/>
			</g>
		</g>
		<g>
			<g>
				<path class="st3" d="M205.6,63.7c0,0.1-3,0.3-6.7,0.6c-3.7,0.2-6.8,0.3-6.8,0.2c0-0.1,3-0.3,6.7-0.6
					C202.6,63.7,205.6,63.6,205.6,63.7z"/>
			</g>
		</g>
		<g>
			<g>
				<path class="st3" d="M202.2,67c0,0.1-1.7,0.3-3.8,0.4c-2.1,0.1-3.9,0.2-3.9,0.1c0-0.1,1.7-0.3,3.8-0.4
					C200.4,66.9,202.2,66.9,202.2,67z"/>
			</g>
		</g>
	</g>
	<g>
		<g>
			<path class="st102" d="M213.7,53.5c0,0,0.1,16.1,1,21l20.1-1c0,0-1.8-15.8-1.1-20H213.7z"/>
		</g>
		<g>
			<g>
				<path class="st3" d="M230.7,60.3c0,0.1-3,0.3-6.7,0.6c-3.7,0.2-6.8,0.3-6.8,0.2c0-0.1,3-0.3,6.7-0.6
					C227.7,60.3,230.7,60.2,230.7,60.3z"/>
			</g>
		</g>
		<g>
			<g>
				<path class="st3" d="M230.7,63.7c0,0.1-3,0.3-6.7,0.6c-3.7,0.2-6.8,0.3-6.8,0.2c0-0.1,3-0.3,6.7-0.6
					C227.7,63.7,230.7,63.6,230.7,63.7z"/>
			</g>
		</g>
		<g>
			<g>
				<path class="st3" d="M227.3,67c0,0.1-1.7,0.3-3.8,0.4c-2.1,0.1-3.9,0.2-3.9,0.1c0-0.1,1.7-0.3,3.8-0.4
					C225.5,66.9,227.3,66.9,227.3,67z"/>
			</g>
		</g>
	</g>
	<g>
		<g>
			<path class="st35" d="M247.3,57.1c0,0,0.1,16.1,1,21l20.1-1c0,0-1.8-15.8-1.1-20H247.3z"/>
		</g>
		<g>
			<g>
				<path class="st3" d="M264.2,63.8c0,0.1-3,0.3-6.7,0.6c-3.7,0.2-6.8,0.3-6.8,0.2c0-0.1,3-0.3,6.7-0.6
					C261.2,63.8,264.2,63.7,264.2,63.8z"/>
			</g>
		</g>
		<g>
			<g>
				<path class="st3" d="M264.2,67.2c0,0.1-3,0.3-6.7,0.6c-3.7,0.2-6.8,0.3-6.8,0.2c0-0.1,3-0.3,6.7-0.6
					C261.2,67.2,264.2,67.1,264.2,67.2z"/>
			</g>
		</g>
		<g>
			<g>
				<path class="st3" d="M260.8,70.5c0,0.1-1.7,0.3-3.8,0.4c-2.1,0.1-3.9,0.2-3.9,0.1c0-0.1,1.7-0.3,3.8-0.4
					C259.1,70.5,260.8,70.5,260.8,70.5z"/>
			</g>
		</g>
	</g>
	<g>
		<g>
			<path class="st35" d="M269.7,57.4c0,0,0.1,16.1,1,21l20.1-1c0,0-1.8-15.8-1.1-20H269.7z"/>
		</g>
		<g>
			<g>
				<path class="st3" d="M286.7,64.2c0,0.1-3,0.3-6.7,0.6c-3.7,0.2-6.8,0.3-6.8,0.2c0-0.1,3-0.3,6.7-0.6
					C283.7,64.2,286.7,64.1,286.7,64.2z"/>
			</g>
		</g>
		<g>
			<g>
				<path class="st3" d="M286.7,67.6c0,0.1-3,0.3-6.7,0.6c-3.7,0.2-6.8,0.3-6.8,0.2c0-0.1,3-0.3,6.7-0.6
					C283.7,67.6,286.7,67.5,286.7,67.6z"/>
			</g>
		</g>
		<g>
			<g>
				<path class="st3" d="M283.3,70.9c0,0.1-1.7,0.3-3.8,0.4c-2.1,0.1-3.9,0.2-3.9,0.1c0-0.1,1.7-0.3,3.8-0.4
					C281.6,70.8,283.3,70.8,283.3,70.9z"/>
			</g>
		</g>
	</g>
	<g>
		<g>
			<path class="st35" d="M294.6,58.1c0,0,0.1,16.1,1,21l20.1-1c0,0-1.8-15.8-1.1-20H294.6z"/>
		</g>
		<g>
			<g>
				<path class="st3" d="M311.5,64.9c0,0.1-3,0.3-6.7,0.6c-3.7,0.2-6.8,0.3-6.8,0.2c0-0.1,3-0.3,6.7-0.6
					C308.5,64.9,311.5,64.8,311.5,64.9z"/>
			</g>
		</g>
		<g>
			<g>
				<path class="st3" d="M311.5,68.3c0,0.1-3,0.3-6.7,0.6c-3.7,0.2-6.8,0.3-6.8,0.2c0-0.1,3-0.3,6.7-0.6
					C308.5,68.3,311.5,68.2,311.5,68.3z"/>
			</g>
		</g>
		<g>
			<g>
				<path class="st3" d="M308.1,71.6c0,0.1-1.7,0.3-3.8,0.4c-2.1,0.1-3.9,0.2-3.9,0.1c0-0.1,1.7-0.3,3.8-0.4
					C306.4,71.6,308.1,71.5,308.1,71.6z"/>
			</g>
		</g>
	</g>
	<g>
		<g>
			<path class="st35" d="M324.1,57.3c0,0,0.1,16.1,1,21l20.1-1c0,0-1.8-15.8-1.1-20H324.1z"/>
		</g>
		<g>
			<g>
				<path class="st3" d="M341,64c0,0.1-3,0.3-6.7,0.6c-3.7,0.2-6.8,0.3-6.8,0.2c0-0.1,3-0.3,6.7-0.6C338,64.1,341,63.9,341,64z"/>
			</g>
		</g>
		<g>
			<g>
				<path class="st3" d="M341,67.4c0,0.1-3,0.3-6.7,0.6c-3.7,0.2-6.8,0.3-6.8,0.2c0-0.1,3-0.3,6.7-0.6C338,67.5,341,67.4,341,67.4z"
					/>
			</g>
		</g>
		<g>
			<g>
				<path class="st3" d="M337.6,70.8c0,0.1-1.7,0.3-3.8,0.4c-2.1,0.1-3.9,0.2-3.9,0.1c0-0.1,1.7-0.3,3.8-0.4
					C335.9,70.7,337.6,70.7,337.6,70.8z"/>
			</g>
		</g>
	</g>
	<g>
		<g>
			<path class="st35" d="M326.5,83.5c0,0,0.1,16.1,1,21l20.1-1c0,0-1.8-15.8-1.1-20H326.5z"/>
		</g>
		<g>
			<g>
				<path class="st3" d="M343.5,90.2c0,0.1-3,0.3-6.7,0.6C333,91,330,91.1,330,91c0-0.1,3-0.3,6.7-0.6
					C340.5,90.2,343.5,90.1,343.5,90.2z"/>
			</g>
		</g>
		<g>
			<g>
				<path class="st3" d="M343.5,93.6c0,0.1-3,0.3-6.7,0.6c-3.7,0.2-6.8,0.3-6.8,0.2c0-0.1,3-0.3,6.7-0.6
					C340.5,93.6,343.5,93.5,343.5,93.6z"/>
			</g>
		</g>
		<g>
			<g>
				<path class="st3" d="M340.1,97c0,0.1-1.7,0.3-3.8,0.4c-2.1,0.1-3.9,0.2-3.9,0.1c0-0.1,1.7-0.3,3.8-0.4
					C338.3,96.9,340.1,96.9,340.1,97z"/>
			</g>
		</g>
	</g>
	<g>
		<g>
			<path class="st102" d="M341.8,59.5c0,0,0.1,16.1,1,21l20.1-1c0,0-1.8-15.8-1.1-20H341.8z"/>
		</g>
		<g>
			<g>
				<path class="st3" d="M358.7,66.3c0,0.1-3,0.3-6.7,0.6c-3.7,0.2-6.8,0.3-6.8,0.2c0-0.1,3-0.3,6.7-0.6
					C355.7,66.3,358.7,66.2,358.7,66.3z"/>
			</g>
		</g>
		<g>
			<g>
				<path class="st3" d="M358.7,69.7c0,0.1-3,0.3-6.7,0.6c-3.7,0.2-6.8,0.3-6.8,0.2c0-0.1,3-0.3,6.7-0.6
					C355.7,69.7,358.7,69.6,358.7,69.7z"/>
			</g>
		</g>
		<g>
			<g>
				<path class="st3" d="M355.3,73c0,0.1-1.7,0.3-3.8,0.4c-2.1,0.1-3.9,0.2-3.9,0.1c0-0.1,1.7-0.3,3.8-0.4
					C353.6,73,355.3,72.9,355.3,73z"/>
			</g>
		</g>
	</g>
	<g>
		<g>
			<path class="st101" d="M252.7,70.2c0,0,0.1,16.1,1,21l20.1-1c0,0-1.8-15.8-1.1-20H252.7z"/>
		</g>
		<g>
			<g>
				<path class="st3" d="M269.7,76.9c0,0.1-3,0.3-6.7,0.6c-3.7,0.2-6.8,0.3-6.8,0.2c0-0.1,3-0.3,6.7-0.6
					C266.6,76.9,269.7,76.8,269.7,76.9z"/>
			</g>
		</g>
		<g>
			<g>
				<path class="st3" d="M269.7,80.3c0,0.1-3,0.3-6.7,0.6c-3.7,0.2-6.8,0.3-6.8,0.2c0-0.1,3-0.3,6.7-0.6
					C266.7,80.3,269.7,80.2,269.7,80.3z"/>
			</g>
		</g>
		<g>
			<g>
				<path class="st3" d="M266.3,83.7c0,0.1-1.7,0.3-3.8,0.4c-2.1,0.1-3.9,0.2-3.9,0.1c0-0.1,1.7-0.3,3.8-0.4
					C264.5,83.6,266.3,83.6,266.3,83.7z"/>
			</g>
		</g>
	</g>
	<g>
		<g>
			<path class="st35" d="M250.2,105.8c0,0,0.1,16.1,1,21l20.1-1c0,0-1.8-15.8-1.1-20H250.2z"/>
		</g>
		<g>
			<g>
				<path class="st3" d="M267.2,112.6c0,0.1-3,0.3-6.7,0.6c-3.7,0.2-6.8,0.3-6.8,0.2c0-0.1,3-0.3,6.7-0.6
					C264.1,112.6,267.1,112.5,267.2,112.6z"/>
			</g>
		</g>
		<g>
			<g>
				<path class="st3" d="M267.2,116c0,0.1-3,0.3-6.7,0.6c-3.7,0.2-6.8,0.3-6.8,0.2c0-0.1,3-0.3,6.7-0.6
					C264.1,116,267.2,115.9,267.2,116z"/>
			</g>
		</g>
		<g>
			<g>
				<path class="st3" d="M263.7,119.3c0,0.1-1.7,0.3-3.8,0.4c-2.1,0.1-3.9,0.2-3.9,0.1c0-0.1,1.7-0.3,3.8-0.4
					C262,119.2,263.7,119.2,263.7,119.3z"/>
			</g>
		</g>
	</g>
	<g>
		<g>
			<path class="st4" d="M187.1,70.9c0,0,1.6,14.9-0.5,23l-19.9-0.9c0,0,4.3-14.7,1.6-21.2L187.1,70.9z"/>
		</g>
		<g>
			<g>
				<path class="st29" d="M166.6,68.4c0,0-1.3,16.9-2.3,20.3l18.1,1.9l2.7-2.6c0,0,1.9-14.9,1.7-19.1L166.6,68.4z"/>
			</g>
			<g>
				<polygon class="st7" points="182.8,87.9 182.4,90.6 185.1,88 				"/>
			</g>
			<g>
				<g>
					<path class="st3" d="M183,76.9c0,0-0.8-0.1-2-0.2c-1.3-0.2-3-0.4-4.9-0.7c-1.9-0.2-3.5-0.4-4.9-0.6c-1.3-0.2-2-0.3-2-0.3
						c0,0,0.8,0,2,0.1c1.3,0.1,3,0.3,4.9,0.5c1.9,0.3,3.6,0.5,4.9,0.8C182.2,76.7,183,76.9,183,76.9z"/>
				</g>
			</g>
			<g>
				<g>
					<path class="st3" d="M182.2,80.6c0,0-0.8,0-2-0.1c-1.2-0.1-2.9-0.3-4.7-0.5c-1.8-0.2-3.5-0.5-4.7-0.7c-1.2-0.2-1.9-0.4-1.9-0.4
						c0,0,0.8,0,1.9,0.2c1.3,0.2,2.9,0.4,4.7,0.6c1.8,0.2,3.4,0.4,4.7,0.6C181.5,80.5,182.2,80.6,182.2,80.6z"/>
				</g>
			</g>
			<g>
				<g>
					<path class="st3" d="M181.1,84.1c0,0.1-2.7-0.2-6.1-0.7c-3.3-0.4-6.1-0.9-6-1c0-0.1,2.7,0.2,6.1,0.7
						C178.4,83.5,181.1,84,181.1,84.1z"/>
				</g>
			</g>
		</g>
	</g>
	<g>
		<g>
			<g>
				<path class="st29" d="M123.6,88.7c0,0-1.3,16.9-2.3,20.3l18.1,1.9l2.7-2.6c0,0,1.9-14.9,1.7-19.1L123.6,88.7z"/>
			</g>
			<g>
				<polygon class="st7" points="139.7,108.2 139.3,110.9 142.1,108.3 				"/>
			</g>
			<g>
				<g>
					<path class="st3" d="M140,97.3c0,0-0.8-0.1-2-0.2c-1.3-0.2-3-0.4-4.9-0.7c-1.9-0.2-3.5-0.4-4.9-0.6c-1.3-0.2-2-0.3-2-0.3
						c0,0,0.8,0,2,0.1c1.3,0.1,3,0.3,4.9,0.5c1.9,0.3,3.6,0.5,4.9,0.8C139.2,97,140,97.2,140,97.3z"/>
				</g>
			</g>
			<g>
				<g>
					<path class="st3" d="M139.2,101c0,0-0.8,0-2-0.1c-1.2-0.1-2.9-0.3-4.7-0.5c-1.8-0.2-3.5-0.5-4.7-0.7c-1.2-0.2-1.9-0.4-1.9-0.4
						c0,0,0.8,0,1.9,0.2c1.3,0.2,2.9,0.4,4.7,0.6c1.8,0.2,3.4,0.4,4.7,0.6C138.4,100.8,139.2,100.9,139.2,101z"/>
				</g>
			</g>
			<g>
				<g>
					<path class="st3" d="M138,104.4c0,0.1-2.7-0.2-6.1-0.7c-3.3-0.4-6.1-0.9-6-1c0-0.1,2.7,0.2,6.1,0.7
						C135.3,103.9,138,104.3,138,104.4z"/>
				</g>
			</g>
		</g>
	</g>
	<g>
		<rect x="89.4" y="56.8" class="st35" width="15.1" height="3.5"/>
	</g>
	<g>
		<rect x="89.4" y="139.3" class="st7" width="15.1" height="3.5"/>
	</g>
	<g>
		<rect x="89.4" y="167.3" class="st7" width="15.1" height="3.5"/>
	</g>
	<g>
		<rect x="147.1" y="36.4" class="st1" width="52.2" height="3.5"/>
	</g>
	<g>
		<rect x="251.1" y="36.4" class="st1" width="52.2" height="3.5"/>
	</g>
	<g>
		<rect x="328.6" y="36.4" class="st1" width="24.9" height="3.5"/>
	</g>
	<g>
		<g>
			<path class="st7" d="M360.2,51.2c0,0.1-61.2,0.2-136.7,0.2c-75.5,0-136.7-0.1-136.7-0.2c0-0.1,61.2-0.2,136.7-0.2
				C299,51,360.2,51.1,360.2,51.2z"/>
		</g>
	</g>
	<g>
		<g>
			<path class="st7" d="M360.2,133.4c0,0.1-61.2,0.2-136.7,0.2c-75.5,0-136.7-0.1-136.7-0.2s61.2-0.2,136.7-0.2
				C299,133.2,360.2,133.3,360.2,133.4z"/>
		</g>
	</g>
	<g>
		<g>
			<path class="st7" d="M360.2,189.8c0,0.1-61.2,0.2-136.7,0.2c-75.5,0-136.7-0.1-136.7-0.2c0-0.1,61.2-0.2,136.7-0.2
				C299,189.6,360.2,189.7,360.2,189.8z"/>
		</g>
	</g>
	<g>
		<g>
			<path class="st7" d="M360.2,162.3c0,0.1-61.2,0.2-136.7,0.2c-75.5,0-136.7-0.1-136.7-0.2c0-0.1,61.2-0.2,136.7-0.2
				C299,162.1,360.2,162.2,360.2,162.3z"/>
		</g>
	</g>
	<g>
		<g>
			<path class="st7" d="M110,190.5c-0.1,0-0.2-34.9-0.2-78c0-43.1,0.1-78,0.2-78c0.1,0,0.2,34.9,0.2,78
				C110.2,155.6,110.1,190.5,110,190.5z"/>
		</g>
	</g>
	<g>
		<g>
			<path class="st7" d="M236.3,191.3c-0.1,0-0.2-34.9-0.2-77.9c0-43,0.1-77.9,0.2-77.9c0.1,0,0.2,34.9,0.2,77.9
				C236.5,156.5,236.4,191.3,236.3,191.3z"/>
		</g>
	</g>
	<g>
		<g>
			<path class="st7" d="M318.1,192.1c-0.1,0-0.2-34.9-0.2-77.9c0-43,0.1-77.9,0.2-77.9s0.2,34.9,0.2,77.9
				C318.3,157.3,318.2,192.1,318.1,192.1z"/>
		</g>
	</g>
	<g>
		<g>
			<path class="st7" d="M267.9,102.4c0,0,0.1,0,0.2,0.1c0.2,0.1,0.4,0.2,0.7,0.3c0.6,0.3,1.5,0.7,2.5,1.6c1,0.8,2.2,1.9,3.2,3.4
				c0.5,0.8,1,1.6,1.4,2.6c0.4,1,0.7,2,0.9,3.2c0.4,2.3,0.3,4.9-0.7,7.5c-0.9,2.6-2.6,5.1-4.9,7c-2.4,2-5.5,3.3-8.8,3.5
				c-3.3,0.3-6.9-0.4-9.9-2.1c-3.1-1.8-5.5-4.5-6.9-7.5c-1.4-3-1.8-6.4-1.1-9.4c0.7-3,2.2-5.6,4.2-7.5c1-0.9,2.1-1.7,3.2-2.3
				c1.1-0.6,2.3-1,3.4-1.2c2.3-0.5,4.4-0.5,6.2-0.4c1.8,0.1,3.4,0.4,4.6,0.6c1.3,0.2,2.2,0.5,2.9,0.6c0.3,0.1,0.6,0.1,0.7,0.2
				c0.2,0,0.3,0.1,0.3,0.1c0,0-0.1,0-0.3,0c-0.2,0-0.4-0.1-0.8-0.2c-0.7-0.1-1.6-0.3-2.9-0.6c-1.3-0.2-2.8-0.5-4.6-0.6
				c-1.8-0.1-3.9-0.1-6.1,0.4c-1.1,0.2-2.3,0.6-3.4,1.2c-1.1,0.6-2.2,1.3-3.1,2.2c-1.9,1.9-3.4,4.4-4,7.4c-0.6,2.9-0.3,6.2,1.1,9.2
				c1.4,3,3.7,5.6,6.8,7.3c3,1.7,6.5,2.4,9.8,2.1c3.3-0.3,6.3-1.5,8.6-3.4c2.3-1.9,4-4.4,4.9-6.9c0.9-2.5,1.1-5.1,0.7-7.3
				c-0.2-1.1-0.5-2.2-0.9-3.1c-0.4-0.9-0.9-1.8-1.4-2.6c-1-1.5-2.1-2.6-3.1-3.4c-1-0.8-1.9-1.3-2.5-1.6c-0.3-0.1-0.5-0.2-0.7-0.3
				C267.9,102.4,267.9,102.4,267.9,102.4z"/>
		</g>
	</g>
	<g>
		<g>
			<path class="st7" d="M274.4,104.3c-0.1-0.1,2.4-2.1,5.5-4.6c3.1-2.5,5.7-4.4,5.7-4.4c0.1,0.1-2.4,2.1-5.5,4.6
				C277,102.4,274.4,104.4,274.4,104.3z"/>
		</g>
	</g>
	<g>
		<g>
			<path class="st7" d="M284.2,104.7c0,0-0.3,0.1-0.8,0.1c-0.6,0.1-1.3,0.1-2.2,0.2c-1.8,0.1-4.4,0.3-7.2,0.5l-0.2,0l0.1-0.2
				c0-0.1,0.1-0.2,0.1-0.3c0.9-2.8,2.1-5.2,3.1-6.8c0.5-0.8,1-1.4,1.3-1.9c0.3-0.4,0.5-0.6,0.5-0.6c0,0-0.1,0.3-0.4,0.7
				c-0.3,0.4-0.7,1.1-1.2,1.9c-1,1.6-2.2,4-3,6.7c0,0.1-0.1,0.2-0.1,0.3l-0.2-0.2c2.8-0.2,5.4-0.3,7.2-0.4c0.9,0,1.6-0.1,2.2-0.1
				C283.9,104.7,284.2,104.7,284.2,104.7z"/>
		</g>
	</g>
	<g>
		<g>
			<path class="st7" d="M353.8,143.3c0,0,0.2-0.5,0.5-1.3c0.3-0.8,0.8-2.1,1.2-3.7c0.8-3.1,1-7.8-0.5-12.5c-1.5-4.7-4.5-8.3-7-10.4
				c-1.2-1.1-2.3-1.8-3.1-2.3c-0.8-0.5-1.2-0.7-1.2-0.7c0,0,0.1,0,0.3,0.1c0.2,0.1,0.5,0.3,0.9,0.5c0.8,0.4,1.9,1.2,3.2,2.2
				c1.3,1,2.6,2.5,3.9,4.2c1.3,1.8,2.4,3.9,3.2,6.3c0.8,2.4,1.1,4.8,1.1,7c0,2.2-0.3,4.1-0.7,5.7c-0.4,1.6-0.9,2.8-1.3,3.7
				c-0.2,0.4-0.4,0.7-0.5,0.9C353.9,143.2,353.8,143.3,353.8,143.3z"/>
		</g>
	</g>
	<g>
		<g>
			<path class="st7" d="M359.6,139.8c0,0-0.6,0.6-1.6,1.4c-0.5,0.4-1.2,0.9-1.8,1.5c-0.3,0.3-0.7,0.6-1.1,0.9
				c-0.4,0.3-0.8,0.7-1.4,0.7c-0.3,0-0.6-0.2-0.7-0.5c-0.1-0.2-0.2-0.5-0.3-0.7c-0.1-0.5-0.2-0.9-0.3-1.3c-0.2-0.8-0.4-1.6-0.6-2.3
				c-0.3-1.3-0.5-2.1-0.4-2.1c0,0,0.3,0.8,0.7,2.1c0.2,0.7,0.4,1.4,0.6,2.3c0.1,0.4,0.2,0.9,0.4,1.3c0.1,0.5,0.3,1,0.7,1
				c0.4,0,0.8-0.3,1.2-0.6c0.4-0.3,0.7-0.6,1.1-0.8c0.7-0.5,1.3-1,1.9-1.4C358.9,140.3,359.5,139.8,359.6,139.8z"/>
		</g>
	</g>
	<g>
		<g>
			<g>
				<path class="st7" d="M201.7,102.2c0,0.1-6.2,1.7-13.8,3.7c-7.6,1.9-13.8,3.4-13.9,3.4c0-0.1,6.2-1.7,13.8-3.7
					C195.5,103.6,201.7,102.1,201.7,102.2z"/>
			</g>
		</g>
		<g>
			<g>
				<path class="st7" d="M205.7,105.5c0,0.1-6.8,2.1-15.2,4.4c-8.4,2.3-15.2,4.2-15.2,4.1c0-0.1,6.8-2.1,15.2-4.4
					C198.9,107.2,205.7,105.4,205.7,105.5z"/>
			</g>
		</g>
		<g>
			<g>
				<path class="st7" d="M208.2,110.9c0,0.1-6.5,1.7-14.5,3.6c-8,1.9-14.6,3.4-14.6,3.3c0-0.1,6.5-1.7,14.5-3.6
					C201.6,112.3,208.1,110.8,208.2,110.9z"/>
			</g>
		</g>
	</g>
	<g>
		<g>
			<g>
				<polygon class="st4" points="173.9,167.6 178.8,193.6 228,184.3 219.4,159 				"/>
			</g>
			<g>
				<g>
					<g>
						<g>
							
								<rect x="174.6" y="163.2" transform="matrix(0.9825 -0.186 0.186 0.9825 -29.0746 39.9375)" class="st3" width="47.4" height="23.5"/>
						</g>
						<g>
							<g>
								<path class="st7" d="M223.8,182c0,0,0-0.1-0.1-0.4c-0.1-0.3-0.1-0.7-0.2-1.2c-0.2-1.1-0.5-2.6-0.9-4.6
									c-0.8-4-1.9-9.7-3.2-16.8l0.1,0.1c-12.2,2.3-28.6,5.4-46.6,8.9l0,0l0.1-0.2c1.5,8.1,3,15.9,4.4,23.1l-0.2-0.1
									c13.6-2.5,25.2-4.7,33.5-6.3c4.1-0.8,7.4-1.4,9.7-1.8c1.1-0.2,2-0.4,2.6-0.5c0.3-0.1,0.5-0.1,0.7-0.1
									C223.7,182,223.8,182,223.8,182s-0.1,0-0.2,0c-0.2,0-0.4,0.1-0.7,0.1c-0.6,0.1-1.4,0.3-2.5,0.5c-2.2,0.4-5.5,1.1-9.6,1.9
									c-8.3,1.6-19.9,3.8-33.5,6.4l-0.1,0l0-0.1c-1.4-7.1-2.8-14.9-4.4-23l0-0.2l0.2,0l0,0c18-3.4,34.4-6.5,46.6-8.8l0.1,0l0,0.1
									c1.3,7.1,2.4,12.9,3.1,16.9c0.4,2,0.6,3.5,0.8,4.6c0.1,0.5,0.2,0.9,0.2,1.2C223.8,181.9,223.8,182,223.8,182z"/>
							</g>
						</g>
					</g>
					<g>
						<g>
							<g>
								
									<rect x="179.5" y="170.7" transform="matrix(0.9825 -0.186 0.186 0.9825 -29.718 37.7057)" class="st3" width="13.1" height="13.1"/>
							</g>
							<g>
								<g>
									<path class="st7" d="M193.7,182.4c0,0,0-0.1-0.1-0.2c0-0.2-0.1-0.4-0.1-0.7c-0.1-0.6-0.3-1.5-0.5-2.6
										c-0.4-2.3-1.1-5.5-1.8-9.3l0.2,0.1c-3.7,0.7-8.2,1.6-12.9,2.5c0,0,0.2-0.4,0.1-0.2l0,0l0,0l0,0l0,0l0,0.1l0,0.1l0,0.2
										l0.1,0.4c0.1,0.3,0.1,0.6,0.2,0.9c0.1,0.6,0.2,1.2,0.3,1.7c0.2,1.1,0.4,2.2,0.6,3.3c0.4,2.2,0.8,4.2,1.1,6.1l-0.2-0.1
										c3.8-0.7,7-1.3,9.3-1.7c1.1-0.2,2-0.4,2.6-0.5c0.3,0,0.5-0.1,0.7-0.1C193.7,182.5,193.7,182.4,193.7,182.4
										c0,0-0.1,0-0.2,0.1c-0.2,0-0.4,0.1-0.7,0.1c-0.6,0.1-1.5,0.3-2.6,0.5c-2.3,0.5-5.5,1.1-9.4,1.8l-0.1,0l0-0.1
										c-0.4-1.9-0.8-3.9-1.2-6.1c-0.2-1.1-0.4-2.2-0.6-3.3c-0.1-0.6-0.2-1.1-0.3-1.7c-0.1-0.3-0.1-0.6-0.2-0.9l-0.1-0.4l0-0.2
										l0-0.1l0-0.1l0,0l0,0l0,0l0,0c-0.1,0.2,0.2-0.2,0.1-0.2c4.7-0.9,9.1-1.7,12.9-2.4l0.1,0l0,0.1c0.7,3.9,1.3,7.1,1.7,9.4
										c0.2,1.1,0.3,2,0.5,2.6c0,0.3,0.1,0.5,0.1,0.7C193.7,182.4,193.8,182.5,193.7,182.4z"/>
								</g>
							</g>
						</g>
						<g>
							<g>
								<path class="st7" d="M193.7,182.4c0,0-0.1-0.3-0.3-0.9c-0.2-0.6-0.5-1.5-1.4-2.2l0,0c-0.4-0.4-1-0.7-1.6-1
									c-0.6-0.2-1.4-0.3-2.2-0.2l-0.3,0l0.2-0.2c0.5-0.8,0.6-2.1,0.1-3.1c-0.2-0.5-0.6-1-1.1-1.3c-0.5-0.3-1.1-0.4-1.7-0.4
									c-0.7,0-1.4,0.3-1.9,0.7c-0.5,0.4-0.9,1-1,1.6c-0.3,1.2,0.2,2.5,1.1,3.2l0.2,0.1l-0.2,0.1c-0.9,0.5-1.5,1.3-1.9,2
									c-0.4,0.7-0.6,1.4-0.7,2c-0.2,1.2,0,1.9,0,1.9c0,0-0.1-0.2-0.1-0.5c0-0.3-0.1-0.8,0-1.4c0.1-0.6,0.3-1.4,0.7-2.1
									c0.4-0.8,1.1-1.5,2-2.1l0,0.2c-0.9-0.7-1.5-2.1-1.2-3.5c0.1-0.7,0.5-1.4,1.1-1.8c0.6-0.5,1.3-0.7,2.1-0.8
									c0.7,0,1.4,0.1,1.9,0.5c0.6,0.3,1,0.9,1.3,1.4c0.5,1.1,0.4,2.4-0.2,3.4l-0.1-0.2c0.8-0.1,1.6,0,2.3,0.3
									c0.7,0.3,1.2,0.6,1.7,1.1l0,0c0.9,0.8,1.2,1.7,1.4,2.3c0.1,0.3,0.1,0.5,0.1,0.7C193.7,182.4,193.8,182.4,193.7,182.4z"/>
							</g>
						</g>
					</g>
					<g>
						<g>
							<g>
								<path class="st3" d="M196.2,169.1c3.7-0.7,7.4-1.4,11.2-2.1"/>
							</g>
							<g>
								<g>
									<path class="st7" d="M207.4,167c0,0.1-2.5,0.6-5.6,1.2c-3.1,0.6-5.6,1-5.6,0.9c0-0.1,2.5-0.6,5.6-1.2
										C204.9,167.3,207.4,166.9,207.4,167z"/>
								</g>
							</g>
						</g>
						<g>
							<g>
								<path class="st3" d="M196.7,171.7c0.8-0.1,1.5-0.3,2.3-0.4"/>
							</g>
							<g>
								<g>
									<path class="st7" d="M199,171.3c0,0.1-0.5,0.3-1.1,0.4c-0.6,0.1-1.1,0.1-1.2,0.1c0-0.1,0.5-0.3,1.1-0.4
										C198.4,171.2,199,171.2,199,171.3z"/>
								</g>
							</g>
						</g>
						<g>
							<g>
								<path class="st7" d="M217.5,172.4c0,0.1-4.4,1-10,2c-5.5,1-10,1.8-10,1.7c0-0.1,4.4-1,10-2
									C213,173.1,217.5,172.4,217.5,172.4z"/>
							</g>
						</g>
						<g>
							<g>
								<path class="st7" d="M218.1,174.7c0,0.1-4.5,1-10,2.1c-5.5,1-10.1,1.8-10.1,1.7c0-0.1,4.5-1,10-2.1
									C213.5,175.4,218.1,174.6,218.1,174.7z"/>
							</g>
						</g>
						<g>
							<g>
								<path class="st7" d="M218.2,177.3c0,0-0.3,0.1-0.8,0.2c-0.6,0.1-1.3,0.3-2.1,0.5c-1.8,0.4-4.2,0.9-7,1.4
									c-2.7,0.5-5.2,1-7,1.3c-0.8,0.1-1.6,0.3-2.1,0.4c-0.5,0.1-0.8,0.1-0.8,0.1c0,0,0.3-0.1,0.8-0.2c0.6-0.1,1.3-0.3,2.1-0.5
									c1.8-0.4,4.2-0.9,7-1.4c2.7-0.5,5.2-1,7-1.3c0.8-0.1,1.6-0.3,2.1-0.4C217.9,177.3,218.2,177.3,218.2,177.3z"/>
							</g>
						</g>
					</g>
				</g>
				<g>
					<g>
						<path class="st35" d="M197.9,166.6c0,0,0,0,0.1-0.1c0.1-0.1,0.2-0.1,0.4-0.2c0.3-0.2,0.8-0.4,1.5-0.6c1.3-0.4,3.4-0.9,5.9-0.6
							c1.3,0.2,2.6,0.5,4,1.1c0.7,0.3,1.3,0.8,1.8,1.4c0.5,0.6,0.8,1.5,0.6,2.4c-0.2,0.9-0.8,1.6-1.5,2.1c-0.7,0.6-1.5,1-2.3,1.4
							c-1.6,0.8-3.4,1.5-5.3,1.8c-1.9,0.4-3.8,0.4-5.6-0.1c-0.9-0.2-1.7-0.5-2.5-1c-0.7-0.5-1.4-1.1-1.7-2c-0.3-0.8-0.1-1.8,0.3-2.5
							c0.4-0.7,1-1.3,1.6-1.7c1.2-0.9,2.5-1.5,3.6-2c2.4-0.9,4.5-1.1,5.9-1c0.7,0,1.2,0.1,1.6,0.1c0.2,0,0.3,0,0.4,0.1
							c0.1,0,0.1,0,0.1,0c0,0,0,0-0.1,0c-0.1,0-0.3,0-0.4,0c-0.4,0-0.9-0.1-1.6-0.1c-1.4,0-3.4,0.2-5.8,1.1c-1.2,0.5-2.4,1.1-3.5,2
							c-0.6,0.4-1.1,1-1.5,1.6c-0.4,0.6-0.5,1.5-0.2,2.2c0.3,0.7,0.9,1.4,1.6,1.8c0.7,0.5,1.5,0.8,2.4,1c1.7,0.4,3.6,0.4,5.5,0.1
							c1.9-0.3,3.6-1,5.2-1.8c0.8-0.4,1.6-0.8,2.3-1.3c0.7-0.5,1.2-1.2,1.4-1.9c0.2-0.8,0-1.6-0.5-2.2c-0.5-0.6-1.1-1-1.7-1.4
							c-1.3-0.6-2.6-1-3.9-1.2c-2.5-0.3-4.5,0.1-5.8,0.4c-0.7,0.2-1.2,0.4-1.5,0.5c-0.2,0.1-0.3,0.1-0.4,0.2
							C198,166.6,197.9,166.6,197.9,166.6z"/>
					</g>
				</g>
				<g>
					<g>
						<path class="st35" d="M211.3,166.2c-0.1-0.1,1.4-1.4,3.3-2.9c1.9-1.5,3.5-2.7,3.5-2.6c0.1,0.1-1.4,1.4-3.3,2.9
							C212.9,165.1,211.3,166.3,211.3,166.2z"/>
					</g>
				</g>
				<g>
					<g>
						<path class="st35" d="M215.5,165.7c0,0.1-1.7,0.5-3.9,1c-0.2,0-0.3,0.1-0.5,0.1l-0.2,0.1l0.1-0.2c0.5-2,1.3-3.3,1.4-3.2
							c0.1,0-0.6,1.4-1.1,3.3l-0.2-0.2c0.1,0,0.3-0.1,0.5-0.1C213.7,165.9,215.4,165.6,215.5,165.7z"/>
					</g>
				</g>
				<g>
					<g>
						<path class="st35" d="M208.5,168.5c0,0.1-2.7,0.6-6.1,1.1c-3.4,0.5-6.2,0.9-6.2,0.8c0-0.1,2.7-0.6,6.1-1.1
							C205.7,168.8,208.5,168.4,208.5,168.5z"/>
					</g>
				</g>
			</g>
		</g>
		<g>
			<path class="st35" d="M194.5,163.5c0.3,1.6-0.7,3-2.3,3.3c-1.6,0.3-3-0.7-3.3-2.3c-0.3-1.6,0.7-3,2.3-3.3
				C192.8,161,194.3,162,194.5,163.5z"/>
			<path class="st7" d="M191.7,167c-0.6,0-1.1-0.2-1.6-0.5c-0.6-0.4-1.1-1.1-1.2-1.8c-0.1-0.8,0-1.5,0.4-2.2
				c0.4-0.6,1.1-1.1,1.8-1.2c0.2,0,0.4-0.1,0.5-0.1c1.4,0,2.6,1,2.8,2.3l0,0c0.3,1.6-0.7,3.1-2.3,3.4
				C192.1,166.9,191.9,167,191.7,167z M191.7,161.2c-0.2,0-0.4,0-0.5,0c-0.7,0.1-1.4,0.6-1.8,1.2c-0.4,0.6-0.6,1.4-0.4,2.1
				c0.1,0.7,0.6,1.4,1.2,1.8c0.6,0.4,1.4,0.6,2.1,0.4c1.5-0.3,2.6-1.8,2.3-3.3l0,0C194.3,162.2,193.1,161.2,191.7,161.2z"/>
		</g>
	</g>
</g>
<g>
	<g>
		<g>
			<g>
				<path class="st102" d="M80.9,286.9l1.2-56.6l-44-3.7c0,0-2.3,22.6-2.3,25.7c0,1.4,6.6,15.5,6.6,15.5l-0.1,19H80.9z"/>
			</g>
			<g>
				<g>
					<path class="st29" d="M66,237.1c0,0-0.1,0.3-0.4,0.8c-0.3,0.5-0.6,1.3-1.2,2.1c-1.1,1.8-2.7,4.2-5.1,6.2
						c-2.4,2.1-5.2,3.1-7.3,3.3c-1,0.1-1.9,0.1-2.5,0c-0.3,0-0.5-0.1-0.7-0.1c-0.1,0-0.2-0.1-0.2-0.1c0-0.1,1.3,0.2,3.3-0.1
						c2-0.3,4.7-1.4,7.1-3.4c2.4-2,4-4.4,5.1-6.1c0.5-0.9,1-1.6,1.3-2.1C65.8,237.3,65.9,237.1,66,237.1z"/>
				</g>
			</g>
		</g>
		<g>
			<g>
				<g>
					<g>
						<g>
							<g>
								<g>
									<g>
										<g>
											<g>
												<path class="st103" d="M49.6,143.6l19.8,5.2l0.7-17.3c0,0,8.4-0.9,8.8-9.3c0.5-8.3-0.2-27.5-0.2-27.5l0,0
													c-9.5-4.6-20.6-3.6-29.2,2.4l-1.3,0.9L49.6,143.6z"/>
											</g>
										</g>
									</g>
								</g>
								<g>
									<g>
										<g>
											<g>
												<path class="st104" d="M70.1,131.4c0,0-5.3,0.2-10.7-3.5c0,0,2.3,6.1,10.6,5.7L70.1,131.4z"/>
											</g>
										</g>
									</g>
								</g>
							</g>
						</g>
					</g>
					<g>
						<g>
							<g>
								<g>
									<g>
										<path class="st103" d="M48.9,106.7c-0.1-0.1-5.6-1.9-5.7,3.8c-0.1,5.7,5.7,4.6,5.7,4.4C48.9,114.8,48.9,106.7,48.9,106.7z
											"/>
									</g>
								</g>
							</g>
						</g>
						<g>
							<g>
								<g>
									<g>
										<g>
											<path class="st104" d="M47.2,112.7c0,0-0.1,0.1-0.3,0.1c-0.2,0.1-0.4,0.1-0.7,0c-0.6-0.2-1.1-1.2-1.1-2.2
												c0-0.5,0.1-1,0.3-1.4c0.2-0.4,0.5-0.7,0.8-0.8c0.3-0.1,0.5,0.1,0.6,0.3c0.1,0.2,0,0.3,0.1,0.3c0,0,0.1-0.1,0.1-0.3
												c0-0.1-0.1-0.2-0.2-0.4c-0.1-0.1-0.3-0.2-0.5-0.2c-0.4,0-0.8,0.4-1,0.9c-0.2,0.4-0.4,1-0.4,1.6c0,1.1,0.6,2.2,1.4,2.5
												c0.4,0.1,0.7,0,0.9-0.1C47.2,112.9,47.2,112.7,47.2,112.7z"/>
										</g>
									</g>
								</g>
							</g>
						</g>
					</g>
					<g>
						<g>
							<g>
								<g>
									<g>
										<g>
											<g>
												<g>
													<g>
														<g>
															<path d="M76.4,107.6c0,0.6-0.5,1.1-1.2,1.2c-0.7,0-1.2-0.5-1.2-1.1c0-0.6,0.5-1.1,1.2-1.2
																C75.9,106.4,76.4,107,76.4,107.6z"/>
														</g>
													</g>
												</g>
											</g>
											<g>
												<g>
													<g>
														<g>
															<g>
																<path d="M76.7,106.4c-0.2,0.1-1-0.6-2.3-0.6c-1.3-0.1-2.2,0.5-2.4,0.4c-0.1-0.1,0.1-0.3,0.5-0.6
																	c0.4-0.3,1.1-0.5,1.9-0.5c0.8,0,1.5,0.4,1.8,0.7C76.7,106,76.8,106.3,76.7,106.4z"/>
															</g>
														</g>
													</g>
												</g>
											</g>
										</g>
										<g>
											<g>
												<g>
													<g>
														<g>
															<path d="M63.9,107.5c0,0.6-0.5,1.1-1.2,1.2c-0.7,0-1.2-0.5-1.2-1.1c0-0.6,0.5-1.1,1.2-1.2
																C63.3,106.4,63.9,106.9,63.9,107.5z"/>
														</g>
													</g>
												</g>
											</g>
											<g>
												<g>
													<g>
														<g>
															<g>
																<path d="M64.1,106.1c-0.2,0.1-1-0.6-2.3-0.6c-1.3-0.1-2.2,0.5-2.4,0.4c-0.1-0.1,0.1-0.3,0.5-0.6
																	c0.4-0.3,1.1-0.5,1.9-0.5c0.8,0,1.5,0.4,1.8,0.7C64.1,105.7,64.2,106,64.1,106.1z"/>
															</g>
														</g>
													</g>
												</g>
											</g>
										</g>
										<g>
											<g>
												<g>
													<g>
														<g>
															<path class="st7" d="M68.4,115.8c0-0.1,0.8-0.2,2.1-0.3c0.3,0,0.6-0.1,0.7-0.3c0.1-0.2,0-0.6-0.2-1
																c-0.3-0.8-0.6-1.6-0.9-2.5c-1.2-3.6-2-6.6-1.9-6.6c0.1,0,1.2,2.8,2.4,6.4c0.3,0.9,0.6,1.7,0.8,2.5
																c0.1,0.4,0.3,0.8,0.1,1.3c-0.1,0.2-0.3,0.4-0.6,0.5c-0.2,0.1-0.4,0.1-0.6,0.1C69.2,115.9,68.4,115.9,68.4,115.8z"/>
														</g>
													</g>
												</g>
											</g>
										</g>
									</g>
								</g>
							</g>
							<g>
								<g>
									<g>
										<g>
											<path d="M64.7,101.1c-0.1,0.3-1.4,0.1-2.9,0.2c-1.5,0.1-2.7,0.5-2.9,0.2c-0.1-0.2,0.1-0.5,0.6-0.8
												c0.5-0.3,1.3-0.6,2.2-0.7c0.9-0.1,1.7,0.1,2.3,0.4C64.5,100.7,64.7,100.9,64.7,101.1z"/>
										</g>
									</g>
								</g>
							</g>
							<g>
								<g>
									<g>
										<g>
											<path d="M76.4,102.7c-0.2,0.3-1.1-0.1-2.2-0.1c-1.1-0.1-2,0.1-2.2-0.2c-0.1-0.2,0.1-0.4,0.5-0.7c0.4-0.3,1.1-0.5,1.8-0.4
												c0.7,0.1,1.3,0.3,1.7,0.7C76.4,102.2,76.5,102.5,76.4,102.7z"/>
										</g>
									</g>
								</g>
							</g>
						</g>
					</g>
				</g>
				<g>
					<g>
						<path d="M83.1,89.7c0.1-1-0.2-2.2-1-2.8c-0.8-0.6-2.1-0.7-2.8,0.1c0.5-1.4-0.6-3-2.1-3.2c-1.4-0.1-2.6,0.8-3.9,1.1
							c-1.3,0.3-2.7-0.1-3.9-0.6c-1.2-0.5-2.3-1.3-3.6-1.8c-2.6-1.1-5.5-1.1-8.1,0c-2.6,1-4.7,3.1-5.8,5.7c-1.8-0.6-3.9,0.2-5.1,1.7
							c-1.2,1.5-1.6,3.5-1.4,5.4c0.1,1.3,0.4,2.5,0.8,3.8c0,0.1,0,0.2,0,0.3c-0.1,4.6,0.2,10,2.1,10.1c3.4,0.2,2.9-6.2,2.9-6.2
							c4.2-1.4,3-7.8,4-8.7c1.1-0.9,3.4-3,11.9,1.8c3.3,1.9,7.8,2,10.3,1.6c0.1,0,0.1,0,0.2,0c0,0,0,0,0.1,0c0,0,0,0,0.1,0
							c0.8-0.2,1.6-0.4,2.3-0.9c0.8-0.5,1.6-1.1,1.9-2c0.4-0.9,0.3-2-0.4-2.6C82.4,91.6,82.9,90.7,83.1,89.7z"/>
					</g>
				</g>
			</g>
			<g>
				<path class="st104" d="M69,119.8c-0.2,0.5-0.4,1-0.8,1.4c-0.4,0.4-0.9,0.7-1.4,0.7c-0.6,0-1.1-0.4-1.4-0.9
					c-0.3-0.5-0.4-1.1-0.3-1.7c0-0.5,0.3-1.1,0.8-1.2c0.2,0,0.4,0.1,0.6,0.2c0.9,0.4,1.8,0.8,2.7,1.2"/>
			</g>
			<g>
				<g>
					<path d="M67.8,122c0-0.1-0.6,0.1-1.5-0.2c-0.4-0.2-0.8-0.5-1.1-1.1c-0.2-0.5-0.2-1.2,0-1.8c0.1-0.1,0.2-0.3,0.3-0.4
						c0.1-0.1,0.1-0.1,0.2-0.1c0.1,0,0.3,0.1,0.4,0.2c0.2,0.1,0.3,0.1,0.4,0.2c0.6,0.3,1.1,0.5,1.5,0.7c0.9,0.4,1.4,0.6,1.5,0.5
						c0-0.1-0.5-0.4-1.3-0.8c-0.4-0.2-0.9-0.5-1.5-0.8c-0.1-0.1-0.3-0.1-0.4-0.2c-0.2-0.1-0.3-0.1-0.5-0.2c-0.1,0-0.3-0.1-0.4,0
						c-0.1,0.1-0.2,0.1-0.3,0.2c-0.1,0.2-0.2,0.3-0.3,0.5c-0.4,0.7-0.3,1.6,0,2.2c0.3,0.6,0.9,1,1.3,1.2c0.5,0.2,0.9,0.2,1.2,0.1
						C67.7,122.1,67.9,122,67.8,122z"/>
				</g>
			</g>
			<g>
				<g>
					<path class="st29" d="M54.8,93.8c0,0-0.1-0.4,0-1c0.1-0.6,0.5-1.5,1.4-2.3c0.9-0.8,2.3-1.2,3.8-1.1c1.5,0.1,3.2,0.7,4.8,1.3
						c0.8,0.3,1.7,0.6,2.5,0.8c0.8,0.2,1.6,0.3,2.4,0.4c1.6,0.1,3-0.1,4.1-0.4c1.1-0.3,2-0.7,2.6-1c0.3-0.1,0.5-0.3,0.7-0.4
						c0.1-0.1,0.2-0.1,0.2-0.1c0,0-0.3,0.2-0.9,0.4c-0.6,0.3-1.5,0.6-2.6,0.9c-1.1,0.3-2.5,0.4-4.1,0.3c-0.8-0.1-1.6-0.2-2.4-0.4
						c-0.8-0.2-1.6-0.5-2.5-0.8c-1.7-0.6-3.3-1.2-4.9-1.3c-1.6-0.1-3,0.4-3.9,1.2c-0.9,0.8-1.3,1.7-1.4,2.4
						C54.6,93.4,54.8,93.8,54.8,93.8z"/>
				</g>
			</g>
			<g>
				<g>
					<path class="st29" d="M47.7,107.6c0,0,0-0.1,0.1-0.2c0.1-0.1,0.2-0.3,0.3-0.5c0.2-0.5,0.5-1.1,0.8-2c0.2-0.9,0.4-2,0.4-3.2
						c0-1.2-0.3-2.5-0.6-3.9c-0.2-1.4-0.2-2.7,0.2-3.8c0.2-0.6,0.5-1,0.9-1.4c0.4-0.4,0.8-0.6,1.2-0.7c0.9-0.3,1.6-0.1,2.1,0.1
						c0.4,0.2,0.6,0.5,0.6,0.5c0,0-0.1-0.3-0.6-0.6c-0.4-0.3-1.2-0.5-2.1-0.2c-0.5,0.1-0.9,0.4-1.3,0.8c-0.4,0.4-0.7,0.9-0.9,1.5
						c-0.4,1.2-0.4,2.6-0.2,3.9c0.2,1.4,0.6,2.7,0.6,3.9c0.1,1.2-0.1,2.3-0.3,3.2c-0.2,0.9-0.5,1.6-0.7,2
						C47.8,107.3,47.7,107.5,47.7,107.6z"/>
				</g>
			</g>
			<g>
				<g>
					<path class="st29" d="M54,93.1c0,0,0-0.1,0-0.3c0-0.2,0-0.6,0-1c0-0.8,0.1-2,0.5-3.4c0.2-0.7,0.6-1.4,1.2-2.1
						c0.6-0.6,1.4-1.2,2.3-1.4c0.9-0.2,2-0.1,3,0.2c1,0.3,2,0.9,2.9,1.5c1,0.6,1.9,1.2,2.9,1.6c1,0.4,2,0.7,3,0.7
						c1,0.1,1.9,0,2.8-0.2c0.9-0.2,1.6-0.5,2.3-0.8c1.3-0.7,2.2-1.5,2.8-2.2c0.3-0.3,0.5-0.6,0.6-0.8c0.1-0.2,0.2-0.3,0.2-0.3
						c0,0-0.1,0.1-0.2,0.3c-0.1,0.2-0.3,0.4-0.6,0.7c-0.6,0.6-1.5,1.4-2.8,2.1c-0.7,0.3-1.4,0.6-2.3,0.8c-0.8,0.2-1.8,0.3-2.7,0.2
						c-1-0.1-2-0.3-2.9-0.7c-1-0.4-1.9-1-2.9-1.6c-1-0.6-1.9-1.2-3-1.5c-1-0.3-2.1-0.5-3.1-0.2c-1,0.2-1.8,0.8-2.4,1.5
						c-0.6,0.7-1,1.4-1.2,2.1c-0.5,1.4-0.5,2.7-0.5,3.5c0,0.4,0,0.7,0,1C54,92.9,54,93.1,54,93.1z"/>
				</g>
			</g>
		</g>
		<g>
			<g>
				<g>
					<g>
						<g>
							<g>
								<g>
									<g>
										<g>
											<path class="st103" d="M91.5,166.2l25-28.1l3.6-5c0,0,8.7-10.7,9.4-11.9c0.8-1.3,1.6-1.2,2.1-0.9c0.7,0.5,0.7,1.8,0,2.9
												c-0.2,0.4-4.1,6.5-4.1,6.5s0.6-0.3,2.2-0.9c1.6-0.6,4.2,0.1,6.3,1.5c2.1,1.4,2.6,2,2.1,2.9c-0.2,0.3-0.6,0.5-0.9,0.6
												c-0.6,0.1-1.5-0.2-2.1-0.5c-4.2-2.5-5.3-0.9-5.3-0.9l-0.6,0.6c0,0,3.2-0.2,4.5,1.5c0.2,0.3,0.3,0.6,0.4,0.8
												c0.9,0.6,1.5,1.7,1.5,2.8c0,1.1-0.7,2.3-1.7,2.8c-0.5,0.3-1.1,0.4-1.5,0c-0.2-0.2-0.3-0.5-0.4-0.8c0-0.1-0.1-0.3-0.2-0.4
												l-1.6,1.6c0,0-3.7,3.5-5.1,5.2l-22.1,27.6c-2.9,4.2-7.2,7.6-11.3,4.7l0,0C87.3,175.7,87.7,170.2,91.5,166.2z"/>
										</g>
									</g>
								</g>
							</g>
						</g>
						<g>
							<g>
								<g>
									<g>
										<g>
											<g>
												<path class="st103" d="M117.8,138.2c0.5,0.6,1.5,0.5,2.2,0.2c0.7-0.4,1.3-0.9,1.9-1.3c2-1.2,4.7-0.7,6.7-2
													c0.3-0.2,0.6-0.5,0.4-0.8c-0.1-0.3-0.5-0.3-0.8-0.4c-2.6-0.1-5.2-0.3-7.8-0.4"/>
											</g>
										</g>
									</g>
								</g>
							</g>
							<g>
								<g>
									<g>
										<g>
											<g>
												<g>
													<path class="st104" d="M120.5,133.5c0,0,0.3,0,0.8,0c0.5,0,1.3,0,2.3,0c1,0,2.2,0.1,3.4,0.1c0.3,0,0.6,0,1,0
														c0.3,0,0.7-0.1,1.1,0.3c0.2,0.2,0.2,0.5,0.1,0.7c-0.1,0.2-0.3,0.4-0.4,0.5c-0.3,0.2-0.7,0.4-1,0.5
														c-1.4,0.5-2.9,0.6-4.1,0.9c-0.6,0.1-1.2,0.3-1.6,0.6c-0.5,0.3-0.9,0.6-1.3,0.9c-0.8,0.6-1.7,0.8-2.2,0.6
														c-0.6-0.2-0.7-0.5-0.7-0.5c0,0,0.2,0.2,0.7,0.3c0.5,0.1,1.3-0.1,2-0.7c0.4-0.3,0.8-0.6,1.3-1c0.5-0.3,1.1-0.5,1.7-0.7
														c1.3-0.3,2.7-0.4,4-0.9c0.3-0.1,0.6-0.3,0.9-0.5c0.3-0.2,0.4-0.4,0.3-0.6c-0.1-0.1-0.5-0.2-0.8-0.2c-0.3,0-0.7,0-1-0.1
														c-1.2-0.1-2.4-0.2-3.4-0.2c-1-0.1-1.7-0.1-2.3-0.2C120.8,133.6,120.5,133.6,120.5,133.5z"/>
												</g>
											</g>
										</g>
									</g>
								</g>
							</g>
						</g>
						<g>
							<g>
								<g>
									<g>
										<g>
											<g>
												<path class="st104" d="M129.3,133c0,0,0.3-0.6,1.1-0.9c0.4-0.2,1-0.2,1.5-0.1c0.6,0.1,1.2,0.4,1.8,0.8
													c0.6,0.4,1.2,0.7,1.8,0.9c0.6,0.2,1.2,0.3,1.7,0.2c0.5-0.1,0.8-0.4,0.9-0.7c0.1-0.3,0.1-0.4,0.1-0.4
													c0,0-0.1,0.1-0.2,0.4c-0.1,0.2-0.4,0.5-0.9,0.5c-0.4,0.1-1,0-1.6-0.2c-0.6-0.2-1.1-0.6-1.8-0.9
													c-0.6-0.4-1.3-0.7-1.9-0.8c-0.6-0.1-1.3,0-1.7,0.2c-0.4,0.2-0.7,0.5-0.9,0.7C129.3,132.9,129.3,133,129.3,133z"/>
											</g>
										</g>
									</g>
								</g>
							</g>
						</g>
						<g>
							<g>
								<g>
									<g>
										<g>
											<g>
												<path class="st104" d="M131.8,122.8c0,0-0.3,0.5-0.8,1.2c-0.5,0.8-1.1,1.8-1.8,3c-0.7,1.1-1.3,2.1-1.8,2.9
													c-0.5,0.7-0.8,1.2-0.7,1.2c0,0,0.4-0.4,0.9-1.1c0.5-0.7,1.2-1.7,1.9-2.9c0.7-1.2,1.3-2.2,1.7-3
													C131.6,123.3,131.9,122.8,131.8,122.8z"/>
											</g>
										</g>
									</g>
								</g>
							</g>
						</g>
						<g>
							<g>
								<g>
									<g>
										<g>
											<g>
												<path class="st104" d="M129.8,135.3c0,0,0.2,0,0.4,0.1c0.3,0,0.7,0.1,1,0.5c0.1,0.2,0.1,0.5,0,0.7
													c-0.1,0.3-0.3,0.5-0.5,0.8c-0.2,0.3-0.5,0.6-0.4,1.1c0,0.4,0.3,0.8,0.6,1.1c0.4,0.2,0.8,0.3,1.2,0.2
													c0.4-0.1,0.7-0.3,1-0.6c0.5-0.5,0.7-1.1,0.9-1.6c0.2-0.5,0.3-0.9,0.3-1.2c0-0.3-0.1-0.5-0.1-0.5c0,0,0,0.2,0,0.4
													c0,0.3-0.2,0.7-0.4,1.1c-0.2,0.5-0.5,1-1,1.5c-0.4,0.4-1.2,0.7-1.9,0.3c-0.3-0.2-0.5-0.5-0.5-0.8c0-0.3,0.2-0.6,0.4-0.9
													c0.2-0.3,0.4-0.5,0.6-0.8c0.1-0.3,0.1-0.7,0-0.9c-0.3-0.5-0.9-0.5-1.1-0.5C130,135.3,129.8,135.3,129.8,135.3z"/>
											</g>
										</g>
									</g>
								</g>
							</g>
						</g>
						<g>
							<g>
								<g>
									<g>
										<g>
											<g>
												<path class="st104" d="M132.1,139.4c0,0-0.1,0.1-0.2,0.4c-0.1,0.3,0,0.7,0.3,1.1c0.3,0.4,1,0.6,1.6,0.4
													c0.6-0.2,1.2-0.6,1.6-1.2c0.4-0.6,0.5-1.3,0.5-2c0-0.6-0.3-1.2-0.6-1.6c-0.3-0.4-0.6-0.6-0.8-0.8
													c-0.2-0.1-0.4-0.2-0.4-0.2c0,0,0.5,0.3,1,1.1c0.2,0.4,0.4,0.9,0.5,1.5c0,0.6-0.1,1.2-0.5,1.8c-0.4,0.6-0.9,1-1.4,1.1
													c-0.5,0.2-1.1,0-1.4-0.3c-0.3-0.3-0.4-0.7-0.4-0.9C132.1,139.6,132.1,139.4,132.1,139.4z"/>
											</g>
										</g>
									</g>
								</g>
							</g>
						</g>
						<g>
							<g>
								<g>
									<g>
										<g>
											<g>
												<path class="st104" d="M125.3,140.9c0,0-0.2-0.2-0.6-0.4c-0.4-0.2-1.1-0.2-1.8,0l0.2,0.2c0.1-0.3,0.3-0.6,0.4-0.9
													c0.6-1.8,0.4-3.4,0.3-3.3c-0.1,0,0,1.5-0.6,3.3c-0.1,0.3-0.2,0.6-0.3,0.9l-0.1,0.3l0.3-0.1c0.6-0.2,1.2-0.2,1.6-0.1
													C125.1,140.8,125.3,140.9,125.3,140.9z"/>
											</g>
										</g>
									</g>
								</g>
							</g>
						</g>
						<g>
							<g>
								<g>
									<g>
										<g>
											<g>
												<path class="st104" d="M131.9,130.5c-0.1,0-0.1,0.6,0.3,1.1c0.4,0.6,1,0.7,1,0.7c0-0.1-0.4-0.3-0.7-0.8
													C132.1,131,132,130.5,131.9,130.5z"/>
											</g>
										</g>
									</g>
								</g>
							</g>
						</g>
					</g>
				</g>
				<g>
					<path class="st8" d="M66.6,140.8l23.2,23l17-17.5l3.2-1.4l4.3-4.3l9.9,11.2l-21,27.5c-2.7,3.6-6.6,6.1-10.9,7.1l0,0
						c-6.6,1.6-13.6-0.3-18.5-5L56,163.7"/>
				</g>
				<g>
					<g>
						<path class="st7" d="M92,177.1c0,0,0-0.8-0.1-2c0-1.2-0.1-2.9-0.4-4.8c-0.3-1.9-0.8-3.5-1.2-4.7c-0.4-1.2-0.7-1.9-0.6-1.9
							c0,0,0.1,0.2,0.3,0.5c0.2,0.3,0.4,0.8,0.6,1.3c0.5,1.2,1,2.8,1.3,4.7c0.3,1.9,0.3,3.6,0.3,4.8c0,0.6-0.1,1.1-0.1,1.5
							C92.1,176.9,92.1,177.1,92,177.1z"/>
					</g>
				</g>
				<g class="st12">
					<g>
						<path d="M73.6,148.3c3.7,3.5,4.6,8.1,6.6,12.7c2.4,5.5,6.8,10.8,8.4,16.5c0.5,1.7,0.7,3.6,0.1,5.3c-0.6,1.7-2.4,3.7-4.2,3.8
							l-3.7-1L73.6,148.3z"/>
					</g>
				</g>
				<g>
					<g>
						<path class="st7" d="M119.5,157.8c-0.1,0.1-2.2-2.6-4.8-5.8c-2.6-3.3-4.6-6-4.5-6c0.1-0.1,2.2,2.6,4.8,5.8
							C117.6,155,119.6,157.7,119.5,157.8z"/>
					</g>
				</g>
			</g>
			<g>
				<polygon class="st29" points="110,203.9 103.3,224.6 121.2,216.4 127,197.5 				"/>
			</g>
			<g>
				<path class="st8" d="M49.2,128.8l-2.6,6.3c0,0-3.4,7.2-7.2,12.2c-4.1,5.4-5.1,22.7-5.1,22.7l3.9,53.2l-1.3,2.6
					c-0.6,1.2-0.3,5.5,1,5.6l44.1,2c1.1,0.1,1.8-3.7,1.7-4.7l-3.6-64.3L73,146.9l-2.3-3.4l-0.1-4.3l-15.3-4.8
					C52.5,133.5,50.3,131.4,49.2,128.8L49.2,128.8z"/>
			</g>
			<g class="st12">
				<g>
					<path d="M39,210.7c6.7,4.3,13.5,8.6,20.9,11.4c7.4,2.8,15.9,3.8,23.5,1.7l-0.2-5.5L41,206.5L39,210.7z"/>
				</g>
			</g>
			<g>
				<path class="st8" d="M51.1,148.7c0,0-12.1-1-14.6,14c-2.5,15.1,1.5,47.8,2.7,48c0,0,21.6,9.2,44,11.4l15.8-2.9l-1.9-15
					l-11.6,0.6c0,0-0.5-2.9-4.9-4.1c-6.3-1.8-19-4.7-19-4.7s0.6-15,0.7-19.4c0.1-4.4,1.6-23.6-8.4-27.1"/>
			</g>
			<g>
				<g>
					<path class="st7" d="M73,146.9c0,0,0.1,0.2,0.2,0.4c0.1,0.3,0.3,0.8,0.6,1.3c0.5,1.2,1.2,2.8,2.1,4.8c0.9,2.1,1.9,4.5,3,7.2
						c0.3,0.7,0.6,1.4,0.9,2.1c0.3,0.7,0.6,1.5,0.7,2.3c0.2,0.8,0.2,1.6,0.3,2.4c0,0.8,0.1,1.7,0.1,2.5c0.4,6.8,0.8,12.9,0.9,17.4
						c0.1,2.2,0.1,4,0.2,5.3c0,0.6,0,1.1,0,1.4c0,0.3,0,0.5,0,0.5c0,0,0-0.2,0-0.5c0-0.4,0-0.8-0.1-1.4c-0.1-1.3-0.1-3.1-0.3-5.3
						c-0.3-4.5-0.6-10.6-1-17.3c0-0.8-0.1-1.7-0.1-2.5c0-0.8-0.1-1.6-0.2-2.4c-0.2-0.8-0.4-1.5-0.7-2.2c-0.3-0.7-0.6-1.4-0.9-2.1
						c-1.1-2.7-2.1-5.2-2.9-7.2c-0.8-2-1.5-3.7-2-4.9c-0.2-0.6-0.4-1-0.5-1.3C73,147,73,146.9,73,146.9z"/>
				</g>
			</g>
			<g>
				<g>
					<path class="st7" d="M70.5,139.1c0,0,0,0.2-0.1,0.6c-0.1,0.4-0.3,1-0.5,1.8c-0.5,1.5-1.4,3.6-2.7,5.9l-0.1,0.1l-0.1-0.1
						c-1.7-1.4-4.1-2.7-6.6-3.7c-2.1-0.9-4.2-1.6-6-2.5c-1.8-0.8-3.4-1.8-4.6-2.7c-1.2-0.9-2-1.9-2.5-2.6c-0.2-0.3-0.4-0.6-0.5-0.8
						c-0.1-0.2-0.2-0.3-0.2-0.3c0,0,0.3,0.4,0.8,1.1c0.5,0.7,1.3,1.6,2.5,2.5c1.2,0.9,2.7,1.8,4.5,2.6c1.8,0.8,3.9,1.6,6,2.4
						c2.6,1,4.9,2.3,6.7,3.8l-0.2,0c1.4-2.3,2.3-4.4,2.8-5.8c0.3-0.7,0.5-1.3,0.6-1.7C70.4,139.3,70.5,139.1,70.5,139.1z"/>
				</g>
			</g>
			<g>
				<g>
					<path class="st7" d="M53.9,149.6c0,0,0.3,0.1,0.8,0.3c0.3,0.1,0.6,0.3,1,0.5c0.4,0.2,0.8,0.5,1.2,0.9c0.9,0.8,1.8,1.9,2.6,3.3
						c0.8,1.5,1.5,3.3,2,5.4c1,4.2,1.3,9.5,1,15.6c-0.2,6.1-0.4,12.9-0.7,20.5l-0.1-0.1c3.8,0.9,7.9,1.9,12.1,2.9
						c2.1,0.5,4.3,1.1,6.5,1.7c2.3,0.5,4.2,2.2,5.3,4.3l-0.1-0.1c3.7-0.2,7.6-0.4,11.6-0.6l0.1,0l0,0.1c0.6,4.8,1.2,9.8,1.9,15
						l0,0.1l-0.1,0c-4.7,0.9-9.6,1.8-14.7,2.7c-0.4,0.1-0.7,0.1-1.1,0.2l0,0l0,0c-4-0.4-8-1-11.9-1.8c-3.9-0.8-7.7-1.6-11.4-2.7
						c-7.4-2-14.4-4.3-20.8-7l0,0c0,0-0.1,0-0.1-0.1c0,0,0,0-0.1-0.1c0,0-0.1-0.1-0.1-0.1c0-0.1-0.1-0.2-0.1-0.2
						c-0.1-0.2-0.1-0.3-0.1-0.5c-0.1-0.3-0.2-0.6-0.2-0.9c-0.1-0.6-0.3-1.3-0.4-1.9c-0.2-1.3-0.4-2.5-0.6-3.7
						c-0.3-2.5-0.6-4.9-0.8-7.3c-0.5-4.8-0.8-9.3-0.9-13.6c-0.2-4.3-0.2-8.3,0-12c0.2-3.7,0.5-7.2,1.3-10.2c0.8-3,2.2-5.6,3.9-7.3
						c1.7-1.8,3.6-2.8,5.1-3.4c1.6-0.6,2.9-0.7,3.8-0.8c0.4,0,0.8,0,1,0c0.2,0,0.3,0,0.3,0s-0.1,0-0.3,0c-0.2,0-0.6,0-1,0
						c-0.9,0.1-2.2,0.2-3.7,0.8c-1.6,0.6-3.4,1.6-5.1,3.4c-1.6,1.8-3,4.3-3.8,7.3c-0.8,3-1.1,6.5-1.2,10.2c-0.1,3.7-0.1,7.8,0.1,12
						c0.2,4.3,0.5,8.8,1,13.6c0.2,2.4,0.5,4.8,0.8,7.3c0.2,1.2,0.4,2.5,0.6,3.7c0.1,0.6,0.2,1.3,0.4,1.9c0.1,0.3,0.1,0.6,0.2,0.9
						c0,0.2,0.1,0.3,0.1,0.5c0,0.1,0.1,0.1,0.1,0.2c0,0,0,0.1,0,0.1c0,0,0,0,0,0s0,0,0,0c0,0,0,0,0,0.1l0-0.1c6.5,2.6,13.4,5,20.8,7
						c3.7,1,7.5,1.9,11.3,2.6c3.9,0.8,7.8,1.3,11.9,1.8l0,0c0.4-0.1,0.7-0.1,1.1-0.2c5-0.9,10-1.8,14.7-2.7l-0.1,0.2
						c-0.6-5.2-1.3-10.2-1.9-15l0.2,0.1c-4,0.2-7.9,0.4-11.6,0.6l-0.1,0l0-0.1c-1-2-2.9-3.6-5.1-4.1c-2.2-0.6-4.4-1.1-6.5-1.7
						c-4.2-1.1-8.3-2-12.1-2.9l-0.1,0l0-0.1c0.3-7.5,0.5-14.4,0.7-20.5c0.3-6.1,0.1-11.3-0.9-15.5c-0.5-2.1-1.1-3.9-1.9-5.4
						c-0.8-1.5-1.7-2.6-2.6-3.3c-0.4-0.4-0.8-0.7-1.2-0.9c-0.4-0.2-0.7-0.4-1-0.5C54.2,149.7,53.9,149.6,53.9,149.6z"/>
				</g>
			</g>
			<g>
				<g>
					<path class="st7" d="M84.7,220.6c-0.1,0,0.1-3.2,0.3-7c0.3-3.9,0.6-7,0.7-7c0.1,0-0.1,3.2-0.3,7
						C85.1,217.4,84.8,220.6,84.7,220.6z"/>
				</g>
			</g>
			<g>
				<g>
					<path class="st7" d="M51.9,204.2c0,0,0-0.2,0.1-0.5c0.1-0.3,0.3-0.7,0.6-1.3c0.6-1,1.7-2.3,3.2-3.3c1.5-1.1,2.9-1.8,4-2.3
						c1.1-0.5,1.7-0.8,1.8-0.7c0,0-0.6,0.4-1.7,0.9c-1,0.6-2.5,1.3-3.9,2.4c-1.4,1-2.5,2.2-3.2,3.2
						C52.2,203.6,51.9,204.3,51.9,204.2z"/>
				</g>
			</g>
			<g>
				<g>
					<path class="st7" d="M69.6,225.8c0,0-0.1,0-0.3,0.1c-0.2,0-0.5,0.1-0.9,0.1c-0.8,0.1-1.9,0.2-3.2,0.4c-1.4,0.1-3,0.2-4.8,0.2
						c-1.8,0-3.8-0.1-5.9-0.4c-2.1-0.2-4-0.6-5.8-1c-1.8-0.4-3.3-0.8-4.7-1.3c-1.3-0.4-2.4-0.8-3.1-1.1c-0.3-0.1-0.6-0.2-0.8-0.3
						c-0.2-0.1-0.3-0.1-0.3-0.1c0,0,0.1,0,0.3,0.1c0.2,0.1,0.5,0.2,0.8,0.3c0.7,0.3,1.8,0.6,3.1,1c1.3,0.4,2.9,0.8,4.6,1.2
						c1.8,0.4,3.7,0.7,5.8,1c2.1,0.2,4.1,0.3,5.9,0.4c1.8,0,3.4,0,4.8-0.1c1.4-0.1,2.5-0.2,3.2-0.3c0.4,0,0.6-0.1,0.9-0.1
						C69.5,225.8,69.6,225.8,69.6,225.8z"/>
				</g>
			</g>
			<g>
				<g>
					<g>
						<path class="st103" d="M123.8,201.7c-0.5-0.7-1.2-0.6-1.9-0.1l-2.2,1.5c-0.6,0.3-1.3,0.6-1.9,0.8l-0.9,0.2
							c-1.8,0.3-3.7-0.1-5.3-1.1l-0.4-0.3c0,0,6-1.4,6.9-2.1c0,0,0,0,0,0c0.9-0.8,0.1-2.3-1.1-2.1l-7.6,1.2
							c-2.5,0.4-4.8,1.4-6.9,2.9c-1.9,1.4-5.1,3.5-5.3,3.5l1.3,11.4l2.1-0.5l3.9,0.3c2.6,0.2,5.3-0.3,7.6-1.5c1.5-0.8,2.8-1.5,3-1.8
							c0.3-0.6,0.9-2.9,0.9-2.9s1.5-0.9,1.5-1.6c0.1-0.6-0.1-1.8-0.1-1.8s3.8-2.3,4.8-3C124.2,203.2,124.2,202.3,123.8,201.7z"/>
					</g>
					<g>
						<g>
							<path class="st104" d="M113.2,209.9c0,0.1,1.2-0.2,2.4-0.9c1.3-0.6,2.2-1.4,2.2-1.4c0-0.1-1,0.6-2.3,1.2
								C114.2,209.4,113.1,209.8,113.2,209.9z"/>
						</g>
					</g>
					<g>
						<g>
							<path class="st104" d="M114,212.1c0,0.1,0.6,0,1.3-0.4c0.7-0.4,1.1-0.8,1.1-0.9c0-0.1-0.5,0.3-1.2,0.6
								C114.5,211.8,114,212,114,212.1z"/>
						</g>
					</g>
				</g>
				<g>
					<g>
						<path class="st104" d="M110,202c0,0,0.3,0.3,0.9,0.6c0.6,0.4,1.4,0.8,2.4,1.2c1,0.3,2,0.4,2.7,0.4c0.7,0,1.1-0.1,1.1-0.1
							c0-0.1-1.7,0.1-3.7-0.6c-1-0.3-1.8-0.8-2.4-1.1C110.4,202.2,110.1,202,110,202z"/>
					</g>
				</g>
			</g>
			<g class="st12">
				<g>
					<path d="M48.3,137.1c1.7,2.8,4.3,5,7,6.8c2.7,1.9,5.7,3.3,8.7,4.8c1.4,0.7,2.8,1.3,4.3,1.2c0.4,0,0.8-0.1,1.1-0.4
						c0.4-0.4,0.6-1,0.7-1.6c0.4-2.7,0.5-6.2,0.4-8.9c-0.9,3.1-2.1,6-3.5,8.3c0,0-2.4-2.1-9.8-5.1C49.7,139.3,48.3,137.1,48.3,137.1
						z"/>
				</g>
			</g>
		</g>
		<g>
			<g>
				<path class="st29" d="M57.3,267.9c-0.1,0-0.2-4.5-0.3-10c-0.1-5.5,0-10,0.1-10c0.1,0,0.2,4.5,0.3,10
					C57.5,263.4,57.4,267.9,57.3,267.9z"/>
			</g>
		</g>
	</g>
</g>
<line class="st20" x1="53" y1="286.6" x2="429" y2="286.6"/>
</svg>
