<?xml version="1.0" encoding="utf-8"?>
<!-- Generator: Adobe Illustrator 24.3.0, SVG Export Plug-In . SVG Version: 6.00 Build 0)  -->
<svg version="1.1" id="Layer_1" xmlns="http://www.w3.org/2000/svg" xmlns:xlink="http://www.w3.org/1999/xlink" x="0px" y="0px"
	 viewBox="0 0 450 300" style="enable-background:new 0 0 450 300;" xml:space="preserve">
<style type="text/css">
	.st0{fill:none;stroke:#1A2E35;stroke-width:0.25;stroke-miterlimit:10;}
	.st1{fill:#E1E1E1;}
	.st2{fill:#FAFAFA;}
	.st3{fill:#FFFFFF;}
	.st4{fill:#ECECEC;}
	.st5{fill:#F5F5F5;}
	.st6{fill:#004033;}
	.st7{fill:#1A2E35;}
	.st8{fill:#7AC142;}
	.st9{fill:#FFD4B8;stroke:#1A2E35;stroke-width:0.25;stroke-linecap:round;stroke-linejoin:round;stroke-miterlimit:10;}
	.st10{fill:#9E493E;}
	.st11{fill:#FFC40D;stroke:#000000;stroke-width:0.25;stroke-miterlimit:10;}
	.st12{opacity:0.3;}
	.st13{fill:#FFB68C;}
	.st14{fill:#375A64;}
	.st15{fill:none;stroke:#000000;stroke-miterlimit:10;}
	.st16{fill:#7AC142;stroke:#000000;stroke-width:0.5;stroke-miterlimit:10;}
	.st17{fill:#FFD4B8;stroke:#1A2E35;stroke-width:0.5;stroke-linecap:round;stroke-linejoin:round;stroke-miterlimit:10;}
	.st18{fill:none;stroke:#FFFFFF;stroke-linecap:round;stroke-linejoin:round;stroke-miterlimit:10;}
	.st19{fill:#FF9A6C;}
	.st20{fill:none;stroke:#1A2E35;stroke-linecap:round;stroke-linejoin:round;stroke-miterlimit:10;}
	.st21{fill:#FFFFFF;stroke:#1A2E35;stroke-linecap:round;stroke-linejoin:round;stroke-miterlimit:10;}
	.st22{clip-path:url(#XMLID_10_);fill:#FF9A6C;}
	.st23{opacity:0.3;clip-path:url(#XMLID_11_);fill-opacity:0.7;}
	.st24{fill:none;stroke:#1A2E35;stroke-width:0.25;stroke-linecap:round;stroke-linejoin:round;stroke-miterlimit:10;}
	.st25{clip-path:url(#XMLID_12_);fill:#FF9A6C;}
	.st26{clip-path:url(#XMLID_13_);fill:#FF9A6C;}
	.st27{opacity:0.3;clip-path:url(#XMLID_15_);fill-opacity:0.7;}
	.st28{opacity:0.3;clip-path:url(#XMLID_16_);fill-opacity:0.7;}
	.st29{fill:#118C76;}
	.st30{opacity:0.3;clip-path:url(#XMLID_17_);fill:#FFFFFF;fill-opacity:0.7;}
	.st31{clip-path:url(#XMLID_18_);fill:#004033;}
	.st32{fill:#FFFFFF;stroke:#000000;stroke-width:2;stroke-linecap:round;stroke-linejoin:round;stroke-miterlimit:10;}
	.st33{fill:#FFFFFF;stroke:#000000;stroke-linecap:round;stroke-linejoin:round;stroke-miterlimit:10;}
	.st34{fill:#1A2E35;stroke:#000000;stroke-linecap:round;stroke-linejoin:round;stroke-miterlimit:10;}
	.st35{fill:#FFC40D;}
	.st36{fill:#FFFFFF;stroke:#000000;stroke-width:0.75;stroke-linecap:round;stroke-linejoin:round;stroke-miterlimit:10;}
	.st37{fill:#8C8C8C;stroke:#000000;stroke-width:0.75;stroke-linecap:round;stroke-linejoin:round;stroke-miterlimit:10;}
	.st38{fill:#FFBF9D;}
	.st39{stroke:#000000;stroke-linecap:round;stroke-linejoin:round;stroke-miterlimit:10;}
	.st40{fill:#011612;}
	.st41{fill:#7AC142;stroke:#000000;stroke-width:0.75;stroke-miterlimit:10;}
	.st42{fill:#5AE4A7;stroke:#000000;stroke-linecap:round;stroke-linejoin:round;stroke-miterlimit:10;}
	.st43{fill:#308618;stroke:#000000;stroke-width:0.5;stroke-miterlimit:10;}
	.st44{fill:#308618;}
	.st45{opacity:0.6;}
	.st46{fill:#27393C;stroke:#000000;stroke-width:0.75;stroke-miterlimit:10;}
	.st47{fill:#375A64;stroke:#000000;stroke-width:0.75;stroke-miterlimit:10;}
	.st48{opacity:0.2;}
	.st49{fill:#009438;}
	.st50{fill:#005E38;}
	.st51{fill:#FF4F5B;}
	.st52{fill:none;stroke:#1A2E35;stroke-miterlimit:10;}
	.st53{fill:#1A2E35;stroke:#1A2E35;stroke-linecap:round;stroke-linejoin:round;stroke-miterlimit:10;}
	.st54{fill:#7AC142;stroke:#000000;stroke-miterlimit:10;}
	.st55{fill:#AAFF00;stroke:#1A2E35;stroke-linecap:round;stroke-linejoin:round;stroke-miterlimit:10;}
	.st56{fill:#FFD29C;stroke:#1A2E35;stroke-linecap:round;stroke-linejoin:round;stroke-miterlimit:10;}
	.st57{fill:#FFD69C;stroke:#1A2E35;stroke-linecap:round;stroke-linejoin:round;stroke-miterlimit:10;}
	.st58{fill:none;stroke:#1A2E35;stroke-width:2;stroke-linecap:round;stroke-linejoin:round;stroke-miterlimit:10;}
	.st59{fill:#4E5E64;stroke:#1A2E35;stroke-linecap:round;stroke-linejoin:round;stroke-miterlimit:10;}
	.st60{fill:#FFC40D;stroke:#000000;stroke-miterlimit:10;}
	.st61{fill:#A3A3A3;stroke:#1A2E35;stroke-linecap:round;stroke-linejoin:round;stroke-miterlimit:10;}
	.st62{fill:#AAFF00;}
	.st63{fill:#1A2E35;stroke:#1A2E35;stroke-miterlimit:10;}
	.st64{fill:#4F4F4F;stroke:#1A2E35;stroke-linecap:round;stroke-linejoin:round;stroke-miterlimit:10;}
	.st65{fill:#EEF8EE;stroke:#000000;stroke-miterlimit:10;}
	.st66{fill:#FFC000;}
	.st67{fill:#FF9A6C;stroke:#000000;stroke-width:0.5;stroke-miterlimit:10;}
	.st68{fill:#118C76;stroke:#000000;stroke-miterlimit:10;}
	.st69{fill:#FFC40D;stroke:#000000;stroke-width:0.5;stroke-miterlimit:10;}
	.st70{fill:#7BC043;stroke:#000000;stroke-width:0.5;stroke-miterlimit:10;}
	.st71{fill:#FFBC98;stroke:#000000;stroke-width:0.5;stroke-miterlimit:10;}
	.st72{fill:url(#SVGID_1_);}
	.st73{fill:#F5F5F5;stroke:#000000;stroke-miterlimit:10;}
	.st74{fill:#FFFFFF;stroke:#000000;stroke-miterlimit:10;}
	.st75{fill:#7BC043;}
	.st76{fill:#FFC10E;stroke:#000000;stroke-width:0.75;stroke-miterlimit:10;}
	.st77{fill:#FFC10E;}
	.st78{fill:#5AE4A7;}
	.st79{fill:#FFFFFF;stroke:#1A2E35;stroke-miterlimit:10;}
	.st80{fill:#FFD8B6;stroke:#000000;stroke-miterlimit:10;}
	.st81{fill:#5AE4A7;stroke:#1A2E35;stroke-linecap:round;stroke-linejoin:round;stroke-miterlimit:10;}
	.st82{fill:none;stroke:#4C4C4C;stroke-linecap:round;stroke-linejoin:round;stroke-miterlimit:10;}
	.st83{fill:#FFAD80;}
	.st84{fill:#4C4C4C;stroke:#1A2E35;stroke-linecap:round;stroke-linejoin:round;stroke-miterlimit:10;}
	.st85{fill:#FFAD80;stroke:#000000;stroke-miterlimit:10;}
	.st86{fill:#B5B5B5;stroke:#1A2E35;stroke-linecap:round;stroke-linejoin:round;stroke-miterlimit:10;}
	.st87{fill:#FFFFFF;stroke:#1A2E35;stroke-width:0.75;stroke-linecap:round;stroke-linejoin:round;stroke-miterlimit:10;}
	.st88{fill:#808080;stroke:#1A2E35;stroke-linecap:round;stroke-linejoin:round;stroke-miterlimit:10;}
	.st89{fill:#9A4648;}
	.st90{fill:#FFC40D;stroke:#000000;stroke-width:0.75;stroke-miterlimit:10;}
	.st91{fill:#FFCAA4;stroke:#1A2E35;stroke-width:0.75;stroke-linecap:round;stroke-linejoin:round;stroke-miterlimit:10;}
	.st92{fill:#FFCAA4;stroke:#1A2E35;stroke-width:0.25;stroke-linecap:round;stroke-linejoin:round;stroke-miterlimit:10;}
	.st93{clip-path:url(#XMLID_53_);fill:#7AC142;stroke:#000000;stroke-width:0.5;stroke-miterlimit:10;}
	.st94{opacity:0.5;clip-path:url(#XMLID_53_);fill:#FFFFFF;}
	.st95{fill:#7AC142;stroke:#231F20;stroke-width:0.75;stroke-miterlimit:10;}
	.st96{opacity:0.2;fill-opacity:0.7;}
	.st97{fill:#FFC488;}
	.st98{fill:none;stroke:#FFFFFF;stroke-miterlimit:10;}
	.st99{opacity:0.5;fill:#FFFFFF;}
	.st100{fill:none;}
	.st101{fill:#054E38;}
	.st102{fill:#05362A;}
	.st103{fill:#E4A686;}
	.st104{fill:#AA6550;}
	.st105{opacity:0.43;fill:#1A2E35;}
	.st106{fill:#FFD4B8;stroke:#1A2E35;stroke-linecap:round;stroke-linejoin:round;stroke-miterlimit:10;}
	.st107{fill:#7AC142;stroke:#1A2E35;stroke-width:0.5;stroke-miterlimit:10;}
	.st108{fill:none;stroke:#1A2E35;stroke-width:0.75;stroke-linecap:round;stroke-linejoin:round;stroke-miterlimit:10;}
	.st109{fill:none;stroke:#1A2E35;stroke-width:0.5;stroke-linecap:round;stroke-linejoin:round;stroke-miterlimit:10;}
	.st110{fill:none;stroke:#1A2E35;stroke-width:3;stroke-linecap:round;stroke-linejoin:round;stroke-miterlimit:10;}
	.st111{fill:#FFFFFF;stroke:#1A2E35;stroke-width:0.5;stroke-linecap:round;stroke-linejoin:round;stroke-miterlimit:10;}
	.st112{fill:none;stroke:#004033;stroke-width:0.5;stroke-miterlimit:10;}
	.st113{fill:#DBEEE0;}
	.st114{fill:#9CA5A8;}
	.st115{fill:#00463E;}
	.st116{clip-path:url(#XMLID_54_);fill:#FFC40D;}
	.st117{clip-path:url(#XMLID_54_);}
	.st118{fill:#D7D7D7;}
	.st119{fill:#E1E1E1;stroke:#FFFFFF;stroke-miterlimit:10;}
	.st120{fill:#CCCCCC;stroke:#000000;stroke-width:0.5;stroke-miterlimit:10;}
	.st121{clip-path:url(#XMLID_55_);fill:#FFBF9A;}
	.st122{clip-path:url(#XMLID_56_);fill:#FFBF9A;}
	.st123{fill:#00423A;stroke:#000000;stroke-width:0.5;stroke-miterlimit:10;}
	.st124{clip-path:url(#XMLID_60_);}
	.st125{fill:#00423A;}
	.st126{clip-path:url(#XMLID_125_);fill:#FFBF9A;stroke:#FFFFFF;stroke-width:0.5;stroke-miterlimit:10;}
	.st127{clip-path:url(#XMLID_125_);fill:#FFA886;}
	.st128{fill:#FFBF9A;stroke:#000000;stroke-width:0.5;stroke-miterlimit:10;}
	.st129{clip-path:url(#XMLID_127_);fill:#FFBF9A;stroke:#FFFFFF;stroke-width:0.25;stroke-miterlimit:10;}
	.st130{clip-path:url(#XMLID_128_);fill:none;stroke:#1A2E35;stroke-linecap:round;stroke-linejoin:round;stroke-miterlimit:10;}
	.st131{fill:#121A21;stroke:#1A2E35;stroke-width:0.5;stroke-linecap:round;stroke-linejoin:round;stroke-miterlimit:10;}
	.st132{fill:none;stroke:#000000;stroke-width:0.5;stroke-linecap:round;stroke-linejoin:round;stroke-miterlimit:10;}
	.st133{fill:#002E2C;stroke:#000000;stroke-width:0.5;stroke-miterlimit:10;}
	.st134{fill:#001A19;stroke:#000000;stroke-width:0.5;stroke-linecap:round;stroke-linejoin:round;stroke-miterlimit:10;}
	.st135{fill:none;stroke:#FFFFFF;stroke-width:0.5;stroke-linecap:round;stroke-linejoin:round;stroke-miterlimit:10;}
	.st136{fill:#1A2E35;stroke:#000000;stroke-width:0.5;stroke-linecap:round;stroke-linejoin:round;stroke-miterlimit:10;}
	.st137{opacity:0.17;clip-path:url(#XMLID_129_);fill:#FFFFFF;stroke:#FFFFFF;stroke-miterlimit:10;}
	.st138{clip-path:url(#XMLID_130_);fill:#FFA886;}
	.st139{fill:none;stroke:#000000;stroke-linecap:round;stroke-linejoin:round;stroke-miterlimit:10;}
</style>
<g>
	<g>
		<g>
			<path class="st4" d="M406.5,126.9c0,0-5.8-0.4-5.2,12.5c0.5,12.9,1.8,19.8,1.8,19.8s-0.2,2.9-2.4,2.3c-2.2-0.6-6.4-3.3-8.4-1.3
				c-2.1,2.2-1.4,5.5,1.5,9.4c2.8,3.9,8.7,12.7,9.3,13.5c0.5,0.8,0.7,2.2-0.8,2.1c-1.6-0.1-12.2-3.7-13.6,1.4
				c-1.4,5.1,8.3,14.7,9.3,15.8c1,1.1,1.1,1.7,0.7,2.4c-0.4,0.6-3.9-0.9-6.9-1.8c-3.1-0.9-6.8-1.4-7.3,1.6
				c-0.6,3,3.7,11.9,19.7,21.2l7.7,3.8l7.3-4.6c14.9-10.9,18.3-20.1,17.4-23.1c-0.9-3-4.5-2.1-7.4-0.9c-3,1.2-6.2,3.1-6.7,2.5
				c-0.5-0.6-0.5-1.3,0.4-2.4c0.9-1.2,9.6-11.7,7.7-16.6c-1.9-5-12.1-0.3-13.6,0c-1.5,0.3-1.5-1.2-1-2c0.4-0.8,5.4-10.2,7.9-14.3
				c2.4-4.2,2.9-7.5,0.5-9.5c-2.3-1.9-6.1,1.3-8.3,2.1c-2.1,0.8-2.6-2-2.6-2s0.6-7-0.1-19.9c-0.8-12.9-6.6-11.8-6.6-11.8"/>
		</g>
		<g>
			<g>
				<path class="st1" d="M407,138.5c0,0,0,0.1,0,0.3c0,0.2,0,0.5,0.1,0.8c0,0.7,0.1,1.7,0.2,3c0.2,2.6,0.4,6.5,0.7,11.2
					c0.5,9.5,1.1,22.6,1.8,37c0.6,14.5,1.2,27.5,1.7,37c0.2,4.7,0.4,8.6,0.6,11.2c0.1,1.3,0.1,2.3,0.2,3c0,0.3,0,0.6,0,0.8
					c0,0.2,0,0.3,0,0.3s0-0.1,0-0.3c0-0.2,0-0.5-0.1-0.8c0-0.7-0.1-1.7-0.2-3c-0.2-2.6-0.4-6.5-0.7-11.2c-0.5-9.5-1.1-22.6-1.8-37
					c-0.6-14.5-1.2-27.5-1.7-37c-0.2-4.7-0.4-8.6-0.6-11.2c-0.1-1.3-0.1-2.3-0.2-3c0-0.3,0-0.6,0-0.8C407,138.6,407,138.5,407,138.5
					z"/>
			</g>
		</g>
		<g>
			<g>
				<path class="st1" d="M398,164.4c0,0,0.2,0.1,0.5,0.4c0.3,0.3,0.7,0.7,1.2,1.2c1,1,2.4,2.4,3.8,4c1.4,1.6,2.7,3,3.8,4.1
					c0.4,0.5,0.8,0.9,1.1,1.2c0.3,0.3,0.4,0.5,0.4,0.5c0,0-0.2-0.1-0.5-0.4c-0.3-0.3-0.7-0.7-1.2-1.2c-1-1-2.3-2.5-3.8-4.1
					c-1.5-1.6-2.8-3-3.8-4.1c-0.5-0.5-0.8-0.9-1.1-1.2C398.1,164.6,398,164.4,398,164.4z"/>
			</g>
		</g>
		<g>
			<g>
				<path class="st1" d="M409.6,175.5c-0.1-0.1,2.7-3,6.3-6.6c3.5-3.6,6.4-6.4,6.5-6.4c0.1,0.1-2.7,3-6.3,6.6
					C412.6,172.7,409.7,175.6,409.6,175.5z"/>
			</g>
		</g>
		<g>
			<g>
				<path class="st1" d="M409.6,197.8c0,0,0.2-0.1,0.5-0.3c0.4-0.2,0.9-0.5,1.5-0.8c1.3-0.7,3-1.7,4.9-2.9c1.9-1.2,3.6-2.3,4.8-3.1
					c0.6-0.4,1-0.7,1.4-1c0.3-0.2,0.5-0.3,0.5-0.3c0,0-0.2,0.2-0.5,0.4c-0.3,0.3-0.8,0.6-1.4,1c-1.2,0.9-2.8,2-4.7,3.2
					c-1.9,1.2-3.7,2.1-5,2.8c-0.6,0.3-1.2,0.6-1.5,0.8C409.8,197.7,409.6,197.8,409.6,197.8z"/>
			</g>
		</g>
		<g>
			<g>
				<path class="st1" d="M396.8,190c0,0,0.2,0.1,0.5,0.2c0.3,0.2,0.8,0.4,1.4,0.8c1.2,0.7,2.8,1.6,4.5,2.6c1.8,1,3.4,2,4.5,2.7
					c0.6,0.4,1,0.6,1.3,0.9c0.3,0.2,0.5,0.3,0.5,0.3c0,0-0.2-0.1-0.5-0.2c-0.3-0.2-0.8-0.4-1.4-0.8c-1.2-0.7-2.8-1.6-4.5-2.6
					c-1.8-1-3.3-2-4.5-2.7c-0.6-0.4-1-0.6-1.3-0.9C397,190.1,396.8,190,396.8,190z"/>
			</g>
		</g>
		<g>
			<g>
				<path class="st1" d="M394.3,209.6c0,0,0.3,0.1,0.7,0.3c0.5,0.3,1.1,0.6,1.8,1c1.5,0.8,3.6,2,5.8,3.3c2.3,1.3,4.3,2.5,5.8,3.4
					c0.7,0.4,1.3,0.8,1.7,1.1c0.4,0.3,0.6,0.4,0.6,0.4c0,0-0.3-0.1-0.7-0.3c-0.5-0.3-1.1-0.6-1.8-1c-1.5-0.8-3.6-2-5.8-3.3
					c-2.3-1.3-4.3-2.5-5.8-3.4c-0.7-0.4-1.3-0.8-1.7-1.1C394.5,209.8,394.3,209.6,394.3,209.6z"/>
			</g>
		</g>
		<g>
			<g>
				<path class="st1" d="M410.5,218.9c0,0,0.2-0.2,0.7-0.4c0.5-0.3,1.1-0.7,1.9-1.1c1.6-1,3.7-2.3,6.1-3.8c2.4-1.5,4.5-3,6-4
					c0.7-0.5,1.3-0.9,1.8-1.2c0.4-0.3,0.7-0.4,0.7-0.4c0,0-0.2,0.2-0.6,0.5c-0.4,0.3-1,0.8-1.7,1.3c-1.5,1.1-3.6,2.6-5.9,4.1
					c-2.4,1.5-4.6,2.8-6.2,3.8c-0.8,0.5-1.5,0.8-1.9,1.1C410.7,218.8,410.5,218.9,410.5,218.9z"/>
			</g>
		</g>
	</g>
	<g>
		<g>
			<g>
				<polygon class="st1" points="422,232.1 400.8,232.1 407.7,284.6 415.1,284.6 				"/>
			</g>
		</g>
		<g>
			<g>
				<g>
					<path class="st5" d="M401.9,238.6c0,0,0,0.1,0.1,0.2c0.1,0.1,0.3,0.3,0.5,0.4c0.5,0.2,1.4,0.2,2.2-0.3c0.9-0.5,1.6-1.4,2.8-1.8
						c1.1-0.4,2.6-0.4,3.9,0.1c1.4,0.4,2.6,1.1,3.6,1.8c1.1,0.6,2.1,1.2,3,1.6c0.9,0.4,1.6,0.6,2.2,0.6c0.3,0,0.5,0,0.6,0
						c0.1,0,0.2,0,0.2,0c0-0.1-1.2-0.1-2.9-0.9c-0.9-0.4-1.8-1-2.9-1.6c-1.1-0.7-2.3-1.4-3.7-1.8c-1.4-0.4-2.9-0.5-4.1,0
						c-0.6,0.2-1.1,0.6-1.6,1c-0.4,0.4-0.8,0.7-1.2,0.9c-0.8,0.5-1.6,0.5-2.1,0.4C402,238.8,401.9,238.5,401.9,238.6z"/>
				</g>
			</g>
		</g>
		<g>
			<g>
				<g>
					<path class="st5" d="M402.6,248.2c0,0,0.2-0.2,0.5-0.6c0.3-0.3,0.9-0.8,1.7-1.1c0.8-0.3,1.8-0.5,3-0.4c1.1,0,2.4,0.3,3.7,0.5
						c1.3,0.2,2.6,0.3,3.8,0.2c1.2-0.1,2.2-0.5,3-0.8c0.8-0.4,1.4-0.8,1.8-1.1c0.4-0.3,0.6-0.5,0.6-0.5c0-0.1-0.9,0.7-2.5,1.3
						c-0.8,0.3-1.8,0.6-2.9,0.8c-1.1,0.1-2.4,0-3.7-0.2c-1.3-0.2-2.6-0.5-3.7-0.5c-1.2,0-2.2,0.2-3.1,0.5c-0.8,0.3-1.4,0.8-1.7,1.2
						c-0.2,0.2-0.3,0.4-0.3,0.5C402.6,248.2,402.6,248.2,402.6,248.2z"/>
				</g>
			</g>
		</g>
		<g>
			<g>
				<g>
					<path class="st5" d="M419.6,253.4c0,0-0.2-0.1-0.6-0.3c-0.4-0.2-1-0.3-1.8-0.4c-0.8-0.1-1.7,0-2.7,0.2c-1,0.2-2.1,0.4-3.2,0.7
						c-1.1,0.2-2.2,0.4-3.2,0.4c-1,0-1.8-0.2-2.5-0.5c-1.4-0.6-1.9-1.5-1.9-1.4c0,0,0.1,0.2,0.4,0.6c0.3,0.3,0.8,0.7,1.4,1.1
						c0.7,0.3,1.6,0.6,2.6,0.6c1,0.1,2.1-0.1,3.2-0.3c1.1-0.2,2.2-0.5,3.1-0.7c1-0.2,1.9-0.2,2.6-0.2
						C418.7,253,419.6,253.5,419.6,253.4z"/>
				</g>
			</g>
		</g>
		<g>
			<g>
				<g>
					<path class="st5" d="M404.5,260.7c0,0.1,0.8-0.5,2.1-0.2c0.6,0.1,1.4,0.4,2.2,0.8c0.8,0.4,1.8,0.7,2.8,0.8
						c2.1,0.2,3.9-0.5,5.1-1.2c0.6-0.3,1-0.7,1.3-1c0.3-0.3,0.4-0.4,0.4-0.4c0-0.1-0.6,0.6-1.8,1.2c-1.1,0.6-2.9,1.2-4.9,1
						c-2-0.1-3.6-1.3-4.9-1.5c-0.7-0.1-1.2,0-1.6,0.1C404.6,260.5,404.5,260.7,404.5,260.7z"/>
				</g>
			</g>
		</g>
		<g>
			<g>
				<g>
					<path class="st5" d="M405.7,270.7c0,0,0.7,0,1.8-0.4c1.1-0.4,2.4-1.2,3.9-1.8c0.8-0.3,1.6-0.5,2.3-0.5c0.7,0,1.3,0.2,1.8,0.4
						c1,0.5,1.3,1.2,1.3,1.1c0,0,0-0.2-0.2-0.4c-0.2-0.3-0.5-0.6-1-0.9c-0.5-0.3-1.2-0.5-1.9-0.5c-0.8,0-1.6,0.2-2.4,0.5
						c-1.6,0.6-2.9,1.5-3.9,1.9C406.4,270.6,405.7,270.7,405.7,270.7z"/>
				</g>
			</g>
		</g>
		<g>
			<g>
				<g>
					<path class="st5" d="M406.7,275.4c0,0,0.5,0.2,1.3,0.4c0.8,0.2,2,0.4,3.4,0.6c1.3,0.1,2.5,0.1,3.4,0.1c0.9,0,1.4-0.1,1.4-0.2
						c0-0.1-2.2,0-4.8-0.3C408.8,275.8,406.8,275.3,406.7,275.4z"/>
				</g>
			</g>
		</g>
	</g>
</g>
<g>
	<g>
		<g>
			<g>
				
					<rect x="86.2" y="32.6" transform="matrix(1 -5.351872e-03 5.351872e-03 1 -0.2461 0.4764)" class="st1" width="5.5" height="27.3"/>
			</g>
		</g>
	</g>
	<g>
		<g>
			<g>
				<g>
					
						<rect x="38.6" y="32.6" transform="matrix(1 -5.355431e-03 5.355431e-03 1 -0.2146 0.2452)" class="st4" width="14.2" height="15.1"/>
				</g>
			</g>
		</g>
		<g>
			<g>
				<g>
					
						<rect x="52.7" y="32.6" transform="matrix(1 -5.355469e-03 5.355469e-03 1 -0.214 0.3209)" class="st5" width="14.2" height="15.1"/>
				</g>
			</g>
		</g>
		<g>
			<g>
				<g>
					<g>
						<path class="st1" d="M38.5,36.9c9.4,0.1,18.9,0,28.4-0.1c0.2,0,0.2-0.3,0-0.3c-9.4-0.1-18.9,0-28.4,0.2
							C38.4,36.6,38.4,36.9,38.5,36.9L38.5,36.9z"/>
					</g>
				</g>
			</g>
		</g>
	</g>
	<g>
		<g>
			<g>
				<g>
					
						<rect x="29.7" y="47.5" transform="matrix(1 -5.358732e-03 5.358732e-03 1 -0.2869 0.2291)" class="st4" width="25.8" height="12.3"/>
				</g>
			</g>
		</g>
		<g>
			<g>
				<g>
					
						<rect x="55.4" y="47.4" transform="matrix(1 -5.356258e-03 5.356258e-03 1 -0.2857 0.3667)" class="st5" width="25.8" height="12.3"/>
				</g>
			</g>
		</g>
		<g>
			<g>
				<g>
					<g>
						<path class="st1" d="M29.7,51c17.2,0.2,34.4,0,51.5-0.3c0.2,0,0.2-0.3,0-0.3c-17.2-0.1-34.4-0.1-51.5,0.3
							C29.5,50.7,29.5,51,29.7,51L29.7,51z"/>
					</g>
				</g>
			</g>
		</g>
	</g>
	<g>
		<g>
			<g>
				<rect x="20" y="59.9" class="st1" width="100.1" height="4.4"/>
			</g>
		</g>
		<g>
			<g>
				<rect x="36.4" y="62" class="st1" width="4.1" height="15"/>
			</g>
		</g>
		<g>
			<g>
				<rect x="97" y="62" class="st1" width="4.1" height="15"/>
			</g>
		</g>
	</g>
	<g>
		<g>
			<g>
				
					<rect x="91.5" y="22.4" transform="matrix(1 -5.351935e-03 5.351935e-03 1 -0.2189 0.5052)" class="st4" width="5.5" height="37.6"/>
			</g>
		</g>
	</g>
	<g>
		<g>
			<g>
				<g>
					
						<rect x="97.1" y="29.4" transform="matrix(1 -5.361252e-03 5.361252e-03 1 -0.2376 0.5439)" class="st5" width="8.5" height="30.4"/>
				</g>
			</g>
		</g>
		<g>
			<g>
				<g>
					<path class="st1" d="M105.5,35.2c0,0.1-1.9,0.1-4.3,0.1c-2.4,0-4.3-0.1-4.3-0.1c0-0.1,1.9-0.1,4.3-0.1
						C103.5,35.1,105.5,35.1,105.5,35.2z"/>
				</g>
			</g>
		</g>
		<g>
			<g>
				<g>
					<path class="st1" d="M105.5,33.9c0,0.1-1.9,0.1-4.3,0.1c-2.4,0-4.3-0.1-4.3-0.1c0-0.1,1.9-0.1,4.3-0.1
						C103.5,33.8,105.5,33.9,105.5,33.9z"/>
				</g>
			</g>
		</g>
		<g>
			<g>
				<g>
					<path class="st1" d="M105.5,55.2c0,0.1-1.9,0.1-4.3,0.1c-2.4,0-4.3-0.1-4.3-0.1c0-0.1,1.9-0.1,4.3-0.1
						C103.5,55.1,105.5,55.1,105.5,55.2z"/>
				</g>
			</g>
		</g>
		<g>
			<g>
				<g>
					<path class="st1" d="M105.5,53.9c0,0.1-1.9,0.1-4.3,0.1c-2.4,0-4.3-0.1-4.3-0.1c0-0.1,1.9-0.1,4.3-0.1
						C103.5,53.8,105.5,53.9,105.5,53.9z"/>
				</g>
			</g>
		</g>
		<g>
			<g>
				<g>
					<path class="st1" d="M101.3,51.1c-0.1,0-0.1-3.1-0.1-6.9c0-3.8,0.1-6.9,0.1-6.9c0.1,0,0.1,3.1,0.1,6.9
						C101.5,48.1,101.4,51.1,101.3,51.1z"/>
				</g>
			</g>
		</g>
	</g>
	<g>
		<g>
			<g>
				<rect x="105.5" y="36.8" class="st4" width="9.3" height="23"/>
			</g>
		</g>
	</g>
	<g>
		<g>
			<circle class="st1" cx="94.1" cy="28.8" r="1.6"/>
		</g>
	</g>
	<g>
		<g>
			<rect x="93.6" y="33.1" class="st1" width="1" height="22.4"/>
		</g>
	</g>
</g>
<g>
	<rect x="245.3" y="50.6" class="st5" width="20.8" height="44.4"/>
	<rect x="266.9" y="98.2" class="st5" width="25.5" height="42.9"/>
	<polygon class="st5" points="295.5,49.8 319.7,49.8 319.7,10.4 320.6,10.4 320.6,49.8 343,49.8 343,9.5 295.5,9.5 	"/>
	<rect x="245.3" y="98.2" class="st5" width="20.8" height="42.9"/>
	<rect x="320.6" y="98.2" class="st5" width="22.4" height="42.9"/>
	<rect x="266.9" y="50.6" class="st5" width="25.5" height="44.4"/>
	<rect x="320.6" y="50.6" class="st5" width="22.4" height="44.4"/>
	<rect x="245.3" y="141.9" class="st5" width="20.8" height="38.7"/>
	<polygon class="st5" points="266,49.8 266,10.4 266.9,10.4 266.9,49.8 292.4,49.8 292.4,9.5 245.3,9.5 245.3,49.8 	"/>
	<rect x="266.9" y="141.9" class="st5" width="25.5" height="38.7"/>
	<rect x="320.6" y="141.9" class="st5" width="22.4" height="38.7"/>
	<rect x="295.5" y="50.6" class="st5" width="24.2" height="44.4"/>
	<rect x="295.5" y="141.9" class="st5" width="24.2" height="38.7"/>
	<rect x="295.5" y="98.2" class="st5" width="24.2" height="42.9"/>
</g>
<g>
	<rect x="144.1" y="50.6" class="st5" width="20.8" height="44.4"/>
	<rect x="165.7" y="98.2" class="st5" width="25.5" height="42.9"/>
	<polygon class="st5" points="194.3,49.8 218.5,49.8 218.5,10.4 219.4,10.4 219.4,49.8 241.8,49.8 241.8,9.5 194.3,9.5 	"/>
	<rect x="144.1" y="98.2" class="st5" width="20.8" height="42.9"/>
	<rect x="219.4" y="98.2" class="st5" width="22.4" height="42.9"/>
	<rect x="165.7" y="50.6" class="st5" width="25.5" height="44.4"/>
	<rect x="219.4" y="50.6" class="st5" width="22.4" height="44.4"/>
	<rect x="144.1" y="141.9" class="st5" width="20.8" height="38.7"/>
	<polygon class="st5" points="164.8,49.8 164.8,10.4 165.7,10.4 165.7,49.8 191.2,49.8 191.2,9.5 144.1,9.5 144.1,49.8 	"/>
	<rect x="165.7" y="141.9" class="st5" width="25.5" height="38.7"/>
	<rect x="219.4" y="141.9" class="st5" width="22.4" height="38.7"/>
	<rect x="194.3" y="50.6" class="st5" width="24.2" height="44.4"/>
	<rect x="194.3" y="141.9" class="st5" width="24.2" height="38.7"/>
	<rect x="194.3" y="98.2" class="st5" width="24.2" height="42.9"/>
</g>
<g>
	<path class="st7" d="M440,284.9c0,0.1-95.9,0.2-214.1,0.2c-118.3,0-214.1-0.1-214.1-0.2s95.8-0.2,214.1-0.2
		C344.1,284.8,440,284.8,440,284.9z"/>
</g>
<g>
	<g>
		<g>
			<g>
				<polygon class="st7" points="370.7,241.1 370.7,284.6 375.9,284.6 377.8,240.9 				"/>
				<polygon class="st7" points="285.8,240.9 288.3,284.6 293.2,284.6 293.2,241.1 				"/>
				<path class="st40" d="M367.9,244.3h-83.6c-3.6,0-6.5-2.9-6.5-6.5v-18.4c0-3.6,2.9-6.5,6.5-6.5h83.6c3.6,0,6.5,2.9,6.5,6.5v18.4
					C374.4,241.3,371.5,244.3,367.9,244.3z"/>
			</g>
			<path class="st6" d="M378.8,198.7c1.2-8.7,2.1-18.1-2.1-25.8c-4.4-8-14-12.6-23.1-11.8c-9.1,0.8-17.4,6.6-22.2,14.4
				c-4.8,7.8-6.2,17.4-5,26.4"/>
		</g>
		<g>
			<path class="st7" d="M334.7,233.2c0,0.1-11,0.2-24.6,0.2c-13.6,0-24.6-0.1-24.6-0.2c0-0.1,11-0.2,24.6-0.2
				C323.6,233,334.7,233.1,334.7,233.2z"/>
		</g>
		<g>
			<path class="st2" d="M335,233c0,0-2.1,1.8-4.7,3.9c-2.6,2.2-4.8,3.9-4.8,3.8c0,0,2.1-1.8,4.7-3.9C332.8,234.7,335,233,335,233z"
				/>
		</g>
		<g>
			<path class="st2" d="M325.6,222.8c0,0-6.6,4.7-14.7,10.5c-8.1,5.8-14.8,10.4-14.8,10.4c0,0,6.6-4.7,14.7-10.5
				C319,227.4,325.6,222.8,325.6,222.8z"/>
		</g>
		<g>
			<path class="st2" d="M303.2,222.3c0,0-4.3,3.2-9.7,7.1c-5.4,3.9-9.7,7-9.7,6.9c0,0,4.3-3.2,9.7-7.1
				C298.8,225.4,303.1,222.3,303.2,222.3z"/>
		</g>
		<g>
			<path class="st2" d="M293.2,215.5c0,0,0,0-0.1,0.1c-0.1,0.1-0.2,0.1-0.3,0.2c-0.3,0.2-0.7,0.4-1.1,0.6c-0.9,0.6-2.2,1.3-3.6,2.3
				c-1.4,0.9-2.6,1.9-3.4,2.6c-0.4,0.3-0.7,0.6-1,0.8c-0.1,0.1-0.2,0.2-0.3,0.2c-0.1,0-0.1,0.1-0.1,0.1c0,0,0,0,0.1-0.1
				c0.1-0.1,0.2-0.2,0.3-0.2c0.2-0.2,0.6-0.5,1-0.9c0.8-0.7,2-1.6,3.4-2.6c1.4-0.9,2.7-1.7,3.6-2.3c0.5-0.3,0.9-0.5,1.1-0.6
				c0.1-0.1,0.2-0.1,0.3-0.2C293.1,215.6,293.1,215.5,293.2,215.5z"/>
		</g>
	</g>
	<g>
		<path class="st2" d="M378.3,175.8c0,0-0.1,0.1-0.2,0.2c-0.2,0.1-0.3,0.3-0.6,0.5c-0.5,0.4-1.2,1-2.1,1.7c-1.8,1.4-4.4,3.3-7.3,5.3
			c-2.9,2-5.7,3.6-7.7,4.8c-1,0.6-1.8,1-2.4,1.3c-0.3,0.1-0.5,0.3-0.7,0.4c-0.2,0.1-0.2,0.1-0.2,0.1s0.1-0.1,0.2-0.1
			c0.2-0.1,0.4-0.2,0.6-0.4c0.6-0.4,1.4-0.8,2.4-1.4c2-1.2,4.7-2.8,7.6-4.8c2.9-2,5.5-3.9,7.3-5.3c0.9-0.7,1.6-1.2,2.2-1.7
			c0.2-0.2,0.4-0.3,0.6-0.5C378.2,175.9,378.3,175.8,378.3,175.8z"/>
	</g>
	<g>
		<path class="st7" d="M363.1,165.9c0,0,0.1,0,0.3,0.1c0.2,0.1,0.4,0.2,0.7,0.4c0.6,0.4,1.5,1.1,2.4,2.1c1.8,1.9,3.8,5.2,4.6,9.2
			c0.8,4,0.6,7.7,0.4,10.4c-0.1,1.3-0.2,2.4-0.3,3.1c0,0.3-0.1,0.6-0.1,0.8c0,0.2-0.1,0.3-0.1,0.3c0,0,0-0.4,0.1-1.2
			c0.1-0.7,0.1-1.8,0.2-3.1c0.1-2.6,0.3-6.3-0.5-10.3c-0.8-3.9-2.7-7.2-4.4-9.1C364.6,166.7,363.1,166,363.1,165.9z"/>
	</g>
	<g>
		<path class="st2" d="M372.5,167C372.5,167,372.5,167,372.5,167c-0.2,0.2-0.3,0.2-0.4,0.3c-0.2,0.2-0.6,0.5-1,0.8
			c-0.9,0.7-2.1,1.6-3.6,2.5c-1.4,0.9-2.8,1.7-3.7,2.2c-0.5,0.3-0.9,0.5-1.2,0.6c-0.1,0.1-0.2,0.1-0.3,0.2c-0.1,0-0.1,0-0.1,0
			c0,0,0,0,0.1-0.1c0.1-0.1,0.2-0.1,0.3-0.2c0.3-0.2,0.7-0.4,1.1-0.6c1-0.5,2.3-1.3,3.7-2.2c1.4-0.9,2.7-1.8,3.6-2.5
			c0.4-0.3,0.7-0.5,1.1-0.8c0.1-0.1,0.2-0.1,0.3-0.2C372.5,167,372.5,167,372.5,167z"/>
	</g>
	<g>
		<g>
			<g>
				<g>
					<g>
						<g>
							<path class="st40" d="M267.1,260l0.6,15.8c0,0-15.9,6-16,8.9l30.7-0.1l0-24.7L267.1,260z"/>
						</g>
					</g>
				</g>
				<g class="st45">
					<g>
						<g>
							<g>
								<path class="st3" d="M277.2,274.4c0.6,0.2,1,0.8,0.9,1.4c-0.1,0.6-0.8,1-1.4,0.9c-0.6-0.1-1.1-0.9-0.9-1.5
									c0.2-0.6,1-1,1.6-0.8"/>
							</g>
						</g>
					</g>
				</g>
				<g class="st45">
					<g>
						<g>
							<path class="st3" d="M282.4,284.6l-0.1-2.5l-29.4,1.1c0,0-1.4,0.6-1.2,1.6L282.4,284.6z"/>
						</g>
					</g>
				</g>
				<g>
					<g>
						<g>
							<g>
								<path class="st29" d="M267.3,275.7c0,0.2,0.8,0.2,1.5,0.7c0.8,0.5,1.1,1.1,1.3,1c0.1,0-0.1-0.9-1-1.5
									C268.1,275.3,267.2,275.5,267.3,275.7z"/>
							</g>
						</g>
					</g>
				</g>
				<g>
					<g>
						<g>
							<g>
								<path class="st29" d="M264,277c0,0.1,0.6,0.4,1.1,1c0.5,0.6,0.7,1.3,0.8,1.3c0.1,0,0.2-0.9-0.4-1.6
									C264.9,276.9,264,276.9,264,277z"/>
							</g>
						</g>
					</g>
				</g>
				<g>
					<g>
						<g>
							<g>
								<path class="st29" d="M262.2,280.9c0.1,0,0.3-0.7,0-1.5c-0.4-0.8-1.1-1.1-1.2-1c-0.1,0.1,0.4,0.6,0.7,1.2
									C262,280.2,262.1,280.9,262.2,280.9z"/>
							</g>
						</g>
					</g>
				</g>
				<g>
					<g>
						<g>
							<g>
								<path class="st29" d="M267.5,272c0.1,0.1,0.8-0.1,1.6,0c0.8,0,1.5,0.3,1.6,0.2c0.1-0.1-0.6-0.7-1.6-0.7
									C268.1,271.4,267.4,271.9,267.5,272z"/>
							</g>
						</g>
					</g>
				</g>
			</g>
			<g class="st12">
				<g>
					<g>
						<polygon points="267.2,263.1 267.4,266 282.4,265.7 282.5,263.2 						"/>
					</g>
				</g>
			</g>
			<g>
				<g>
					<g>
						<g>
							<path class="st29" d="M267.4,268.8c0,0.1,0.6,0.2,1.5,0c0.5-0.1,1-0.2,1.6-0.5c0.3-0.1,0.6-0.3,0.9-0.5
								c0.1-0.1,0.3-0.2,0.5-0.4c0.2-0.2,0.3-0.6,0.1-0.8c-0.2-0.2-0.4-0.3-0.7-0.3c-0.2,0-0.4,0-0.6,0.1c-0.3,0.1-0.7,0.2-1,0.3
								c-0.6,0.3-1.1,0.6-1.4,0.9c-0.7,0.7-0.9,1.2-0.9,1.3c0.1,0,0.4-0.4,1.1-1c0.4-0.3,0.8-0.6,1.4-0.8c0.3-0.1,0.6-0.2,0.9-0.3
								c0.3-0.1,0.6-0.1,0.7,0.1c0,0.1,0,0.1,0,0.2c-0.1,0.1-0.2,0.2-0.3,0.3c-0.3,0.2-0.5,0.3-0.8,0.5c-0.5,0.3-1,0.5-1.5,0.6
								C268,268.7,267.4,268.8,267.4,268.8z"/>
						</g>
					</g>
				</g>
			</g>
			<g>
				<g>
					<g>
						<g>
							<path class="st29" d="M267.6,269.1c0.1,0,0.3-0.5,0.4-1.5c0-0.5,0-1.1-0.2-1.7c-0.1-0.3-0.2-0.6-0.4-0.9
								c-0.2-0.3-0.4-0.7-1-0.8c-0.3,0-0.6,0.2-0.6,0.4c-0.1,0.2-0.1,0.4-0.2,0.6c-0.1,0.4,0,0.7,0,1c0.1,0.7,0.4,1.2,0.7,1.6
								c0.6,0.8,1.2,1,1.2,0.9c0-0.1-0.5-0.4-0.9-1.1c-0.2-0.4-0.4-0.9-0.5-1.4c0-0.3,0-0.6,0-0.9c0-0.3,0.2-0.6,0.3-0.6
								c0.2,0,0.4,0.2,0.5,0.5c0.2,0.3,0.3,0.6,0.4,0.8c0.2,0.6,0.3,1.1,0.3,1.5C267.7,268.5,267.6,269,267.6,269.1z"/>
						</g>
					</g>
				</g>
			</g>
		</g>
		<path class="st46" d="M310.6,191.9l-35.5-5.6c-3.5-0.6-7.1,0.4-9.8,2.7l0,0c-2.9,2.4-4.6,6.1-4.4,10l2.5,64.6h21.9v-50.2l21,0.4
			l16.7-14.7l12-2.1l9-5.5L310.6,191.9z"/>
		<g>
			<path class="st14" d="M285.3,200.7c0,0,0,0.1,0,0.2c0,0.1,0,0.3,0,0.5c0,0.4,0.1,1,0.1,1.8c0,1.6,0.1,3.9,0.1,6.7
				c0.1,5.7,0.1,13.5,0.2,22.2c0,8.7,0,16.5-0.1,22.2c0,2.8-0.1,5.1-0.1,6.7c0,0.8-0.1,1.4-0.1,1.8c0,0.2,0,0.3,0,0.5
				c0,0.1,0,0.2,0,0.2c0,0,0-0.1,0-0.2c0-0.1,0-0.3,0-0.5c0-0.4,0-1,0-1.8c0-1.6,0-3.9,0-6.7c0-5.7,0-13.6,0-22.2
				C285.3,215.1,285.3,202.5,285.3,200.7z"/>
		</g>
	</g>
	<g>
		<g>
			<g>
				<g>
					<g>
						<path class="st40" d="M317.8,265.8l8.5,13.3c0,0-10.7,13.1-9.4,15.8l26.5-15.6L331,258L317.8,265.8z"/>
					</g>
				</g>
			</g>
			<g class="st45">
				<g>
					<g>
						<g>
							<path class="st3" d="M333.8,273.2c0.6-0.2,1.3,0.2,1.5,0.8c0.2,0.6-0.2,1.3-0.8,1.5c-0.6,0.2-1.4-0.2-1.6-0.8
								c-0.1-0.6,0.4-1.4,1-1.4"/>
						</g>
					</g>
				</g>
			</g>
			<g class="st45">
				<g>
					<g>
						<path class="st3" d="M343.4,279.3l-1.3-2.1l-24.9,15.7c0,0-0.9,1.2-0.3,2L343.4,279.3z"/>
					</g>
				</g>
			</g>
			<g>
				<g>
					<g>
						<g>
							<path class="st29" d="M325.8,279.3c0.1,0.1,0.8-0.2,1.6-0.2c0.9,0,1.5,0.4,1.6,0.3c0.1-0.1-0.5-0.8-1.6-0.8
								C326.4,278.6,325.7,279.2,325.8,279.3z"/>
						</g>
					</g>
				</g>
			</g>
			<g>
				<g>
					<g>
						<g>
							<path class="st29" d="M323.7,282c0,0.1,0.7,0,1.5,0.3c0.8,0.3,1.2,0.8,1.4,0.7c0.1-0.1-0.2-0.9-1.2-1.2
								C324.4,281.5,323.6,281.9,323.7,282z"/>
						</g>
					</g>
				</g>
			</g>
			<g>
				<g>
					<g>
						<g>
							<path class="st29" d="M324.1,286.3c0.1,0-0.1-0.8-0.8-1.3c-0.7-0.5-1.5-0.4-1.5-0.3c0,0.1,0.6,0.3,1.2,0.7
								C323.6,285.8,323.9,286.4,324.1,286.3z"/>
						</g>
					</g>
				</g>
			</g>
			<g>
				<g>
					<g>
						<g>
							<path class="st29" d="M324.2,276c0.1,0.1,0.6-0.4,1.4-0.8c0.8-0.4,1.5-0.5,1.5-0.6c0-0.1-0.8-0.3-1.7,0.2
								C324.4,275.2,324.1,275.9,324.2,276z"/>
						</g>
					</g>
				</g>
			</g>
		</g>
		<g class="st12">
			<g>
				<g>
					<polygon points="319.5,268.5 321,270.8 333.9,263.1 332.7,260.9 					"/>
				</g>
			</g>
		</g>
		<g>
			<g>
				<g>
					<g>
						<path class="st29" d="M322.5,273.3c0,0.1,0.6-0.2,1.3-0.8c0.4-0.3,0.8-0.7,1.1-1.2c0.2-0.3,0.4-0.5,0.5-0.9
							c0.1-0.2,0.2-0.3,0.2-0.5c0.1-0.2-0.1-0.6-0.3-0.7c-0.3-0.1-0.5-0.1-0.7,0c-0.2,0.1-0.3,0.2-0.5,0.4c-0.3,0.2-0.5,0.5-0.7,0.8
							c-0.4,0.5-0.6,1.1-0.7,1.5c-0.3,0.9-0.2,1.5-0.1,1.5c0.1,0,0.1-0.6,0.5-1.4c0.2-0.4,0.4-0.9,0.8-1.4c0.2-0.2,0.4-0.5,0.6-0.7
							c0.2-0.2,0.5-0.4,0.6-0.3c0.1,0,0.1,0,0.1,0.2c0,0.1-0.1,0.3-0.2,0.4c-0.1,0.3-0.3,0.6-0.5,0.8c-0.3,0.5-0.7,0.9-1,1.2
							C323,272.9,322.5,273.2,322.5,273.3z"/>
					</g>
				</g>
			</g>
		</g>
		<g>
			<g>
				<g>
					<g>
						<path class="st29" d="M322.8,273.4c0.1,0,0-0.6-0.4-1.5c-0.2-0.4-0.6-0.9-1-1.3c-0.2-0.2-0.5-0.4-0.8-0.6
							c-0.3-0.2-0.7-0.4-1.2-0.2c-0.3,0.1-0.4,0.5-0.3,0.7c0,0.2,0.1,0.4,0.2,0.6c0.1,0.3,0.3,0.6,0.5,0.9c0.4,0.5,0.9,0.8,1.4,1
							c0.9,0.4,1.6,0.2,1.5,0.2c0-0.1-0.6-0.1-1.4-0.5c-0.4-0.2-0.8-0.5-1.2-1c-0.2-0.2-0.3-0.5-0.4-0.8c-0.1-0.3-0.2-0.6,0-0.6
							c0.1-0.1,0.5,0,0.7,0.2c0.3,0.2,0.5,0.3,0.8,0.5c0.4,0.4,0.8,0.8,1,1.2C322.6,272.8,322.7,273.4,322.8,273.4z"/>
					</g>
				</g>
			</g>
		</g>
	</g>
	<g>
		<g>
			<g>
				<g>
					<g>
						<path class="st38" d="M268.7,154.9l-10.3-5.2c-2.7-1.2-3.7-1.8-3.4-2.3c0.3-0.6,0.2-0.4,5.3,1c0,0-7.4-2.1-5.4-2.9
							c0.3-0.1,1.5,0,2.8,0.3c-1.9-0.6-2.6-1.3-2.5-1.8c0.2-0.8,4.6,0.2,6.6,0.7c-1.7-0.5-4.9-1.4-5.6-1.8c-0.9-0.6,0.3-1,1.4-1
							c1.3-0.1,8.6,0.6,10.7,0.7c1.5,0.1,1.5-1.2,1.5-1.2c-0.4-3.1,0.8-5.7,1.5-6.2c0.7-0.5,1.7,0.2,1.4,1.1
							c-0.2,0.8-0.2,2.1-0.1,3.1c0,0.8,0.2,1.7,0.5,2.4c0.4,0.9,0.7,1.6,1,2.3l8.4,8.3l-6.7,8.5L268.7,154.9z"/>
					</g>
				</g>
			</g>
		</g>
		<g>
			<g>
				<g>
					<g>
						<g>
							<g>
								<g>
									<path class="st19" d="M263,149.4c0,0.1-1.6-0.2-3.6-0.8c-1.9-0.6-3.5-1.2-3.4-1.3c0-0.1,1.6,0.2,3.6,0.8
										C261.5,148.7,263,149.3,263,149.4z"/>
								</g>
							</g>
						</g>
					</g>
				</g>
			</g>
		</g>
		<g>
			<g>
				<g>
					<g>
						<g>
							<g>
								<g>
									<path class="st19" d="M264.3,147.2c0,0.1-1.8-0.2-3.9-0.7c-2.1-0.5-3.8-1-3.7-1.1c0-0.1,1.8,0.2,3.9,0.7
										C262.7,146.6,264.4,147.1,264.3,147.2z"/>
								</g>
							</g>
						</g>
					</g>
				</g>
			</g>
		</g>
		<g>
			<g>
				<g>
					<g>
						<g>
							<g>
								<g>
									<path class="st19" d="M265.4,145.4c0,0.1-1.7-0.1-3.7-0.6c-2-0.4-3.6-0.9-3.6-1c0-0.1,1.7,0.1,3.7,0.6
										C263.8,144.8,265.4,145.2,265.4,145.4z"/>
								</g>
							</g>
						</g>
					</g>
				</g>
			</g>
		</g>
	</g>
	<g>
		<g>
			<g>
				<path d="M314.1,83.9c2.6-0.8,5.3,1.5,8,1c1.6-0.3,2.9-1.6,4.3-2.4c2.2-1.2,5.2-1.4,7.4-0.3c2.2,1.1,3.6,2.3,3.9,4.8
					c2-1.2,5.4,1.4,6.5,3.8c1.1,2.4,0.9,5,0.2,7.6c-1.1,4.5-3.1,8.8-5.9,12.5c-0.2,0.3-0.6,0.7-1,0.5c-0.3-0.1-0.3-0.4-0.4-0.7
					c-0.4-2.4-0.1-4.8,0.1-7.3c0.2-2.4,0.3-4.9-0.5-7.2c-0.8-2.3-2.6-4.4-5-4.9c-1.8-0.3-3.6,0.2-5.2,1.1c-1.6,0.9-2.9,2.1-4.4,3.1
					c-1.5,1-3.2,1.8-5,1.9c-1.8,0.1-3.7-0.8-4.5-2.4c-0.8-1.6,0.1-3.9,1.8-4.3c-1.6-0.1-3-1.5-3.2-3.2
					C311.4,86,312.5,84.4,314.1,83.9z"/>
			</g>
			<g>
				<g>
					<g>
						<g>
							<g>
								<g>
									<g>
										<g>
											<g>
												<g>
													<g>
														<g>
															<g>
																<g>
																	<g>
																		<path class="st38" d="M340.7,99.2l-2.6,27.1c-0.4,4.6-5.3,11.4-9.9,10.8l0,0c-4.3-0.6-6.7-8-6.3-12.3
																			c0.2-2,0.4-3.7,0.4-4c0,0-6.8-1.3-6.7-8.2c0.1-3.3,0.8-10.2,1.5-16.3c0.8-6.6,6.5-11.6,13.2-11.3l0.7,0
																			C338.2,85.6,341.6,92.1,340.7,99.2z"/>
																	</g>
																</g>
															</g>
														</g>
													</g>
												</g>
											</g>
										</g>
									</g>
									<g>
										<g>
											<g>
												<g>
													<g>
														<g>
															<g>
																<g>
																	<g>
																		<path class="st19" d="M322.4,120.7c0,0,4.3,0.5,9.1-2.2c0,0-2.3,4.9-9.1,4L322.4,120.7z"/>
																	</g>
																</g>
															</g>
														</g>
													</g>
												</g>
											</g>
										</g>
									</g>
								</g>
							</g>
						</g>
						<g>
							<g>
								<g>
									<g>
										<g>
											<g>
												<g>
													<g>
														<g>
															<g>
																<g>
																	<g>
																		<g>
																			<g>
																				<g>
																					<path class="st7" d="M319.1,100.9c0,0.5,0.4,1,0.9,1c0.5,0,1-0.3,1-0.8c0-0.5-0.4-1-0.9-1
																						C319.6,100,319.1,100.4,319.1,100.9z"/>
																				</g>
																			</g>
																		</g>
																	</g>
																</g>
															</g>
														</g>
													</g>
												</g>
												<g>
													<g>
														<g>
															<g>
																<g>
																	<g>
																		<g>
																			<g>
																				<g>
																					<g>
																						<path class="st7" d="M318.6,99.7c0.1,0.1,0.9-0.4,1.9-0.4c1.1,0,1.8,0.6,1.9,0.5c0.1-0.1-0.1-0.3-0.4-0.5
																							c-0.3-0.3-0.9-0.5-1.5-0.5c-0.7,0-1.2,0.2-1.5,0.4C318.6,99.4,318.5,99.6,318.6,99.7z"/>
																					</g>
																				</g>
																			</g>
																		</g>
																	</g>
																</g>
															</g>
														</g>
													</g>
												</g>
											</g>
											<g>
												<g>
													<g>
														<g>
															<g>
																<g>
																	<g>
																		<g>
																			<g>
																				<g>
																					<path class="st7" d="M329.4,101.6c0,0.5,0.4,1,0.9,1c0.5,0,1-0.3,1-0.8c0-0.5-0.4-1-0.9-1
																						C329.9,100.7,329.4,101.1,329.4,101.6z"/>
																				</g>
																			</g>
																		</g>
																	</g>
																</g>
															</g>
														</g>
													</g>
												</g>
												<g>
													<g>
														<g>
															<g>
																<g>
																	<g>
																		<g>
																			<g>
																				<g>
																					<g>
																						<path class="st7" d="M328.9,100.2c0.1,0.1,0.9-0.4,1.9-0.4c1.1,0,1.8,0.6,1.9,0.5c0.1-0.1-0.1-0.3-0.4-0.5
																							c-0.3-0.3-0.9-0.5-1.5-0.5c-0.7,0-1.2,0.2-1.5,0.4C329,99.9,328.9,100.2,328.9,100.2z"/>
																					</g>
																				</g>
																			</g>
																		</g>
																	</g>
																</g>
															</g>
														</g>
													</g>
												</g>
											</g>
											<g>
												<g>
													<g>
														<g>
															<g>
																<g>
																	<g>
																		<g>
																			<g>
																				<g>
																					<path class="st7" d="M324.8,107.9c0-0.1-0.6-0.2-1.7-0.4c-0.3,0-0.5-0.1-0.6-0.3c-0.1-0.2,0.1-0.5,0.2-0.8
																						c0.3-0.6,0.6-1.3,0.9-2c1.2-2.9,2.1-5.3,2-5.3c-0.1,0-1.2,2.3-2.4,5.1c-0.3,0.7-0.6,1.4-0.8,2
																						c-0.1,0.3-0.3,0.6-0.2,1.1c0.1,0.2,0.3,0.4,0.4,0.4c0.2,0.1,0.3,0.1,0.5,0.1C324.2,108,324.8,108,324.8,107.9z
																						"/>
																				</g>
																			</g>
																		</g>
																	</g>
																</g>
															</g>
														</g>
													</g>
												</g>
											</g>
											<g>
												<g>
													<g>
														<g>
															<g>
																<g>
																	<g>
																		<g>
																			<g>
																				<g>
																					<path class="st7" d="M327.9,108.8c-0.2,0-0.2,1.1-1.2,1.9c-1,0.8-2.2,0.6-2.2,0.8c0,0.1,0.3,0.2,0.8,0.3
																						c0.5,0,1.3-0.1,1.9-0.6c0.6-0.5,0.9-1.1,1-1.6C328.1,109.1,328,108.8,327.9,108.8z"/>
																				</g>
																			</g>
																		</g>
																	</g>
																</g>
															</g>
														</g>
													</g>
												</g>
											</g>
										</g>
									</g>
								</g>
								<g>
									<g>
										<g>
											<g>
												<g>
													<g>
														<g>
															<g>
																<g>
																	<path class="st7" d="M328.8,96.1c0.1,0.3,1.2,0.2,2.4,0.4c1.2,0.2,2.2,0.6,2.4,0.3c0.1-0.1-0.1-0.4-0.5-0.7
																		c-0.4-0.3-1-0.6-1.8-0.7c-0.7-0.1-1.4,0-1.9,0.2C329,95.7,328.8,95.9,328.8,96.1z"/>
																</g>
															</g>
														</g>
													</g>
												</g>
											</g>
										</g>
									</g>
								</g>
								<g>
									<g>
										<g>
											<g>
												<g>
													<g>
														<g>
															<g>
																<g>
																	<path class="st7" d="M319.1,96.6c0.2,0.2,0.9,0,1.8,0c0.9,0,1.6,0.2,1.8,0c0.1-0.1,0-0.4-0.3-0.6
																		c-0.3-0.2-0.8-0.4-1.4-0.4c-0.6,0-1.1,0.2-1.4,0.4C319.1,96.3,319,96.5,319.1,96.6z"/>
																</g>
															</g>
														</g>
													</g>
												</g>
											</g>
										</g>
									</g>
								</g>
							</g>
						</g>
					</g>
				</g>
			</g>
			<g>
				<g>
					<g>
						<g>
							<g>
								<g>
									<g>
										<g>
											<g>
												<g>
													<path class="st38" d="M340,104.2c0.1,0,4.8-1.2,4.5,3.5c-0.3,4.7-5,3.4-5,3.3C339.5,110.8,340,104.2,340,104.2z"/>
												</g>
											</g>
										</g>
									</g>
								</g>
							</g>
						</g>
					</g>
				</g>
				<g>
					<g>
						<g>
							<g>
								<g>
									<g>
										<g>
											<g>
												<g>
													<g>
														<path class="st19" d="M341.1,109.3c0,0,0.1,0.1,0.2,0.1c0.1,0.1,0.4,0.1,0.6,0.1c0.5-0.1,1-0.9,1.1-1.8
															c0-0.4,0-0.8-0.2-1.2c-0.1-0.4-0.3-0.6-0.6-0.7c-0.2-0.1-0.4,0.1-0.5,0.2c-0.1,0.1,0,0.2-0.1,0.2c0,0-0.1-0.1,0-0.3
															c0-0.1,0.1-0.2,0.2-0.3c0.1-0.1,0.3-0.1,0.5-0.1c0.4,0,0.7,0.4,0.8,0.8c0.2,0.4,0.2,0.8,0.2,1.3
															c-0.1,0.9-0.6,1.8-1.3,1.9c-0.3,0.1-0.6-0.1-0.7-0.2C341.1,109.4,341,109.3,341.1,109.3z"/>
													</g>
												</g>
											</g>
										</g>
									</g>
								</g>
							</g>
						</g>
					</g>
				</g>
			</g>
			<g>
				<g>
					<path d="M315.8,94.8c3,0.9,6.4,0.3,8.9-1.7c1.7-1.4,3.1-3.4,5.2-3.9c1.4-0.4,3,0,4.2,0.7c1.3,0.8,2.3,1.9,3.1,3.1
						c-1.5,3.4-0.7,7.4,0.1,11c0.1,0.4,0.2,0.8,0.5,1.1c0.5,0.4,1.4,0.1,1.9-0.3c0.8-0.8,1.1-1.9,1.4-3c0.5-2.5,0.7-5.1,0.2-7.6
						c-0.5-2.5-1.6-4.9-3.4-6.8c-2.2-2.3-5.4-3.5-8.6-3.6c-3.2-0.1-6.4,1-9,2.9c-1.2,0.9-2.3,1.9-3,3.2"/>
				</g>
			</g>
		</g>
		<g>
			<g>
				<path class="st14" d="M312,85.5c0,0,0,0.1,0,0.4c0.1,0.3,0.2,0.6,0.6,1c0.4,0.3,1,0.6,1.7,0.6c0.4,0,0.8,0,1.2,0
					c0.4-0.1,0.8-0.2,1.2-0.5c0.4-0.3,0.7-0.8,0.6-1.3c0-0.5-0.4-1-1-1.2c-0.3-0.1-0.5-0.2-0.8-0.1c-0.3,0-0.6,0.1-0.8,0.3
					c-0.5,0.4-0.7,1-0.8,1.6c0,0.6,0.2,1.3,0.7,1.8c0.4,0.5,1,0.8,1.7,1c1.3,0.4,2.7,0.2,4-0.3c1.3-0.5,2.5-1.2,3.5-2
					c1.1-0.7,2.1-1.4,3.2-1.9c1.1-0.5,2.2-0.7,3.3-0.7c1.1,0.1,2,0.4,2.8,0.8c1.6,0.9,2.5,2.1,3,2.9c0.3,0.4,0.4,0.8,0.6,1
					c0.1,0.2,0.2,0.4,0.2,0.4c0,0,0,0,0-0.1c0-0.1-0.1-0.2-0.1-0.3c-0.1-0.2-0.3-0.6-0.5-1c-0.5-0.9-1.4-2.1-3-3
					c-0.8-0.4-1.8-0.8-2.9-0.9c-1.1-0.1-2.3,0.2-3.4,0.7c-1.1,0.5-2.2,1.2-3.3,1.9c-1.1,0.7-2.2,1.5-3.5,1.9
					c-1.3,0.5-2.7,0.7-3.9,0.3c-0.6-0.2-1.2-0.5-1.6-1c-0.4-0.4-0.7-1-0.6-1.6c0-0.6,0.2-1.1,0.7-1.5c0.4-0.4,1-0.4,1.5-0.2
					c0.5,0.2,0.8,0.6,0.9,1.1c0,0.5-0.2,0.9-0.6,1.2c-0.3,0.3-0.7,0.4-1.1,0.5c-0.4,0.1-0.8,0.1-1.1,0c-0.7,0-1.3-0.3-1.7-0.6
					c-0.4-0.3-0.6-0.7-0.6-0.9C312,85.6,312.1,85.5,312,85.5z"/>
			</g>
		</g>
		<g>
			<g>
				<path class="st14" d="M345,94.9c0,0-0.5,0.2-1.4,0.3c-0.5,0-1,0-1.6-0.2c-0.6-0.2-1.2-0.5-1.7-0.9c-1.1-0.8-1.7-2-2-2.9
					c-0.3-0.9-0.2-1.5-0.3-1.5c0,0,0,0.1,0,0.4c0,0.3,0,0.6,0.1,1.1c0.2,0.9,0.8,2.2,2,3c0.6,0.4,1.2,0.7,1.8,0.9
					c0.6,0.2,1.2,0.2,1.6,0.2c0.5-0.1,0.8-0.2,1.1-0.3C344.9,95,345,94.9,345,94.9z"/>
			</g>
		</g>
		<g>
			<g>
				<path class="st14" d="M344.7,98.3c0,0-0.6,0.1-1.4,0c-0.9-0.1-2.1-0.4-3.2-1.2c-1.1-0.8-1.8-1.8-2.2-2.6
					c-0.4-0.8-0.4-1.4-0.5-1.4c0,0,0,0.1,0,0.4c0,0.2,0.1,0.6,0.3,1c0.3,0.8,1,2,2.2,2.8c1.1,0.8,2.4,1.1,3.3,1.1c0.5,0,0.8,0,1.1,0
					C344.5,98.4,344.7,98.3,344.7,98.3z"/>
			</g>
		</g>
		<g>
			<g>
				<path class="st19" d="M332.3,104.9c0.1,0,0.1,0,0.1-0.1c0-0.1,0-0.1-0.1-0.2c-0.1,0-0.1,0-0.1,0.1
					C332.2,104.8,332.2,104.8,332.3,104.9z"/>
			</g>
		</g>
		<g>
			<g>
				<path class="st19" d="M330.3,104.3c0.1,0,0.1,0,0.1-0.1c0-0.1,0-0.2-0.1-0.2c-0.1,0-0.1,0-0.1,0.1
					C330.2,104.2,330.2,104.3,330.3,104.3z"/>
			</g>
		</g>
		<g>
			<g>
				<path class="st19" d="M328.9,104.2c0.1,0,0.1-0.1,0.1-0.2c0-0.1,0-0.2-0.1-0.2c-0.1,0-0.1,0.1-0.1,0.2
					C328.8,104.1,328.9,104.2,328.9,104.2z"/>
			</g>
		</g>
		<g>
			<g>
				<path class="st19" d="M331.3,106.1c0.1,0,0.1,0,0.1-0.1c0,0,0-0.1-0.1-0.1c-0.1,0-0.1,0-0.1,0.1
					C331.1,106,331.2,106.1,331.3,106.1z"/>
			</g>
		</g>
		<g>
			<g>
				<path class="st19" d="M329.4,105.6c0.1,0,0.1,0,0.1-0.1c0-0.1,0-0.1-0.1-0.1c-0.1,0-0.1,0-0.1,0.1
					C329.3,105.5,329.4,105.6,329.4,105.6z"/>
			</g>
		</g>
		<g>
			<g>
				<path class="st19" d="M319.8,104.1c0.1,0,0.1,0,0.1-0.1c0-0.1,0-0.1-0.1-0.2c-0.1,0-0.1,0-0.1,0.1
					C319.7,104,319.8,104.1,319.8,104.1z"/>
			</g>
		</g>
		<g>
			<g>
				<path class="st19" d="M318.5,103.9c0.1,0,0.1,0,0.1-0.1c0-0.1,0-0.2-0.1-0.2c-0.1,0-0.1,0-0.1,0.1
					C318.4,103.8,318.4,103.9,318.5,103.9z"/>
			</g>
		</g>
		<g>
			<g>
				<path class="st19" d="M321,104.2c0.1,0,0.1,0,0.1-0.1c0-0.1,0-0.1-0.1-0.1c-0.1,0-0.1,0-0.1,0.1
					C320.9,104.1,321,104.2,321,104.2z"/>
			</g>
		</g>
		<g>
			<g>
				<path class="st19" d="M320,105.5c0.1,0,0.1,0,0.2-0.1c0-0.1,0-0.1,0-0.2c-0.1,0-0.1,0-0.2,0.1
					C319.9,105.4,319.9,105.5,320,105.5z"/>
			</g>
		</g>
		<g>
			<g>
				<path class="st19" d="M318.8,105.2c0.1,0,0.1-0.1,0.1-0.1c0-0.1-0.1-0.1-0.1-0.1c-0.1,0-0.1,0.1-0.1,0.1
					C318.7,105.2,318.8,105.3,318.8,105.2z"/>
			</g>
		</g>
	</g>
	<g>
		<path class="st47" d="M334.8,196.5c-0.6,0.1-37,4.4-42.8,7.6c-3.2,1.8-2.9,4.9-3.4,6.2c-1.9,5.2-0.3,10.4,2.4,15.3l26.7,46.6
			l17-11.4l-17-37.2l26.1-2.6c5.9-0.8,10.6-5.2,11.9-11.1l3.1-14.4L334.8,196.5z"/>
		<g>
			<path class="st14" d="M334.7,260.7c-0.1,0-5-10.5-10.9-23.4c-5.9-13-10.7-23.5-10.6-23.6s5,10.5,10.9,23.4
				C330.1,250.1,334.8,260.7,334.7,260.7z"/>
		</g>
		<g>
			<path class="st14" d="M334.8,198.7c0,0-0.1,0-0.2,0c-0.1,0-0.3,0-0.5,0c-0.5,0-1.1,0.1-1.9,0.2c-1.7,0.1-4.1,0.3-7.1,0.6
				c-6,0.5-14.2,1.1-23.3,2c-1.1,0.1-2.3,0.2-3.4,0.4c-0.5,0.1-1.1,0.1-1.6,0.2c-0.5,0.1-1,0.3-1.5,0.4c-2,0.7-3.7,1.9-5,3.4
				c-0.6,0.8-1.1,1.6-1.5,2.4c-0.4,0.8-0.6,1.7-0.8,2.6c-0.3,1.7-0.3,3.4-0.1,4.8c0.4,3,1.1,5.3,1.7,6.8c0.3,0.8,0.6,1.4,0.8,1.8
				c0.1,0.2,0.2,0.3,0.2,0.5c0,0.1,0.1,0.2,0.1,0.2c0,0,0,0-0.1-0.1c-0.1-0.1-0.1-0.2-0.2-0.4c-0.2-0.4-0.5-1-0.8-1.7
				c-0.6-1.5-1.4-3.9-1.8-6.8c-0.2-1.5-0.2-3.2,0.1-4.9c0.1-0.9,0.4-1.8,0.8-2.6c0.4-0.9,0.9-1.7,1.5-2.5c1.3-1.6,3.1-2.8,5.1-3.6
				c0.5-0.2,1-0.4,1.6-0.5c0.6-0.1,1.1-0.2,1.7-0.2c1.1-0.1,2.2-0.2,3.4-0.4c9.1-0.9,17.3-1.5,23.3-1.9c3-0.2,5.4-0.4,7.1-0.5
				c0.8,0,1.5-0.1,1.9-0.1c0.2,0,0.4,0,0.5,0C334.7,198.7,334.8,198.7,334.8,198.7z"/>
		</g>
	</g>
	<g>
		<path class="st35" d="M352.7,172.7l1.4-43.9l-13.8-3l-1.5-2.4l-9.3,6l-1.9,4.2l-2.3-4.8l-3.4-2.5l-1.5,3l-10.4,4.3
			c-1,0.4-1.8,1.1-2.2,2.1l-11.7,23.3l-20.7-14.4l-6.4,11.3l24,20.4c4.5,2.9,10.4,1.7,13.5-2.7l6.2-8.7l2.6,14.7l0.4,14.9l18.1,3.4
			l25.3-2.4L352.7,172.7z"/>
		<g class="st12">
			<path d="M332.7,197.7c8.8,0.9,17.8-1.4,25-6.4l-1.4-5L332.7,197.7z"/>
		</g>
		<path class="st35" d="M354.1,128.8c0,0-8.6,2.6-9.3,11.4c-0.7,8.7-1,33.7-1,33.7s-1.3,1-1,2c0.3,1-24.8,15.1-24.8,15.1l5,8.8
			c0,0,16-1.9,34-11.3c9.2-4.8,5.6-42.5,5.4-43C362.2,144.8,360,128.7,354.1,128.8z"/>
		<g>
			<path class="st7" d="M315.1,179.6c0,0,0-0.1-0.1-0.4c-0.1-0.3-0.1-0.6-0.2-1.1c-0.2-1-0.4-2.3-0.7-4c-0.3-1.7-0.7-3.7-1.1-5.9
				c-0.2-1.1-0.4-2.3-0.6-3.5c-0.2-1.2-0.3-2.5-0.5-3.8c-0.7-5.1-1.3-9.8-1.7-13.2c-0.2-1.7-0.4-3-0.5-4c0-0.4-0.1-0.8-0.1-1.1
				c0-0.2,0-0.4,0-0.4c0,0,0,0.1,0.1,0.4c0,0.3,0.1,0.6,0.2,1.1c0.1,1,0.3,2.3,0.6,4c0.5,3.4,1.1,8,1.8,13.2
				c0.2,1.3,0.3,2.5,0.5,3.8c0.2,1.2,0.4,2.4,0.6,3.5c0.4,2.2,0.7,4.2,1,5.9c0.3,1.6,0.5,3,0.6,4c0.1,0.4,0.1,0.8,0.2,1.1
				C315.1,179.5,315.2,179.6,315.1,179.6z"/>
		</g>
		<g>
			<path class="st7" d="M323,199.7c0,0,0,0-0.1-0.1c-0.1-0.1-0.2-0.3-0.3-0.4c-0.2-0.4-0.6-1-1-1.7c-0.9-1.5-2.2-3.7-3.7-6.4
				l-0.1-0.1l0.1,0c3.3-1.2,7.1-3.4,11.2-6.1c4.1-2.7,8.6-6,13.8-8.8l-0.1,0.2c-0.7-1.2,0.1-3,1.6-3.2l-0.1,0.1
				c0.1-0.6,0.2-1.3,0.3-2c0.8-6.2,0.9-12.1,0.7-17.5c-0.1-2.7-0.4-5.2-0.5-7.6c-0.1-2.4-0.2-4.7,0.1-6.7c0.3-2,0.9-3.8,1.6-5.3
				c0.7-1.5,1.6-2.6,2.5-3.4c0.8-0.8,1.6-1.3,2.1-1.5c0.3-0.1,0.5-0.2,0.6-0.3c0.1-0.1,0.2-0.1,0.2-0.1c0,0.1-1.2,0.4-2.9,2
				c-0.8,0.8-1.7,1.9-2.4,3.4c-0.7,1.4-1.3,3.2-1.5,5.2c-0.3,2-0.3,4.3-0.1,6.6c0.2,2.4,0.4,4.9,0.6,7.6c0.3,5.4,0.1,11.4-0.7,17.6
				c-0.1,0.7-0.2,1.4-0.3,2l0,0.1l-0.1,0c-1.2,0.1-1.9,1.7-1.4,2.7l0.1,0.1l-0.2,0.1c-5.2,2.8-9.7,6.1-13.8,8.7
				c-4.1,2.7-8,4.8-11.3,6l0.1-0.1c1.6,2.8,2.8,5,3.7,6.5c0.4,0.7,0.7,1.3,1,1.7c0.1,0.2,0.2,0.3,0.2,0.5
				C323,199.6,323,199.7,323,199.7z"/>
		</g>
		<g>
			<path class="st7" d="M347.5,180.5c-0.1,0-0.5-1.5-1.8-2.8c-1.3-1.3-2.8-1.8-2.8-1.9c0,0,0.4,0,1,0.3c0.6,0.2,1.3,0.7,2,1.4
				c0.7,0.7,1.1,1.5,1.3,2.1C347.5,180.1,347.5,180.5,347.5,180.5z"/>
		</g>
		<g>
			<path class="st7" d="M348.7,178.3c-0.1,0-0.5-1.5-1.8-2.9c-1.2-1.4-2.7-2-2.6-2.1c0-0.1,1.6,0.4,2.9,1.9
				C348.5,176.7,348.8,178.3,348.7,178.3z"/>
		</g>
		<g>
			<path class="st7" d="M357,188.4c0,0-0.1,0.1-0.3,0.2c-0.2,0.1-0.6,0.3-0.9,0.5c-0.8,0.4-2,0.9-3.5,1.6c-2.9,1.3-7,3-11.6,4.7
				c-4.6,1.7-8.9,2.9-12,3.6c-1.6,0.3-2.8,0.6-3.7,0.6c-0.4,0-0.8,0.1-1,0.1c-0.2,0-0.4,0-0.4,0c0,0,0.1,0,0.4-0.1
				c0.3,0,0.6-0.1,1-0.2c0.9-0.1,2.2-0.4,3.7-0.7c3.1-0.7,7.3-2,11.9-3.7c4.6-1.7,8.7-3.3,11.6-4.6c1.4-0.6,2.6-1.1,3.5-1.5
				c0.4-0.2,0.7-0.3,1-0.4C356.9,188.4,357,188.3,357,188.4z"/>
		</g>
		<g>
			<path class="st7" d="M324.7,128.8c0,0-0.1,0.1-0.2,0.3c-0.1,0.2-0.2,0.5-0.4,0.9c-0.3,0.8-0.5,2-0.7,3.3l-0.1,0.5l-0.3-0.4
				c0,0,0-0.1-0.1-0.1c-0.7-1.2-1.3-2.3-1.8-3c-0.5-0.7-0.9-1.1-0.9-1.2c0,0,0.5,0.3,1,1c0.6,0.7,1.2,1.8,1.9,3c0,0,0,0.1,0.1,0.1
				l-0.3,0.1c0.1-1.4,0.5-2.5,0.8-3.4c0.2-0.4,0.3-0.7,0.5-0.9C324.5,128.9,324.7,128.8,324.7,128.8z"/>
		</g>
		<g>
			<path class="st7" d="M338.8,127.1c0,0-0.7,0.5-1.9,1.5c-1.1,0.9-2.6,2.4-4,4.2c-0.6,0.7-1.1,1.5-1.5,2.2l-0.2,0.3l-0.1-0.3
				c-0.5-1.5-1-2.9-1.3-3.8c-0.3-0.9-0.5-1.5-0.4-1.5c0,0,0.3,0.5,0.6,1.4s0.8,2.2,1.4,3.8l-0.3,0c0.4-0.7,0.9-1.5,1.5-2.2
				c1.4-1.8,2.9-3.3,4.1-4.2c0.6-0.5,1.1-0.8,1.5-1C338.6,127.2,338.8,127.1,338.8,127.1z"/>
		</g>
		<g>
			<path class="st7" d="M329.4,175.1c0,0,0-0.1-0.1-0.4c0-0.3-0.1-0.7-0.1-1.1c-0.1-1-0.3-2.4-0.4-4.2c-0.3-3.6-0.7-8.5-1.1-14
				c-0.3-5.5-0.5-10.4-0.6-14c0-1.8-0.1-3.2-0.1-4.2c0-0.5,0-0.9,0-1.2c0-0.3,0-0.4,0-0.4c0,0,0,0.1,0,0.4c0,0.3,0,0.7,0.1,1.2
				c0,1,0.1,2.5,0.2,4.2c0.2,3.6,0.4,8.5,0.7,14c0.3,5.5,0.7,10.4,1,14c0.1,1.8,0.2,3.2,0.3,4.2c0,0.5,0.1,0.9,0.1,1.2
				C329.4,174.9,329.4,175.1,329.4,175.1z"/>
		</g>
		<g>
			<path class="st7" d="M342.1,164.2c0,0-0.2,0.3-0.6,0.7c-0.4,0.5-1,1.1-1.7,1.9c-1.5,1.6-3.6,3.6-6.1,5.7c-2.5,2.1-4.9,3.8-6.7,5
				c-0.9,0.6-1.6,1-2.1,1.4c-0.5,0.3-0.8,0.5-0.8,0.4c0,0,0.3-0.2,0.7-0.6c0.5-0.4,1.2-0.9,2.1-1.4c1.7-1.2,4.1-3,6.6-5.1
				c2.5-2.1,4.6-4.1,6.1-5.7c0.7-0.7,1.3-1.3,1.8-1.8C341.9,164.4,342.1,164.2,342.1,164.2z"/>
		</g>
		<g>
			<path class="st7" d="M327.3,185.5c-0.1,0-0.1-1.8-0.1-4.1c0-2.3,0.1-4.1,0.2-4.1c0.1,0,0.1,1.8,0.1,4.1
				C327.5,183.6,327.4,185.5,327.3,185.5z"/>
		</g>
		<g class="st12">
			<path d="M312.4,165.2c-0.2-4.6-0.9-9.1-1.7-13.6c-0.5,6.8-1.5,13.7-3.1,20.4L312.4,165.2z"/>
		</g>
		<g class="st12">
			<path d="M327.6,133.5c0.6-0.5,1.4-0.1,1.8,0.6c0.4,0.7,0.3,1.6,0.3,2.5c0,0.5,0,0.9,0.3,1.4c0.2,0.4,0.6,0.7,1.1,0.7
				c0.5,0,0.9-0.5,1.3-1c2.5-3.5,4.9-7.1,7.1-10.9c-3.6,1.4-5.9,4.8-8.2,8.3c-0.1,0-1.9-5.7-1.9-5.7
				C328.9,130.8,328.1,132.3,327.6,133.5"/>
		</g>
		<g class="st12">
			<path d="M320.2,129.3c1.3,3,3.1,5.9,5.2,8.4c0.1-2.1,0-4.2-0.5-6.2c0.6,0.4,1.9,1.6,2.6,2c0,0-1.4-3-2-4.2
				c-0.2-0.3-0.4-0.6-0.7-0.6c-0.4,0-0.6,0.5-0.7,0.8c-0.3,1.2-0.6,2.4-0.9,3.6c-0.6-1.6-1.6-3-2.9-4.1"/>
		</g>
		<g class="st12">
			<path d="M324.8,178.9c-0.3-2,0.5-4.1,2.1-5.3c1.2-0.9,2.8-1.3,4.1-2.3c2.1-1.6,3-4.7,5.3-5.9c0.9-0.5,2.2-0.5,2.6,0.4
				c0.4,0.8-0.3,1.7-0.9,2.4c-3.9,4.1-8.4,7.6-13.2,10.6"/>
		</g>
		<g class="st12">
			<path d="M343.1,176.1c1.2,1.2,1.9,2.8,1.9,4.4c0,0.5,0,1,0.1,1.5s0.4,0.9,0.9,1c0.6,0.1,1.3-0.5,1.4-1.1c0.1-0.7-0.1-1.3-0.4-1.9
				c-0.8-1.8-1.9-3.6-3.7-4.3"/>
		</g>
		<g class="st48">
			<path d="M295.9,158.7c1,1.2,1.8,4.2,1.7,5.7c-0.1,1.5-0.5,1.9-0.3,3.5c0,0.3-0.5,0.4-0.2,0.6c0.4,0.3,1,0,1.1-0.5
				c0.2-0.4,0-0.9-0.1-1.4c0,0.6,0.6,1,1.2,0.9c0.6-0.1,1-0.7,1.1-1.3c0.1-0.6,0-1.2-0.1-1.7c-0.3-1.3-0.6-2.6-1.3-3.8
				c-0.7-1.1-1.8-2.1-3.2-2.3"/>
		</g>
		<g>
			<path class="st7" d="M297.1,168.2c-0.1,0,0.5-2.2,0.1-4.9c-0.3-2.7-1.4-4.7-1.3-4.7c0,0,0.4,0.4,0.7,1.3c0.4,0.8,0.8,2,0.9,3.4
				c0.2,1.4,0.1,2.6-0.1,3.5C297.4,167.7,297.2,168.2,297.1,168.2z"/>
		</g>
	</g>
	<g>
		<path class="st29" d="M335.5,244.3c-2.7-12,1.9-32.5,10.4-41.3s21.6-13,33.6-10.7v52.6L335.5,244.3z"/>
		<g>
			<path class="st2" d="M379.3,222.1c0,0-8.4,5-18.7,11.1c-10.3,6.1-18.7,11.1-18.8,11c0,0,8.4-5,18.7-11.1
				C370.9,227,379.3,222.1,379.3,222.1z"/>
		</g>
		<g>
			<path class="st2" d="M379.3,204.2c0,0-0.1,0.1-0.4,0.3c-0.3,0.2-0.7,0.5-1.3,0.8c-1.1,0.7-2.7,1.7-4.7,2.9
				c-4,2.4-9.5,5.7-15.6,9.3c-6.1,3.6-11.7,6.9-15.7,9.2c-2,1.1-3.7,2.1-4.8,2.7c-0.6,0.3-1,0.5-1.3,0.7c-0.3,0.2-0.5,0.2-0.5,0.2
				s0.2-0.1,0.5-0.3c0.3-0.2,0.8-0.4,1.3-0.7c1.2-0.7,2.8-1.6,4.8-2.7c4-2.3,9.6-5.6,15.7-9.2c6.1-3.6,11.6-6.9,15.6-9.3
				c2-1.2,3.6-2.1,4.7-2.8c0.5-0.3,1-0.6,1.3-0.8C379.2,204.3,379.3,204.2,379.3,204.2z"/>
		</g>
		<g>
			<path class="st2" d="M373.6,192.6c0,0-0.1,0.1-0.3,0.2c-0.2,0.1-0.5,0.3-0.9,0.5c-0.8,0.5-2,1.1-3.4,1.9c-2.9,1.6-6.8,3.7-11.2,6
				c-8.4,4.5-14.4,7.6-15.9,8.4c0,0,0.1-0.1,0.3-0.2c0.2-0.1,0.5-0.3,0.9-0.5c0.8-0.5,2-1.1,3.4-1.9c2.9-1.6,6.8-3.7,11.2-6
				C366.2,196.5,372.1,193.4,373.6,192.6z"/>
		</g>
		<g>
			<path class="st7" d="M378.4,192.6c0,0-0.1,0-0.2,0c-0.2,0-0.4,0-0.6-0.1c-0.5,0-1.3-0.2-2.3-0.2c-2-0.1-4.9-0.2-8.5,0.3
				c-0.4,0.1-0.9,0.1-1.4,0.2c-0.5,0.1-0.9,0.2-1.4,0.3c-1,0.2-1.9,0.5-2.9,0.7c-2,0.6-4.1,1.4-6.2,2.5c-2.1,1.1-4.2,2.4-6.2,4.1
				c-2,1.7-3.8,3.6-5.4,5.8c-1.6,2.2-2.9,4.6-3.9,6.9c-1.1,2.3-1.9,4.7-2.6,6.9c-0.7,2.3-1.1,4.5-1.5,6.5c-0.3,2.1-0.6,4-0.7,5.8
				c-0.2,3.6-0.1,6.5,0.1,8.5c0.1,1,0.2,1.8,0.3,2.3c0,0.2,0.1,0.4,0.1,0.6c0,0.1,0,0.2,0,0.2c0,0,0-0.1,0-0.2
				c0-0.2-0.1-0.3-0.1-0.6c-0.1-0.5-0.2-1.3-0.3-2.3c-0.2-2-0.4-4.9-0.2-8.5c0.1-1.8,0.3-3.8,0.6-5.8c0.4-2.1,0.8-4.3,1.5-6.6
				c0.7-2.3,1.5-4.6,2.6-7c1.1-2.3,2.4-4.7,4-7c1.6-2.2,3.4-4.2,5.4-5.9c2-1.7,4.1-3,6.2-4.1c2.1-1.1,4.3-1.9,6.3-2.5
				c1-0.3,2-0.6,3-0.7c0.5-0.1,1-0.2,1.4-0.3c0.5-0.1,0.9-0.1,1.4-0.2c3.6-0.5,6.5-0.4,8.5-0.2c1,0.1,1.8,0.2,2.3,0.3
				c0.2,0,0.4,0.1,0.6,0.1C378.4,192.6,378.4,192.6,378.4,192.6z"/>
		</g>
	</g>
	<path class="st38" d="M318.5,191.8c0,0-2.8-0.1-4.2-0.6c-1.4-0.5-3.9-0.8-5.1-0.6c-1.2,0.2-4.2,1.4-6.2,1.9c-1.9,0.6-3.5,0.1-3.6,1
		c-0.1,0.9,0.9,2.1,2.9,2.1c0,0-2.1,0.7-1.8,1.2c0.4,0.5,1,1.6,1.9,1.6c0,0,0.1,1.7,1.7,1.9c0,0,0.6,1.4,3.2,2c0,0-0.2,1.2,1.8,1.6
		c2,0.4,13.5-4.8,13.5-4.8L318.5,191.8z"/>
</g>
<g>
	<g>
		<g>
			<g>
				<path d="M104,126.3c-1.5-1.5-4.2-0.2-5.5,1.5s-2.2,3.9-4.2,4.8c-2,0.9-4.5,0.1-6.2,1.5c-2.3,1.9-1,6.3-3.5,7.9
					c-1,0.7-2.3,0.6-3.3,1.2c-2.5,1.3-2.4,4.7-2.1,7.5c0.5,3.9,1.1,7.9,3.2,11.1c2.1,3.3,6.3,5.6,10,4.3c3.5-1.2,5.4-5,6.8-8.5
					c2-4.8,4-9.6,6-14.3c1.2-2.8,2.3-5.6,2.7-8.5c0.4-3-0.1-6.2-2-8.5"/>
			</g>
			<g>
				<g>
					<path d="M99.8,98.1c0-1.6,1.4-2.8,2.9-3.4c1.5-0.6,3.1-0.8,4.4-1.7c1.2-0.8,1.9-2,2.9-3c2.4-2.4,6.2-3.5,9.5-2.6
						c3.3,0.9,6,3.7,6.9,7c0.6,2.3,0.2,4.9-1.6,6.4c-2.1,1.7-5.1,1.4-7.8,0.8c-2.6-0.5-5.6-1.1-7.8,0.5c-1.3,0.9-2.1,2.5-2.9,3.9
						c-0.8,1.4-1.8,2.8-3.4,3.4c-1.5,0.5-3.6-0.4-3.7-2"/>
				</g>
			</g>
			<g>
				<path d="M99.9,99c0.2,1.3-0.8,2.5-1.7,3.4c-1,0.9-2,1.9-2.2,3.3c-0.2,1.5,0.9,3.1,0.6,4.6c-0.2,1-1,1.7-1.4,2.6
					c-0.6,1.2-0.7,2.7-0.3,4.1c0.4,1.3,1,4.3,1.9,5.4c2.6,2.9,6.7,5.3,10.4,6.2c3.8,0.9,7.6,0.9,11.5,0.6c3.1-0.2,6.8,0,9.4-4.4
					c1.4-2.2,2-5.2,2.8-7.7c0.6-2.2,1.2-4.5,0.5-6.7c-0.4-1.3-1.1-2.4-1.5-3.6c-0.5-1.6-0.3-3.3-0.5-4.9c-0.4-3.5-2.6-6.8-5.7-8.5
					c-3.1-1.7-7.1-1.8-10.3-0.3"/>
			</g>
		</g>
		<g>
			<g>
				<path class="st38" d="M127.9,104.4c-0.3-4.5-3.3-10-7.8-9.6l-14,3.6c-1.4,0.1-2.4,1.3-2.4,2.7l1.6,33.9c0,0-0.1,0-0.1,0
					c0,0,3.2,9.6,12.5,6.6c1.8-0.6,2.7-2.6,3-4.7l0.1,0c0-0.2,0-0.5,0-0.7c0.3-2.4,0.1-4.7,0.1-4.7l0,0c0-2.7,0-3.9,0-3.8
					c0,0,5.8-1,6.9-8.5C128.4,115.6,128.2,109.4,127.9,104.4z"/>
			</g>
			<g>
				<g>
					<g>
						<g>
							<g>
								<g>
									<g>
										<g>
											<g>
												<g>
													<g>
														<g>
															<g>
																<g>
																	<g>
																		<g>
																			<g>
																				<path class="st7" d="M127.2,108.9c0,0.5-0.4,0.9-0.9,1c-0.5,0-1-0.4-1-0.9c0-0.5,0.4-0.9,0.9-1
																					C126.7,108,127.1,108.4,127.2,108.9z"/>
																			</g>
																		</g>
																	</g>
																</g>
															</g>
														</g>
													</g>
												</g>
												<g>
													<g>
														<g>
															<g>
																<g>
																	<g>
																		<g>
																			<g>
																				<g>
																					<path class="st7" d="M126.6,107.6c-0.1,0.1-0.9-0.4-1.9-0.4c-1,0-1.8,0.5-1.9,0.4c-0.1-0.1,0.1-0.3,0.4-0.5
																						c0.3-0.2,0.9-0.5,1.5-0.5c0.6,0,1.2,0.2,1.5,0.5C126.5,107.3,126.6,107.6,126.6,107.6z"/>
																				</g>
																			</g>
																		</g>
																	</g>
																</g>
															</g>
														</g>
													</g>
												</g>
											</g>
											<g>
												<g>
													<g>
														<g>
															<g>
																<g>
																	<g>
																		<g>
																			<g>
																				<path class="st7" d="M116.6,109.3c0,0.5-0.4,0.9-0.9,1c-0.5,0-1-0.4-1-0.9c0-0.5,0.4-0.9,0.9-1
																					C116.2,108.4,116.6,108.8,116.6,109.3z"/>
																			</g>
																		</g>
																	</g>
																</g>
															</g>
														</g>
													</g>
												</g>
												<g>
													<g>
														<g>
															<g>
																<g>
																	<g>
																		<g>
																			<g>
																				<g>
																					<path class="st7" d="M116.4,107.8c-0.1,0.1-0.9-0.4-1.9-0.4c-1,0-1.8,0.5-1.9,0.4c-0.1-0.1,0.1-0.3,0.4-0.5
																						c0.3-0.2,0.9-0.5,1.5-0.5c0.6,0,1.2,0.2,1.5,0.5C116.3,107.6,116.4,107.8,116.4,107.8z"/>
																				</g>
																			</g>
																		</g>
																	</g>
																</g>
															</g>
														</g>
													</g>
												</g>
											</g>
											<g>
												<g>
													<g>
														<g>
															<g>
																<g>
																	<g>
																		<g>
																			<g>
																				<path class="st7" d="M120.1,115.5c0-0.1,0.6-0.2,1.7-0.3c0.3,0,0.5-0.1,0.6-0.3c0.1-0.2,0-0.5-0.2-0.8
																					c-0.3-0.6-0.5-1.3-0.8-2c-1.1-2.9-1.9-5.2-1.8-5.3c0.1,0,1.1,2.3,2.2,5.1c0.3,0.7,0.5,1.4,0.8,2
																					c0.1,0.3,0.3,0.6,0.1,1c-0.1,0.2-0.3,0.3-0.4,0.4c-0.2,0.1-0.3,0.1-0.5,0.1
																					C120.8,115.6,120.1,115.6,120.1,115.5z"/>
																			</g>
																		</g>
																	</g>
																</g>
															</g>
														</g>
													</g>
												</g>
											</g>
											<g>
												<g>
													<g>
														<g>
															<g>
																<g>
																	<g>
																		<g>
																			<path class="st19" d="M120.9,127.8c0,0-5.1,0.3-10.1-2.7c0,0,2.5,5.2,10,4.4L120.9,127.8z"/>
																		</g>
																	</g>
																</g>
															</g>
														</g>
													</g>
												</g>
											</g>
											<g>
												<g>
													<g>
														<g>
															<g>
																<g>
																	<g>
																		<g>
																			<path class="st19" d="M119.7,118c-0.4-0.5-1-0.8-1.7-0.7c-0.5,0-0.9,0.3-1.2,0.6c-0.3,0.4-0.3,0.9-0.1,1.2
																				c0.3,0.4,0.9,0.5,1.4,0.3c0.5-0.1,0.9-0.5,1.3-0.8c0.1-0.1,0.2-0.2,0.3-0.3C119.8,118.3,119.8,118.2,119.7,118"
																				/>
																		</g>
																	</g>
																</g>
															</g>
														</g>
													</g>
												</g>
											</g>
											<g>
												<g>
													<g>
														<g>
															<g>
																<g>
																	<g>
																		<g>
																			<g>
																				<path class="st7" d="M117.1,116.3c0.2,0,0.2,1.1,1.1,1.9c1,0.8,2.2,0.7,2.2,0.8c0,0.1-0.3,0.2-0.8,0.2
																					c-0.5,0-1.2-0.1-1.8-0.6c-0.6-0.5-0.8-1.1-0.9-1.6C116.9,116.5,117,116.3,117.1,116.3z"/>
																			</g>
																		</g>
																	</g>
																</g>
															</g>
														</g>
													</g>
												</g>
											</g>
										</g>
									</g>
								</g>
								<g>
									<g>
										<g>
											<g>
												<g>
													<g>
														<g>
															<g>
																<path class="st7" d="M116.8,106c-0.1,0.3-1.1,0.2-2.4,0.3c-1.2,0.1-2.2,0.5-2.4,0.2c-0.1-0.1,0.1-0.4,0.5-0.7
																	c0.4-0.3,1-0.5,1.8-0.6c0.7-0.1,1.4,0,1.8,0.2C116.6,105.7,116.9,105.9,116.8,106z"/>
															</g>
														</g>
													</g>
												</g>
											</g>
										</g>
									</g>
								</g>
								<g>
									<g>
										<g>
											<g>
												<g>
													<g>
														<g>
															<g>
																<path class="st7" d="M126.2,104.6c-0.2,0.2-0.9,0-1.8,0c-0.9,0-1.6,0.2-1.8-0.1c-0.1-0.1,0-0.4,0.4-0.6
																	c0.3-0.2,0.8-0.4,1.4-0.4c0.6,0,1.1,0.2,1.4,0.5C126.2,104.3,126.3,104.5,126.2,104.6z"/>
															</g>
														</g>
													</g>
												</g>
											</g>
										</g>
									</g>
								</g>
							</g>
						</g>
					</g>
				</g>
				<g>
					<g>
						<path d="M100.8,123.2c2.1,0.4,4.3-0.2,5.9-1.7c1.5-1.4,2.3-3.6,2.1-5.7c-0.2-1.8-1.2-3.7-0.6-5.5c0.8-2.3,4.1-3,4.9-5.3
							c0.5-1.3,0.1-2.9,0.6-4.2c0.5-1.2,1.8-1.9,3.1-2.4c1.3-0.5,2.6-0.8,3.7-1.6c1.1-0.8,1.7-2.4,1-3.5c-5.6,0.7-11.1,2-16.4,4
							c-1.2,0.5-2.5,1-3.2,2.1c-0.8,1.2-0.7,2.6-0.7,4c0.3,6.8,0.6,13.5,0.9,20.3"/>
					</g>
				</g>
			</g>
			<g>
				<g>
					<path class="st14" d="M101.3,125.8c0,0,0,0-0.1-0.1c-0.1-0.1-0.2-0.2-0.3-0.3c-0.3-0.2-0.7-0.6-1.2-1c-0.5-0.5-1.2-1.1-1.8-1.9
						c-0.6-0.8-1.2-1.8-1.4-3.1c-0.2-1.2-0.1-2.8,1-4c0.5-0.6,1.2-1,1.8-1.5c0.6-0.5,1.1-1.1,1.4-1.9c0.6-1.5,0.3-3.3,0.5-5.1
						c0.2-1.8,0.9-3.7,2.1-5.2c0.6-0.7,1.4-1.4,2.2-1.8c0.9-0.5,1.8-0.6,2.6-0.9c0.9-0.2,1.7-0.6,2.3-1.1c0.7-0.5,1.2-1.2,1.7-1.8
						c0.9-1.3,1.6-2.8,2.5-4c0.4-0.6,0.9-1.1,1.5-1.6c0.5-0.4,1.1-0.8,1.8-1c1.2-0.4,2.5-0.3,3.3,0.3c0.8,0.6,1.1,1.6,1.2,2.3
						c0,0.7-0.2,1.3-0.5,1.5c-0.1,0.1-0.2,0.2-0.3,0.3c-0.1,0.1-0.1,0.1-0.1,0.1c0,0,0,0,0.1-0.1c0.1-0.1,0.2-0.2,0.3-0.3
						c0.2-0.3,0.4-0.8,0.4-1.5c-0.1-0.7-0.4-1.5-1.2-2.1c-0.8-0.6-2-0.7-3.2-0.3c-0.6,0.2-1.2,0.5-1.7,0.9c-0.5,0.4-1,1-1.4,1.5
						c-0.9,1.2-1.6,2.6-2.5,4c-0.5,0.7-1,1.4-1.7,1.9c-0.7,0.6-1.5,1-2.4,1.2c-0.9,0.3-1.8,0.4-2.6,0.9c-0.8,0.4-1.5,1-2.1,1.7
						c-1.2,1.5-1.8,3.3-2.1,5c-0.2,1.8,0,3.6-0.6,5.2c-0.3,0.8-0.8,1.5-1.5,2c-0.6,0.5-1.3,0.9-1.7,1.5c-1,1.1-1.1,2.5-0.9,3.7
						c0.2,1.2,0.7,2.2,1.3,3c0.6,0.8,1.2,1.4,1.7,1.9c0.5,0.5,0.9,0.8,1.2,1.1C101.1,125.7,101.3,125.8,101.3,125.8z"/>
				</g>
			</g>
		</g>
	</g>
	<g>
		<polygon class="st8" points="147.9,178.1 159,157 153.6,151.2 139.6,164.7 143.5,175.5 		"/>
		<path class="st8" d="M122.4,137.6L122.4,137.6c4.6,1.7,8.4,5.1,10.5,9.6l14.3,30.4l12.3,5l-10.8,3.1l-9.7-7.1L122.4,137.6z"/>
		<path class="st2" d="M148.7,185.7l-5.2,4l-25.9-26.6l-14.8-26.7l1.7-5l11.4,4.8l3.3,4.2l1.7-5.8l0.7,1l1.2,3.2
			c0,0,11.2,9.3,13.7,16.8c2,6.2,1.4,19,2.6,22.4L148.7,185.7z"/>
		<path class="st8" d="M100.1,136c-0.2,0.5-11.1,4.9-11.6,8.7c-0.5,3.8,7.8,33.3,7.8,33.3l13.2,11.7h34l-10.8-20.2
			c-2.3-4.3-5.3-8.3-8.7-11.9c-3.2-3.2-7-7.2-9-9.6c-2.2-2.6-11.3-14.7-11.3-14.7L100.1,136z"/>
		<g>
			<path class="st7" d="M106.9,137.2c0,0,0.8,0.3,1.9,0.9s2.8,1.4,4.5,2.3c0.7,0.4,1.4,0.7,2,1l-0.2,0.2c-0.1-1.5,0-2.7,0.2-3.6
				c0.2-0.9,0.3-1.4,0.4-1.3c0,0-0.1,0.5-0.2,1.4c-0.1,0.9-0.2,2.1-0.1,3.5l0,0.3l-0.3-0.1c-0.6-0.3-1.3-0.7-2-1
				c-1.8-0.9-3.4-1.8-4.5-2.4C107.6,137.7,106.9,137.3,106.9,137.2z"/>
		</g>
		<g>
			<path class="st7" d="M122.6,138.8c0,0-0.2,0.4-0.7,1l-0.1,0.2l-0.1-0.2c-0.2-0.7-0.5-1.7-0.8-2.9c0-0.1,0-0.2-0.1-0.3l0.3,0
				c-1,1.9-1.6,3.5-1.7,3.5c-0.1,0,0.4-1.7,1.4-3.7l0.2-0.4l0.1,0.4c0,0.1,0,0.2,0.1,0.3c0.3,1.1,0.5,2.2,0.7,2.9l-0.2,0
				C122.2,139.1,122.6,138.8,122.6,138.8z"/>
		</g>
		<g>
			<path class="st7" d="M133.1,164.1c0,0-0.2-0.3-0.5-0.9c-0.4-0.6-0.8-1.4-1.4-2.4c-1.2-2-2.8-4.8-4.6-7.9
				c-1.8-3.1-3.5-5.8-4.8-7.8c-0.6-1-1.1-1.8-1.5-2.4c-0.3-0.6-0.5-0.9-0.5-0.9c0,0,0.2,0.3,0.6,0.8c0.4,0.5,0.9,1.3,1.5,2.3
				c1.3,2,3,4.7,4.9,7.8c1.8,3.1,3.4,5.9,4.5,8c0.6,1,1,1.9,1.3,2.5C132.9,163.8,133.1,164.1,133.1,164.1z"/>
		</g>
		<g class="st12">
			<path d="M127.8,184.7c2,0.3,4,0.7,6,0.3c2-0.4,3.9-1.6,4.5-3.5c0.2-0.6,0.3-1.3,0.7-1.7c0.8-0.7,2-0.3,3-0.4
				c1.1-0.1,2.1-0.9,2.7-1.9c0.6-1,0.9-2.1,1.1-3.3c0.1-0.6,0.3-1.1,0.2-1.7c-0.1-0.6-0.4-1.1-0.9-1.4c-0.8-0.4-1.7,0.2-2.3,0.7
				c-5.6,4-10.7,8.7-15.8,13.4"/>
		</g>
	</g>
	<g>
		<g>
			<g>
				<g>
					<g>
						<path d="M215.7,225.3l9.9,12.4c0,0,15.9-5.9,17.9-3.8l-23.3,20l-16.2-18.6L215.7,225.3z"/>
					</g>
				</g>
			</g>
			<g class="st45">
				<g>
					<g>
						<g>
							<path class="st3" d="M217.5,242.8c-0.3,0.5-0.2,1.3,0.3,1.7c0.5,0.4,1.3,0.2,1.6-0.3c0.4-0.5,0.2-1.4-0.3-1.7
								c-0.5-0.3-1.5-0.1-1.7,0.5"/>
						</g>
					</g>
				</g>
			</g>
			<g class="st45">
				<g>
					<g>
						<path class="st3" d="M220.2,253.9l-1.6-1.9l22.9-18.5c0,0,1.4-0.4,1.9,0.4L220.2,253.9z"/>
					</g>
				</g>
			</g>
			<g>
				<g>
					<g>
						<g>
							<path class="st7" d="M225.9,237.2c0.1,0.1-0.4,0.7-0.7,1.5c-0.3,0.8-0.1,1.6-0.3,1.6c-0.1,0.1-0.5-0.8-0.2-1.8
								C225,237.6,225.8,237.1,225.9,237.2z"/>
						</g>
					</g>
				</g>
			</g>
			<g>
				<g>
					<g>
						<g>
							<path class="st7" d="M229.2,236.1c0.1,0.1-0.2,0.7-0.2,1.5c0,0.8,0.4,1.4,0.2,1.5c-0.1,0.1-0.7-0.5-0.8-1.5
								C228.5,236.6,229.1,236,229.2,236.1z"/>
						</g>
					</g>
				</g>
			</g>
			<g>
				<g>
					<g>
						<g>
							<path class="st7" d="M233.1,237.9c-0.1,0.1-0.7-0.3-1-1.2c-0.2-0.9,0.1-1.6,0.2-1.5c0.1,0,0.1,0.7,0.3,1.4
								C232.8,237.3,233.2,237.8,233.1,237.9z"/>
						</g>
					</g>
				</g>
			</g>
			<g>
				<g>
					<g>
						<g>
							<path class="st7" d="M223.3,234.7c0,0.1-0.6,0.4-1.2,1c-0.6,0.6-0.9,1.2-1.1,1.2c-0.1,0,0-0.9,0.7-1.6
								C222.4,234.6,223.3,234.5,223.3,234.7z"/>
						</g>
					</g>
				</g>
			</g>
		</g>
		<g class="st12">
			<g>
				<g>
					<polygon points="217.7,227.7 219.4,229.9 207.9,239.7 206.2,237.8 					"/>
				</g>
			</g>
		</g>
		<g>
			<g>
				<g>
					<g>
						<path class="st7" d="M221.3,232.2c0,0-0.3,0.5-1.2,1c-0.4,0.2-0.9,0.5-1.5,0.7c-0.3,0.1-0.6,0.2-1,0.2c-0.2,0-0.4,0.1-0.6,0
							c-0.2,0-0.6-0.3-0.6-0.6c0-0.3,0.1-0.5,0.3-0.7c0.2-0.2,0.3-0.2,0.5-0.3c0.3-0.2,0.6-0.3,0.9-0.4c0.6-0.2,1.2-0.2,1.7-0.2
							c1,0,1.5,0.3,1.5,0.4c0,0.1-0.6,0-1.5,0c-0.5,0-1,0.1-1.5,0.3c-0.3,0.1-0.6,0.2-0.8,0.4c-0.3,0.1-0.5,0.3-0.5,0.5
							c0,0.1,0,0.1,0.1,0.1c0.1,0,0.3,0,0.4,0c0.3,0,0.6-0.1,0.9-0.2c0.6-0.1,1.1-0.3,1.5-0.5C220.8,232.5,221.2,232.1,221.3,232.2z
							"/>
					</g>
				</g>
			</g>
		</g>
		<g>
			<g>
				<g>
					<g>
						<path class="st7" d="M221.3,232.5c0,0.1-0.6-0.2-1.3-0.9c-0.3-0.3-0.7-0.8-0.9-1.4c-0.1-0.3-0.2-0.6-0.3-1
							c-0.1-0.3-0.2-0.8,0.2-1.2c0.2-0.2,0.6-0.2,0.8-0.1c0.2,0.1,0.3,0.2,0.5,0.3c0.3,0.2,0.5,0.5,0.7,0.8c0.4,0.6,0.5,1.1,0.5,1.6
							c0.1,1-0.3,1.5-0.3,1.5c-0.1,0,0.1-0.6,0-1.5c-0.1-0.4-0.2-0.9-0.6-1.4c-0.2-0.2-0.4-0.5-0.6-0.7c-0.2-0.2-0.5-0.3-0.6-0.2
							c-0.1,0.1-0.2,0.5-0.1,0.7c0.1,0.3,0.1,0.6,0.3,0.9c0.2,0.5,0.5,1,0.8,1.4C220.8,232.1,221.3,232.4,221.3,232.5z"/>
					</g>
				</g>
			</g>
		</g>
	</g>
	<g>
		<g>
			<g>
				<g>
					<g>
						<path d="M204.9,260.6l-0.6,15.8c0,0,15.9,5.9,16,8.9l-30.7-0.1l-0.1-24.7L204.9,260.6z"/>
					</g>
				</g>
			</g>
			<g class="st45">
				<g>
					<g>
						<g>
							<path class="st3" d="M194.8,275.1c-0.6,0.2-1,0.8-0.9,1.4c0.1,0.6,0.8,1,1.4,0.9c0.6-0.2,1.1-0.9,0.9-1.5
								c-0.2-0.6-1-1-1.6-0.7"/>
						</g>
					</g>
				</g>
			</g>
			<g class="st45">
				<g>
					<g>
						<path class="st3" d="M189.7,285.3l0.1-2.5l29.4,1c0,0,1.4,0.6,1.2,1.6L189.7,285.3z"/>
					</g>
				</g>
			</g>
			<g>
				<g>
					<g>
						<g>
							<path class="st7" d="M204.8,276.3c0,0.2-0.8,0.2-1.5,0.7c-0.8,0.5-1.1,1.1-1.3,1.1c-0.1,0,0.1-0.9,1-1.5
								C204,276,204.9,276.2,204.8,276.3z"/>
						</g>
					</g>
				</g>
			</g>
			<g>
				<g>
					<g>
						<g>
							<path class="st7" d="M208,277.6c0,0.1-0.6,0.4-1.1,1c-0.5,0.6-0.7,1.3-0.8,1.3c-0.1,0-0.2-0.9,0.4-1.6
								C207.2,277.6,208,277.5,208,277.6z"/>
						</g>
					</g>
				</g>
			</g>
			<g>
				<g>
					<g>
						<g>
							<path class="st7" d="M209.9,281.5c-0.1,0-0.3-0.7,0-1.5c0.4-0.8,1.1-1.1,1.2-1c0.1,0.1-0.4,0.6-0.7,1.2
								C210.1,280.9,210,281.5,209.9,281.5z"/>
						</g>
					</g>
				</g>
			</g>
			<g>
				<g>
					<g>
						<g>
							<path class="st7" d="M204.6,272.7c-0.1,0.1-0.8-0.1-1.6,0c-0.8,0-1.5,0.3-1.6,0.2c-0.1-0.1,0.6-0.7,1.6-0.7
								C203.9,272.1,204.6,272.6,204.6,272.7z"/>
						</g>
					</g>
				</g>
			</g>
		</g>
		<g class="st12">
			<g>
				<g>
					<polygon points="204.8,263.8 204.7,266.6 189.6,266.4 189.6,263.9 					"/>
				</g>
			</g>
		</g>
		<g>
			<g>
				<g>
					<g>
						<path class="st7" d="M204.6,269.5c0,0.1-0.6,0.2-1.5,0c-0.5-0.1-1-0.2-1.6-0.5c-0.3-0.1-0.6-0.3-0.9-0.5
							c-0.1-0.1-0.3-0.2-0.5-0.4c-0.2-0.2-0.3-0.6-0.1-0.8c0.2-0.2,0.4-0.3,0.7-0.3c0.2,0,0.4,0,0.6,0.1c0.3,0.1,0.7,0.2,1,0.3
							c0.6,0.3,1.1,0.6,1.4,0.9c0.7,0.7,1,1.2,0.9,1.3c-0.1,0-0.4-0.4-1.1-1c-0.4-0.3-0.8-0.6-1.4-0.8c-0.3-0.1-0.6-0.2-0.9-0.3
							c-0.3-0.1-0.6-0.1-0.7,0.1c0,0.1,0,0.1,0,0.2c0.1,0.1,0.2,0.2,0.3,0.3c0.3,0.2,0.5,0.3,0.8,0.5c0.5,0.3,1,0.4,1.5,0.6
							C204.1,269.4,204.6,269.4,204.6,269.5z"/>
					</g>
				</g>
			</g>
		</g>
		<g>
			<g>
				<g>
					<g>
						<path class="st7" d="M204.4,269.7c-0.1,0-0.3-0.5-0.4-1.5c0-0.5,0-1.1,0.2-1.7c0.1-0.3,0.2-0.6,0.4-0.9c0.2-0.3,0.4-0.7,1-0.8
							c0.3,0,0.6,0.2,0.6,0.4c0.1,0.2,0.1,0.4,0.2,0.6c0.1,0.4,0,0.7,0,1c-0.1,0.7-0.4,1.2-0.7,1.6c-0.6,0.8-1.2,1-1.2,0.9
							c0-0.1,0.5-0.4,0.9-1.1c0.2-0.4,0.4-0.9,0.5-1.4c0-0.3,0-0.6,0-0.9c0-0.3-0.2-0.6-0.3-0.6c-0.2,0-0.4,0.2-0.5,0.5
							c-0.2,0.3-0.3,0.6-0.4,0.8c-0.2,0.6-0.3,1.1-0.3,1.5C204.4,269.1,204.5,269.7,204.4,269.7z"/>
					</g>
				</g>
			</g>
		</g>
	</g>
	<g>
		<path class="st3" d="M154.6,168.2l16.4-37.9c0,0-9.5,11.9-14.5,11.8c0,0-5.5,12.1-9.1,21.8l-5.4,14L154.6,168.2z"/>
		<g>
			<path class="st7" d="M154.6,168.2c0,0-0.1,0.1-0.2,0.2c-0.2,0.1-0.4,0.3-0.6,0.5c-0.6,0.5-1.4,1.1-2.5,1.9
				c-2.2,1.7-5.3,4.1-9.2,7.1l-0.3,0.3l0.1-0.4c1.8-4.6,3.8-10,6.2-16.1c2.3-6.1,5.1-12.7,8.2-19.6l0-0.1l0.1,0
				c0.9,0,1.9-0.4,2.8-0.9c2.4-1.4,4.5-3.3,6.4-5.1c1.9-1.9,3.6-3.8,5.2-5.8l0.7-0.9l-0.5,1.1c-4.8,11-8.9,20.4-11.8,27.2
				c-1.5,3.3-2.6,6-3.5,7.9c-0.4,0.9-0.7,1.6-0.9,2.1c-0.1,0.2-0.2,0.4-0.2,0.5C154.7,168.1,154.6,168.2,154.6,168.2
				c0,0,0-0.1,0.1-0.2c0.1-0.1,0.1-0.3,0.2-0.6c0.2-0.5,0.5-1.2,0.9-2.1c0.8-1.9,1.9-4.5,3.4-7.9c2.9-6.8,7-16.2,11.7-27.2l0.3,0.2
				c-1.6,2-3.3,3.9-5.2,5.8c-1.9,1.9-4,3.8-6.5,5.2c-0.9,0.5-1.9,0.9-2.9,0.9l0.2-0.1c-3.1,6.9-5.9,13.5-8.3,19.6
				c-2.3,6.1-4.5,11.5-6.2,16.1l-0.2-0.1c3.9-3,7-5.3,9.2-7c1.1-0.8,1.9-1.4,2.5-1.9c0.3-0.2,0.5-0.4,0.7-0.5
				C154.6,168.3,154.6,168.2,154.6,168.2z"/>
		</g>
	</g>
	<polygon class="st7" points="89.5,253.1 94.4,285.3 99.3,285.3 96.9,253.2 	"/>
	<polygon class="st7" points="176.2,253.2 176.2,285.3 181.4,285.3 183.3,253.1 	"/>
	<g>
		<path class="st38" d="M140.9,161.4c0,0,2.1-4.8,3.2-5.4c1.1-0.7,7.9-3.8,7.9-3.8l-0.7,1.5l6.8-4c0,0,0.5,1.4-0.5,2.8
			c-1.1,1.4-0.7,1.3-0.7,1.3s1.1,0.7,0.6,1.7c-0.6,1-1.5,2.3-1.5,2.3s1,1.3,0.6,2.5c0,0,0.4,1.1,0.2,2.5c-0.2,1.5-2.9,4.2-2.9,4.2
			l-13.1,6.3l-5.3-9L140.9,161.4z"/>
		<path class="st8" d="M111.9,153.8l7.9,16.8l17.5-7.6c0,0,7.3,4.2,6.2,8.9l-15.7,12.9c-3,2.4-6.8,3.6-10.7,3.1h0
			c-4.1-0.5-7.8-2.8-10.1-6.3l-11.4-17.3l-6.4-10.4c-2-3.3-2-7.6,0.3-10.8c0.6-0.9,1.4-1.6,2.3-2.1
			C94.6,139.2,103.1,138.5,111.9,153.8z"/>
		<g>
			<path class="st19" d="M143.8,171.9c0,0,0.1,0,0.2-0.1c0.1-0.1,0.3-0.2,0.5-0.3c0.5-0.2,1.1-0.6,2-1c1.7-0.9,4.2-2.1,7.2-3.6l0,0
				c0.8-0.8,1.6-1.8,2.2-2.8c0.3-0.5,0.6-1.1,0.6-1.8c0.1-0.6,0-1.3-0.2-2l0-0.1l0,0c0.3-0.7-0.1-1.6-0.6-2.3l-0.1-0.1l0.1-0.1
				c0.5-0.6,0.9-1.2,1.3-1.9c0.2-0.3,0.4-0.7,0.3-1c-0.1-0.3-0.3-0.6-0.6-0.8l0.1,0c-0.1,0-0.2,0-0.3-0.1c0-0.1,0-0.1,0-0.2
				c0-0.1,0-0.1,0-0.1c0-0.1,0.1-0.1,0.1-0.2c0.1-0.1,0.2-0.3,0.2-0.4c0.2-0.3,0.4-0.5,0.5-0.8c0.3-0.5,0.5-1.1,0.5-1.7
				c0-0.3,0-0.6-0.1-0.8l0.2,0.1c-2.4,1.4-4.6,2.8-6.8,4l-0.4,0.3l0.2-0.5c0.2-0.5,0.5-1,0.7-1.5l0.2,0.2c-2.9,1.3-5.6,2.5-7.8,3.7
				c-0.5,0.3-0.8,0.9-1.1,1.3c-0.3,0.5-0.6,1-0.8,1.5c-0.5,0.9-0.9,1.8-1.3,2.6l0,0l0,0c-1.2,0.6-2.2,1.1-2.9,1.4
				c-0.3,0.2-0.6,0.3-0.8,0.4c-0.2,0.1-0.3,0.1-0.3,0.1c0,0,0.1-0.1,0.2-0.2c0.2-0.1,0.4-0.2,0.7-0.4c0.7-0.4,1.6-0.9,2.8-1.5l0,0
				c0.3-0.8,0.7-1.7,1.2-2.6c0.2-0.5,0.5-1,0.8-1.5c0.2-0.3,0.3-0.5,0.5-0.8c0.2-0.2,0.4-0.5,0.7-0.7c2.3-1.2,4.9-2.4,7.8-3.8
				l0.4-0.2l-0.2,0.4c-0.2,0.5-0.5,1-0.7,1.5l-0.2-0.2c2.1-1.3,4.4-2.6,6.8-4l0.2-0.1l0.1,0.2c0.1,0.3,0.1,0.6,0.1,0.9
				c0,0.7-0.2,1.3-0.5,1.9c-0.2,0.3-0.4,0.5-0.5,0.8c-0.1,0.1-0.2,0.2-0.2,0.4c0,0.1-0.1,0.1-0.1,0.2c0,0,0,0.1,0,0.1c0,0,0,0,0,0
				c0,0,0,0-0.1,0c0,0,0,0-0.1,0c0,0,0,0,0,0c0,0,0,0,0,0v0l0,0l0,0c0,0.1,0-0.1,0-0.1l0,0l0.1,0c0.4,0.2,0.7,0.6,0.8,1.1
				c0,0.2,0,0.5-0.1,0.7c-0.1,0.2-0.2,0.4-0.3,0.5c-0.4,0.7-0.9,1.3-1.3,1.9l0-0.2c0.3,0.4,0.5,0.8,0.7,1.3c0.1,0.4,0.1,0.9,0,1.4
				l0-0.1c0.2,0.7,0.3,1.4,0.2,2.1c0,0.3-0.1,0.7-0.2,1c-0.1,0.3-0.3,0.6-0.5,0.9c-0.7,1.1-1.5,2-2.3,2.9l0,0l0,0
				c-3,1.4-5.5,2.6-7.3,3.5c-0.8,0.4-1.5,0.7-2,0.9c-0.2,0.1-0.4,0.2-0.5,0.2C143.9,171.9,143.8,171.9,143.8,171.9z"/>
		</g>
		<g>
			<path class="st19" d="M151.7,153.4c0,0.1-1.2,0.9-2.7,1.9c-1.6,1-2.9,1.7-2.9,1.6c0-0.1,1.2-0.9,2.7-1.9
				C150.4,154.1,151.7,153.4,151.7,153.4z"/>
		</g>
		<g>
			<path class="st19" d="M157,153.3c0.1,0.1-1,1.3-2.5,2.6c-1.4,1.4-2.6,2.5-2.7,2.4c-0.1-0.1,1-1.2,2.5-2.6
				C155.7,154.3,156.9,153.2,157,153.3z"/>
		</g>
		<g>
			<path class="st19" d="M156.3,157.3c0.1,0.1-0.4,0.8-1.2,1.6c-0.7,0.8-1.3,1.5-1.4,1.4c-0.1-0.1,0.4-0.8,1.2-1.6
				C155.6,157.9,156.2,157.3,156.3,157.3z"/>
		</g>
		<g>
			<path class="st19" d="M156.5,160.1c0.1,0.1-0.2,0.5-0.6,1c-0.4,0.5-0.7,1-0.8,0.9c-0.1,0,0.1-0.6,0.5-1.1
				C156,160.4,156.5,160,156.5,160.1z"/>
		</g>
		<g>
			<path class="st7" d="M125.1,186.5C125.1,186.4,125.1,186.4,125.1,186.5c0.1-0.1,0.2-0.2,0.3-0.3c0.2-0.2,0.6-0.5,1-0.8
				c0.9-0.7,2.2-1.7,3.8-3c3.3-2.6,7.9-6.2,13.5-10.6l-0.1,0.1c0-0.9-0.2-1.7-0.5-2.6c-0.4-0.8-0.9-1.6-1.5-2.4
				c-1.2-1.5-2.8-2.8-4.5-3.8l0.1,0c-2.9,1.3-5.9,2.6-9,3.9c-2.9,1.3-5.7,2.5-8.4,3.7l-0.1,0.1l-0.1-0.1c-2.3-4.6-4.5-8.9-6.6-12.6
				c-1.1-1.9-2.1-3.6-3.2-5.2c-1-1.6-1.9-3.1-2.9-4.4c-1.8-2.6-3.9-4.2-5.4-5c-0.4-0.2-0.7-0.4-1-0.5c-0.3-0.2-0.6-0.3-0.8-0.4
				c-0.2-0.1-0.4-0.2-0.5-0.2c-0.1,0-0.2-0.1-0.2-0.1c0,0,0.9,0.3,2.5,1.1c0.8,0.4,1.7,1,2.7,1.8c1,0.8,1.9,1.9,2.9,3.2
				c1,1.3,1.9,2.8,2.9,4.4c1,1.6,2.1,3.3,3.2,5.2c2.2,3.7,4.4,8,6.7,12.6l-0.2-0.1c2.7-1.2,5.5-2.4,8.4-3.7c3.1-1.4,6.2-2.7,9.1-3.9
				l0.1,0l0.1,0c1.8,1.1,3.3,2.4,4.5,3.9c0.6,0.8,1.1,1.6,1.5,2.4c0.4,0.9,0.5,1.8,0.5,2.7l0,0.1l-0.1,0
				c-5.6,4.3-10.3,7.9-13.5,10.5c-1.6,1.3-2.9,2.2-3.8,2.9c-0.4,0.3-0.8,0.6-1,0.8C125.3,186.3,125.2,186.3,125.1,186.5
				C125.1,186.4,125.1,186.5,125.1,186.5z"/>
		</g>
		<g>
			<path class="st7" d="M118.7,175.9c-0.1,0,0.4-1.2,0.7-2.8c0.3-1.6,0.3-2.8,0.4-2.9c0.1,0,0.3,1.3,0,2.9
				C119.4,174.7,118.8,175.9,118.7,175.9z"/>
		</g>
	</g>
	<g>
		<polygon class="st8" points="190.2,189.7 219,228 205.5,239.6 191.6,221.4 		"/>
		<path class="st8" d="M129.1,191.5c0,0,46.4-14.1,50.6-13.9c4.2,0.2,12.3,15.5,12.3,15.5l-13-0.5l-16.5,25.1l-26.6-1.2L129.1,191.5
			z"/>
		<g>
			<path class="st7" d="M167,180.4c0,0.1-4.7,1.6-10.6,3.3c-5.9,1.8-10.7,3.1-10.7,3c0-0.1,4.7-1.6,10.6-3.3
				C162.2,181.6,167,180.3,167,180.4z"/>
		</g>
		<path class="st8" d="M177.8,192.4h13l0,0c6.5,0,12.3,4.1,14.4,10.2l0,0c1,2.9,1.5,5.9,1.3,9l-1,53h-17.5l-0.3-16.9l-2.2-32.2
			l-15.2,0.6l-8.6-0.5L177.8,192.4z"/>
		<g>
			<path class="st7" d="M178.2,192.1c0,0-0.1,0.4-0.2,1.1c-0.2,0.7-0.5,1.7-0.9,3c-0.5,1.2-1.1,2.7-1.9,4.2
				c-0.8,1.5-1.9,3.1-3.2,4.7c-2.5,3.1-5.2,5.6-7.1,7.5c-0.9,0.9-1.7,1.6-2.2,2.2c-0.5,0.5-0.8,0.8-0.9,0.8c0,0,0.3-0.3,0.8-0.9
				c0.5-0.5,1.2-1.3,2.2-2.2c1.8-1.9,4.5-4.4,7-7.5c2.5-3.1,4.2-6.4,5.1-8.8c0.5-1.2,0.8-2.2,1-2.9
				C178,192.5,178.2,192.1,178.2,192.1z"/>
		</g>
		<g>
			<path class="st7" d="M194.1,192.7c0,0.1-0.9,0-2.4-0.1c-1.5-0.1-3.5-0.1-5.7-0.1c-2.2,0-4.2,0.2-5.7,0.3
				c-1.5,0.1-2.4,0.2-2.4,0.1c0,0,0.2-0.1,0.6-0.1c0.4-0.1,1-0.1,1.7-0.2c1.5-0.2,3.5-0.3,5.7-0.4c2.2,0,4.3,0,5.7,0.2
				c0.7,0.1,1.3,0.1,1.7,0.2C193.9,192.7,194.1,192.7,194.1,192.7z"/>
		</g>
		<g>
			<path class="st7" d="M188,254.9c0,0,0-0.2,0-0.4c0-0.3,0-0.7-0.1-1.3c-0.1-1.1-0.1-2.7-0.2-4.7c-0.2-3.9-0.4-9.4-0.8-15.4
				c-0.4-6-0.8-11.4-1.1-15.3c-0.2-1.9-0.3-3.5-0.4-4.7c0-0.5-0.1-0.9-0.1-1.3c0-0.3,0-0.4,0-0.4s0,0.1,0.1,0.4
				c0,0.3,0.1,0.7,0.2,1.3c0.1,1.1,0.3,2.7,0.5,4.6c0.4,3.9,0.9,9.3,1.2,15.3c0.4,6,0.6,11.4,0.7,15.4c0,1.9,0.1,3.5,0.1,4.7
				c0,0.5,0,0.9,0,1.3C188,254.7,188,254.9,188,254.9z"/>
		</g>
		<g>
			<path class="st7" d="M206.6,209.6c0.1,0,0,12.1-0.1,27.1c-0.2,15-0.4,27.1-0.5,27.1c-0.1,0,0-12.1,0.1-27.1
				C206.3,221.7,206.5,209.6,206.6,209.6z"/>
		</g>
		<g>
			<path class="st7" d="M192.3,207.6c0,0.1-1.8,0.6-3.7,1.8c-2,1.2-3.2,2.6-3.3,2.5c0,0,0.2-0.4,0.8-1c0.5-0.5,1.3-1.2,2.3-1.9
				c1-0.6,2-1,2.7-1.2C191.8,207.6,192.3,207.6,192.3,207.6z"/>
		</g>
		<g class="st12">
			<path d="M161.8,215.6c3.5,0.7,7.4-0.4,10.4-2.4c3-1.9,5.3-5.1,6.1-8.6c0.4-1.6,0.5-3.2,0.9-4.8c0.4-1.6,1.1-3.1,2.4-4.1
				c1.5-1.1,5.1-1.9,6.2-3.4c0-0.2-4.3,0.3-5.8,0.4c-1.6,0.1-4.2,0.5-4.2,0.3c0,0-1.1,3.8-1.5,4.6
				C173.2,203.3,166.2,211.5,161.8,215.6"/>
		</g>
	</g>
	<g>
		<path class="st14" d="M88.6,153.4c0,0-6.9,0.3-9,3.2c-3.7,5.1-1.6,9.5-1.8,11c-0.2,1.5,11.7,85.4,11.7,85.4h4.9l88.9,0.8l4.3-10.4
			l-2.1-28l-23.8,0.1c0,0-9.7-27.9-18.2-29.8c-5.8-1.3-19.3-0.8-27.4-0.4c-4.1,0.2-7.9-1.8-10.1-5.2L88.6,153.4z"/>
		<g>
			<path class="st7" d="M167.4,249.8c0,0-0.5,0.1-1.4,0.1c-0.9,0-2.3,0.1-4.1,0.1c-3.6,0-8.8,0.1-15.4,0.1c-13,0-31.2-0.1-51.7-0.3
				l-0.1,0l0-0.1c-0.4-1.8-0.7-3.6-1.1-5.4c-0.4-1.8-0.7-3.7-1.1-5.6c-4.5-22.8-7.1-43.6-8.5-58.7c-0.7-7.6-1.1-13.7-1.4-17.9
				c-0.1-2.1-0.2-3.8-0.3-4.9c0-0.6,0-1-0.1-1.3c0-0.3,0-0.4,0-0.4s0,0.1,0,0.4c0,0.3,0.1,0.7,0.1,1.3c0.1,1.1,0.2,2.8,0.3,4.9
				c0.3,4.2,0.8,10.4,1.5,17.9c1.5,15.1,4.1,35.9,8.6,58.7c0.4,1.9,0.8,3.8,1.1,5.6c0.4,1.8,0.8,3.6,1.1,5.4l-0.2-0.1
				c20.5,0.2,38.7,0.3,51.7,0.4c6.5,0,11.7,0,15.4,0c1.8,0,3.2,0,4.1,0c0.5,0,0.8,0,1.1,0C167.3,249.8,167.4,249.8,167.4,249.8z"/>
		</g>
		<g>
			<path class="st7" d="M166.5,253.7c0,0,0-0.1,0-0.4c0-0.3,0.1-0.7,0.2-1.1c0.1-0.5,0.2-1.1,0.3-1.8c0.1-0.7,0.2-1.5,0.3-2.4
				c0.1-0.9,0.2-1.9,0.2-2.9c0.1-1,0.1-2.2,0.1-3.3c0-2.3-0.1-4.9-0.4-7.6c-0.3-2.7-0.8-5.2-1.3-7.5c-0.5-2.3-1.1-4.3-1.7-6
				c-0.3-0.9-0.5-1.6-0.8-2.3c-0.2-0.7-0.4-1.2-0.6-1.7c-0.2-0.4-0.3-0.8-0.4-1.1c-0.1-0.2-0.1-0.4-0.1-0.4c0,0,0.1,0.1,0.2,0.4
				c0.1,0.3,0.3,0.6,0.5,1.1c0.2,0.5,0.4,1,0.7,1.7c0.2,0.7,0.5,1.4,0.8,2.3c0.6,1.7,1.2,3.7,1.7,6c0.5,2.3,1,4.8,1.3,7.5
				c0.3,2.7,0.4,5.3,0.4,7.7c0,1.2,0,2.3-0.1,3.3c0,1-0.2,2-0.2,2.9c-0.1,0.9-0.2,1.7-0.3,2.4c-0.1,0.7-0.2,1.3-0.3,1.8
				c-0.1,0.5-0.2,0.8-0.2,1.1C166.5,253.6,166.5,253.7,166.5,253.7z"/>
		</g>
		<g>
			<path class="st7" d="M101.3,193.6c0,0,0.1-0.1,0.4-0.3c0.3-0.2,0.6-0.5,1.1-0.8c0.2-0.2,0.5-0.4,0.8-0.6c0.3-0.2,0.6-0.4,1-0.6
				c0.7-0.4,1.5-1,2.5-1.4c0.5-0.2,1-0.5,1.5-0.7c0.5-0.3,1.1-0.4,1.7-0.7c0.6-0.2,1.2-0.5,1.8-0.7c0.6-0.2,1.3-0.4,1.9-0.6
				c2.7-0.8,5.6-1.5,8.8-1.8c3.2-0.4,6.2-0.6,9-0.5c1.4,0,2.7,0.1,3.9,0.1c1.2,0.1,2.4,0.2,3.4,0.3c2.1,0.3,3.7,0.6,4.9,0.9
				c0.5,0.1,1,0.3,1.3,0.4c0.3,0.1,0.4,0.1,0.4,0.1s-0.2,0-0.5-0.1c-0.3-0.1-0.8-0.2-1.3-0.3c-1.1-0.2-2.8-0.5-4.9-0.8
				c-1-0.1-2.2-0.2-3.4-0.3c-1.2,0-2.5-0.1-3.9-0.1c-2.8,0-5.8,0.2-9,0.6c-3.2,0.4-6.1,1.1-8.8,1.8c-0.7,0.2-1.3,0.4-1.9,0.6
				c-0.6,0.2-1.2,0.4-1.8,0.7c-0.6,0.2-1.1,0.4-1.6,0.7c-0.5,0.2-1,0.5-1.5,0.7c-1,0.4-1.8,0.9-2.5,1.3c-0.4,0.2-0.7,0.4-1,0.6
				c-0.3,0.2-0.6,0.4-0.8,0.6c-0.5,0.3-0.8,0.6-1.1,0.8C101.5,193.5,101.3,193.6,101.3,193.6z"/>
		</g>
	</g>
</g>
<g>
	<g>
		<g>
			<g>
				<path class="st7" d="M273.5,86.6c0,1.1,0.9,2,2,2c1.1,0,2-0.9,2-2s-0.9-2-2-2C274.4,84.6,273.5,85.5,273.5,86.6z"/>
			</g>
		</g>
		<g>
			<g>
				<circle class="st7" cx="267.6" cy="86.6" r="2"/>
			</g>
		</g>
		<g>
			<g>
				<path class="st7" d="M257.6,85.6c-0.5,1-0.2,2.2,0.7,2.7c1,0.5,2.2,0.2,2.7-0.7c0.5-1,0.2-2.2-0.7-2.7
					C259.4,84.3,258.2,84.6,257.6,85.6z"/>
			</g>
		</g>
	</g>
	<g>
		<g>
			<g>
				<path class="st7" d="M267.4,63.3c0,0-0.1,0-0.4,0c-0.3,0-0.7,0-1.2,0c-0.3,0-0.6,0-0.9,0c-0.3,0-0.7,0.1-1,0.1
					c-0.4,0.1-0.8,0.1-1.2,0.2c-0.4,0.1-0.9,0.2-1.4,0.3c-1.9,0.5-4.2,1.3-6.6,2.9c-2.4,1.5-4.8,3.7-6.8,6.6c-2,3-3.5,6.7-3.9,10.8
					c0,1-0.2,2.1-0.1,3.2c0,0.5,0,1.1,0.1,1.6c0.1,0.5,0.2,1.1,0.2,1.6c0.4,2.2,1.1,4.4,2.2,6.5c1.1,2.1,2.5,4.1,4.2,5.8
					c1.8,1.7,3.8,3.2,6.1,4.4c2.3,1.2,4.8,2,7.4,2.3c0.7,0.1,1.3,0.1,2,0.2c0.7,0,1.3,0.1,2,0c1.3-0.1,2.7-0.2,4-0.5
					c2.9-0.6,5.6-1.8,8-3.4l-0.2,0c2.8,1.1,5.5,2.2,8.1,3.3l0.5,0.2l-0.1-0.5c-0.8-3-1.6-5.9-2.4-8.7l0,0.2c2.3-3,3.7-6.5,4.3-9.9
					c0.3-1.7,0.4-3.4,0.3-5.1c0-0.8-0.1-1.7-0.2-2.4c-0.1-0.4-0.1-0.8-0.2-1.2c-0.1-0.4-0.2-0.8-0.3-1.2c-1.6-6.1-5.3-10.6-9.1-13.2
					c-1.9-1.3-3.7-2.3-5.4-2.9c-0.4-0.2-0.8-0.3-1.2-0.4c-0.4-0.1-0.8-0.2-1.2-0.3c-0.4-0.1-0.7-0.2-1.1-0.3c-0.3-0.1-0.7-0.1-1-0.1
					c-0.6-0.1-1.2-0.2-1.6-0.2c-0.5,0-0.9,0-1.2,0c-0.3,0-0.5,0-0.7,0C267.5,63.3,267.4,63.3,267.4,63.3c0,0,0.1,0,0.2,0
					c0.2,0,0.4,0,0.7,0.1c0.3,0,0.7,0,1.2,0.1c0.5,0,1,0.2,1.6,0.2c2.4,0.4,6,1.4,9.7,4.1c3.7,2.6,7.3,7.1,8.9,13.1
					c0.1,0.4,0.2,0.7,0.3,1.1c0.1,0.4,0.1,0.8,0.2,1.2c0.1,0.8,0.2,1.6,0.2,2.4c0.1,1.6,0,3.3-0.3,5c-0.6,3.4-2,6.8-4.3,9.7
					l-0.1,0.1l0,0.1c0.8,2.8,1.6,5.7,2.4,8.7l0.3-0.3c-2.7-1.1-5.4-2.2-8.1-3.3l-0.1-0.1l-0.1,0.1c-2.3,1.5-5,2.7-7.8,3.3
					c-1.3,0.3-2.6,0.4-3.9,0.5c-0.7,0-1.3,0-2,0c-0.7,0-1.3,0-1.9-0.2c-2.6-0.3-5-1.1-7.3-2.2c-2.2-1.1-4.2-2.6-6-4.3
					c-1.7-1.7-3.1-3.7-4.2-5.7c-1.1-2-1.7-4.2-2.2-6.3c-0.1-0.5-0.2-1.1-0.2-1.6c-0.1-0.5-0.1-1.1-0.1-1.6c-0.1-1.1,0-2.1,0-3.1
					c0.4-4.1,1.8-7.7,3.7-10.7c1.9-2.9,4.3-5.1,6.7-6.6c2.3-1.5,4.6-2.4,6.5-2.9c0.5-0.1,0.9-0.2,1.3-0.4c0.4-0.1,0.8-0.1,1.2-0.2
					c0.4-0.1,0.7-0.1,1-0.2c0.3,0,0.6,0,0.9-0.1c0.5,0,0.9-0.1,1.2-0.1C267.3,63.4,267.4,63.4,267.4,63.3z"/>
			</g>
		</g>
	</g>
</g>
<g>
	<g>
		<g>
			<g>
				<rect x="29.6" y="248.4" class="st7" width="42.9" height="5.9"/>
			</g>
		</g>
		<g>
			<g>
				<path class="st7" d="M72.6,254.3H29.5v-6h43.1V254.3z M29.7,254.2h42.8v-5.8H29.7V254.2z"/>
			</g>
		</g>
	</g>
	<g>
		<g>
			<g>
				<polygon class="st7" points="33.6,252.3 39.7,282.8 62.6,282.8 68.6,254.3 				"/>
			</g>
		</g>
	</g>
	<g>
		<g>
			<g>
				<polygon class="st14" points="33.6,279.9 36.9,284.4 64.6,284.4 68.6,279.9 				"/>
			</g>
		</g>
	</g>
	<g>
		<g>
			<g>
				<g>
					<path class="st7" d="M49.4,253.2c-0.1,0-0.2-14.1-0.2-31.5c0-17.4,0-31.5,0.1-31.5c0.1,0,0.2,14.1,0.2,31.5
						C49.5,239.1,49.5,253.2,49.4,253.2z"/>
				</g>
			</g>
		</g>
	</g>
	<g>
		<g>
			<g>
				<g>
					<path class="st7" d="M59,217.9c0,0,0,0.1-0.1,0.3c-0.1,0.2-0.2,0.5-0.4,0.9c-0.1,0.2-0.2,0.4-0.3,0.7c-0.1,0.2-0.2,0.5-0.3,0.8
						c-0.1,0.3-0.2,0.6-0.3,0.9c-0.1,0.3-0.2,0.7-0.3,1c-0.5,1.5-0.8,3.3-1.2,5.3c-0.3,2-0.5,4.2-0.7,6.6c-0.2,4.7,0.1,8.9,0.3,12
						c0.1,1.5,0.3,2.8,0.4,3.6c0,0.4,0.1,0.7,0.1,1c0,0.2,0,0.3,0,0.3c0,0,0-0.1-0.1-0.3c0-0.3-0.1-0.6-0.2-1
						c-0.1-0.9-0.3-2.1-0.5-3.6c-0.3-3.1-0.6-7.3-0.4-12c0.1-2.4,0.4-4.6,0.7-6.6c0.4-2,0.8-3.8,1.3-5.3c0.1-0.4,0.2-0.7,0.3-1
						c0.1-0.3,0.2-0.6,0.4-0.9c0.1-0.3,0.2-0.5,0.3-0.8c0.1-0.2,0.2-0.5,0.3-0.7c0.2-0.4,0.3-0.7,0.4-0.9
						C58.9,218,59,217.9,59,217.9z"/>
				</g>
			</g>
		</g>
	</g>
	<g>
		<g>
			<g>
				<g>
					<path class="st7" d="M57.9,206.5c0,0,0,0.2-0.1,0.5c-0.1,0.3-0.3,0.8-0.4,1.3c-0.1,0.3-0.2,0.6-0.3,0.9
						c-0.1,0.4-0.2,0.7-0.3,1.1c-0.3,0.8-0.5,1.7-0.8,2.8c-0.1,0.5-0.3,1.1-0.4,1.6c-0.1,0.6-0.3,1.2-0.4,1.8
						c-0.3,1.2-0.5,2.6-0.8,4c-0.5,2.8-0.9,5.9-1.2,9.2c-0.3,3.3-0.4,6.4-0.4,9.2c0,2.8,0,5.4,0.1,7.6c0,1.1,0.1,2,0.2,2.9
						c0,0.9,0.1,1.6,0.2,2.2c0,0.6,0.1,1,0.1,1.4c0,0.3,0,0.5,0,0.5c0,0,0-0.2-0.1-0.5c0-0.3-0.1-0.8-0.2-1.4
						c-0.1-0.6-0.1-1.3-0.2-2.2c-0.1-0.9-0.2-1.8-0.2-2.9c-0.1-2.2-0.2-4.7-0.2-7.6c0-2.9,0.1-6,0.4-9.3c0.3-3.3,0.7-6.4,1.2-9.2
						c0.3-1.4,0.5-2.7,0.8-4c0.1-0.6,0.3-1.2,0.4-1.8c0.2-0.6,0.3-1.1,0.5-1.6c0.3-1,0.6-2,0.8-2.8c0.1-0.4,0.3-0.8,0.4-1.1
						c0.1-0.3,0.2-0.7,0.4-0.9c0.2-0.5,0.4-1,0.5-1.3C57.8,206.6,57.9,206.5,57.9,206.5z"/>
				</g>
			</g>
		</g>
	</g>
	<g>
		<g>
			<g>
				<g>
					<path class="st7" d="M46.7,255.7c0,0,0-0.1,0-0.2c0-0.1,0-0.3,0-0.5c0-0.4-0.1-1.1-0.1-1.9c-0.1-1.6-0.2-4-0.4-6.9
						c-0.4-5.8-0.9-13.8-1.9-22.6c-0.5-4.4-1.1-8.6-1.7-12.4c-0.3-1.9-0.6-3.7-0.9-5.4c-0.3-1.7-0.6-3.2-0.9-4.7
						c-0.3-1.4-0.6-2.7-0.8-3.8c-0.2-1.1-0.5-2.1-0.7-2.9c-0.2-0.8-0.3-1.4-0.4-1.8c0-0.2-0.1-0.4-0.1-0.5c0-0.1,0-0.2,0-0.2
						c0,0,0,0.1,0.1,0.2c0,0.1,0.1,0.3,0.1,0.5c0.1,0.4,0.3,1,0.5,1.8c0.2,0.8,0.5,1.7,0.7,2.9c0.3,1.1,0.6,2.4,0.9,3.8
						c0.3,1.4,0.7,3,1,4.7c0.3,1.7,0.6,3.5,1,5.4c0.6,3.8,1.2,8,1.7,12.4c1,8.8,1.5,16.9,1.8,22.7c0.2,2.9,0.3,5.3,0.3,6.9
						c0,0.8,0.1,1.4,0.1,1.9c0,0.2,0,0.4,0,0.5C46.7,255.6,46.7,255.7,46.7,255.7z"/>
				</g>
			</g>
		</g>
	</g>
	<g>
		<g>
			<g>
				<path class="st49" d="M49.1,196.9c-0.2-2-2.2-3.5-4.2-3.5c-2,0-3.9,1.2-5.1,2.8c-1.2,1.6-1.9,3.5-2.5,5.5
					c-1.4,4.7-2.1,9.7-1.5,14.5c0.6,4.9,2.6,9.7,6,13.1c0.6,0.6,1.3,1.1,2.1,1c0.4-0.1,0.8-0.4,1.1-0.7c6.9-6.2,10.8-15.5,10.6-24.7
					c-0.1-1.9-0.3-3.8-1.3-5.3C53.2,197.9,50.8,196.3,49.1,196.9"/>
			</g>
		</g>
	</g>
	<g>
		<g>
			<g>
				<g>
					<path class="st50" d="M34.1,180.9c-0.9,1.7-1.9,3.4-2.8,5.1c-0.1,0.1-0.2,0.3-0.3,0.3c-0.1,0-0.3-0.1-0.3-0.3
						c-2.5-3.8-5-7.7-7.5-11.5l1.7-1L34.1,180.9z"/>
				</g>
			</g>
		</g>
		<g>
			<g>
				<g>
					<path class="st49" d="M49.3,190.1c-8.5-5-17-10-25.5-15.1c-0.3-0.2-0.5-0.3-0.6-0.6c-0.1-0.4,0.2-0.7,0.5-1
						c3.5-3.6,8.6-5.7,13.6-5.4c5,0.4,9.9,3.3,12.3,7.7C52,180.1,52.1,186,49.3,190.1"/>
				</g>
			</g>
		</g>
		<g>
			<g>
				<g>
					<g>
						<path class="st7" d="M27.4,170.3c0,0,0.1,0,0.3,0c0.2,0,0.5-0.1,1,0c0.8,0,2.1,0,3.5,0.3c1.5,0.2,3.2,0.7,5,1.5
							c1.8,0.8,3.7,2,5.4,3.5c1.7,1.6,3.1,3.3,4,5c1,1.7,1.6,3.4,2,4.9c0.4,1.5,0.6,2.7,0.6,3.5c0,0.4,0,0.5,0,0.7
							c0,0.2-0.2,0.6-0.2,0.6c0,0,0.1-0.5,0-1.3c-0.1-0.8-0.3-2-0.7-3.4c-0.8-2.8-2.7-6.7-6.1-9.7c-3.4-3.1-7.4-4.5-10.3-5.1
							c-1.5-0.3-2.7-0.4-3.5-0.4C27.9,170.3,27.4,170.3,27.4,170.3z"/>
					</g>
				</g>
			</g>
		</g>
		<g>
			<g>
				<g>
					<g>
						<path class="st7" d="M45.8,179.7c0,0-0.5,0.3-1.3,0.6c-0.8,0.3-1.9,0.7-3.2,1.1c-1.3,0.4-2.4,0.7-3.3,0.9
							c-0.8,0.2-1.4,0.3-1.4,0.3c0,0,0.5-0.2,1.3-0.5c0.9-0.3,2-0.6,3.2-1c1.2-0.4,2.3-0.7,3.2-1C45.3,179.9,45.8,179.7,45.8,179.7z
							"/>
					</g>
				</g>
			</g>
		</g>
		<g>
			<g>
				<g>
					<g>
						<path class="st7" d="M41.8,169c0.1,0,0.3,1.3,0.3,2.8c0,1.6-0.1,2.9-0.2,2.9c-0.1,0-0.1-1.3-0.1-2.9
							C41.7,170.2,41.7,169,41.8,169z"/>
					</g>
				</g>
			</g>
		</g>
		<g>
			<g>
				<g>
					<g>
						<path class="st7" d="M23.5,174.8c0,0,0.7-0.3,1.9-0.7c1.2-0.4,2.8-0.8,4.6-1.2c1.8-0.4,3.4-0.8,4.6-1c1.2-0.2,1.9-0.3,1.9-0.3
							c0,0-0.7,0.2-1.9,0.5c-1.2,0.3-2.8,0.6-4.6,1.1c-1.8,0.4-3.4,0.9-4.6,1.2C24.3,174.7,23.5,174.8,23.5,174.8z"/>
					</g>
				</g>
			</g>
		</g>
	</g>
	<g>
		<g>
			<g>
				<g>
					<path class="st49" d="M37.6,192.6c-2.2-1.7-4.5-2-7.3-1.9c-2.8,0.1-5.4,0.9-8,2.1c-4.3,1.9-8.3,4.7-10.9,8.6
						c-2.6,3.9-3.5,9.1-1.5,13.4c0.2,0.4,0.4,0.9,0.9,1.1c0.5,0.2,1,0,1.4-0.1c4.9-1.6,9.8-3.2,14.3-5.7c4.5-2.5,8.6-6,11-10.5
						c0.6-1.1,1.1-2.3,1.2-3.5C38.8,194.8,38.5,193.5,37.6,192.6"/>
				</g>
			</g>
		</g>
		<g>
			<g>
				<g>
					<g>
						<path class="st7" d="M38.5,192.1c0,0-0.1,0.1-0.4,0.1c-0.3,0.1-0.6,0.2-1,0.4c-0.2,0.1-0.5,0.2-0.7,0.2
							c-0.3,0.1-0.6,0.2-0.9,0.3c-0.6,0.3-1.3,0.5-2.1,0.9c-0.4,0.2-0.8,0.4-1.2,0.5c-0.4,0.2-0.8,0.4-1.3,0.7
							c-0.9,0.4-1.8,1-2.7,1.6c-1.9,1.2-3.9,2.6-5.8,4.3c-1.9,1.7-3.6,3.5-5,5.2c-0.7,0.9-1.3,1.7-1.9,2.5c-0.3,0.4-0.6,0.8-0.8,1.2
							c-0.2,0.4-0.5,0.8-0.7,1.1c-0.5,0.7-0.8,1.4-1.1,2c-0.2,0.3-0.3,0.6-0.4,0.8c-0.1,0.3-0.2,0.5-0.3,0.7c-0.2,0.4-0.4,0.7-0.5,1
							c-0.1,0.2-0.2,0.3-0.2,0.3c0,0,0-0.1,0.1-0.4c0.1-0.3,0.3-0.6,0.4-1c0.1-0.2,0.2-0.5,0.3-0.7c0.1-0.3,0.3-0.5,0.4-0.8
							c0.3-0.6,0.6-1.3,1.1-2c0.2-0.4,0.4-0.7,0.7-1.1c0.2-0.4,0.5-0.8,0.8-1.2c0.5-0.8,1.2-1.7,1.9-2.6c1.4-1.7,3.1-3.5,5-5.3
							c1.9-1.7,4-3.1,5.8-4.3c1-0.6,1.9-1.1,2.8-1.5c0.4-0.2,0.9-0.5,1.3-0.6c0.4-0.2,0.8-0.4,1.2-0.5c0.8-0.4,1.5-0.6,2.1-0.8
							c0.3-0.1,0.6-0.2,0.9-0.3c0.3-0.1,0.5-0.2,0.8-0.2c0.4-0.1,0.8-0.2,1-0.3C38.4,192.1,38.5,192.1,38.5,192.1z"/>
					</g>
				</g>
			</g>
		</g>
		<g>
			<g>
				<g>
					<g>
						<path class="st7" d="M21.4,201.4c0,0.1-2.4,0.9-5.3,1.7c-3,0.9-5.4,1.5-5.4,1.4c0-0.1,2.4-0.9,5.3-1.7
							C18.9,201.9,21.4,201.3,21.4,201.4z"/>
					</g>
				</g>
			</g>
		</g>
		<g>
			<g>
				<g>
					<g>
						<path class="st7" d="M21.2,213.1c0,0-0.1-0.6-0.1-1.7c0-1,0-2.4,0-4c0-1.6,0.1-3,0.2-4c0.1-1,0.2-1.7,0.2-1.7c0,0,0,0.6,0,1.7
							c0,1.1-0.1,2.5-0.1,4c0,1.5-0.1,2.9-0.1,4C21.2,212.5,21.2,213.1,21.2,213.1z"/>
					</g>
				</g>
			</g>
		</g>
		<g>
			<g>
				<g>
					<g>
						<path class="st7" d="M31.3,208c-0.1,0-0.4-2.9-0.6-6.5c-0.2-3.6-0.4-6.5-0.3-6.5c0.1,0,0.4,2.9,0.6,6.5
							C31.2,205.1,31.3,208,31.3,208z"/>
					</g>
				</g>
			</g>
		</g>
		<g>
			<g>
				<g>
					<g>
						<path class="st7" d="M18.7,194.8c0,0,0.7-0.1,1.7-0.1c1.1,0,2.5,0,4.1,0.1c1.6,0.1,3.1,0.1,4.1,0.2c1.1,0.1,1.7,0.1,1.7,0.2
							c0,0-0.7,0.1-1.7,0.1c-1.1,0-2.5,0-4.1-0.1c-1.6-0.1-3.1-0.1-4.1-0.2C19.4,194.9,18.7,194.8,18.7,194.8z"/>
					</g>
				</g>
			</g>
		</g>
	</g>
	<g>
		<g>
			<g>
				<g>
					<path class="st7" d="M42.9,229.9c0,0,0-0.1,0-0.3c0-0.3,0-0.6,0-1c0-0.9,0-2.1,0-3.6c0-1.5,0.1-3.3,0.3-5.4
						c0.2-2,0.5-4.2,0.9-6.5c0.4-2.3,0.9-4.5,1.5-6.4c0.5-1.9,1.1-3.7,1.6-5.1c0.5-1.4,1-2.6,1.3-3.4c0.2-0.4,0.3-0.7,0.4-0.9
						c0.1-0.2,0.1-0.3,0.2-0.3c0,0,0,0.1-0.1,0.3c-0.1,0.2-0.2,0.5-0.3,0.9c-0.3,0.8-0.7,2-1.2,3.4c-0.5,1.4-1,3.2-1.5,5.1
						c-0.5,2-1,4.1-1.4,6.4c-0.4,2.3-0.7,4.5-0.9,6.5c-0.2,2-0.3,3.8-0.4,5.3c-0.1,1.5-0.1,2.8-0.1,3.6c0,0.4,0,0.7,0,1
						C42.9,229.8,42.9,229.9,42.9,229.9z"/>
				</g>
			</g>
		</g>
	</g>
	<g>
		<g>
			<g>
				<g>
					<path class="st7" d="M44.3,213.2c0,0-0.4,0.5-1,1.1c-0.7,0.7-1.6,1.5-2.7,2.5c-1.1,0.9-2.1,1.8-2.8,2.3
						c-0.7,0.6-1.2,0.9-1.2,0.9c0,0,0.4-0.4,1.1-1c0.8-0.7,1.7-1.5,2.7-2.4c1-0.9,1.9-1.7,2.7-2.4C43.8,213.6,44.2,213.2,44.3,213.2
						z"/>
				</g>
			</g>
		</g>
	</g>
	<g>
		<g>
			<g>
				<g>
					<path class="st7" d="M52.3,219.7c0,0-0.4-0.6-1.1-1.5c-0.7-1-1.6-2.3-2.5-3.7c-1-1.4-1.9-2.6-2.6-3.6c-0.7-0.9-1.1-1.5-1-1.5
						c0,0,0.5,0.5,1.2,1.4c0.7,0.9,1.7,2.2,2.7,3.6c1,1.4,1.9,2.8,2.5,3.7C52,219.1,52.4,219.7,52.3,219.7z"/>
				</g>
			</g>
		</g>
	</g>
	<g>
		<g>
			<g>
				<g>
					<path class="st7" d="M48.1,199.3c0,0.1-2.6,1.9-6,4c-3.4,2.2-6.1,3.8-6.2,3.8c0-0.1,2.6-1.9,6-4
						C45.3,200.9,48.1,199.2,48.1,199.3z"/>
				</g>
			</g>
		</g>
	</g>
	<g>
		<g>
			<g>
				<g>
					<path class="st7" d="M55.7,207.4c-0.1,0.1-1.9-1.6-4.1-3.7c-2.2-2.1-3.9-3.9-3.8-4c0.1-0.1,1.9,1.6,4.1,3.7
						C54,205.6,55.7,207.4,55.7,207.4z"/>
				</g>
			</g>
		</g>
	</g>
	<g>
		<g>
			<g>
				<g>
					<path class="st49" d="M57.6,207.3l2.3-0.2c1.6-0.1,3.2-0.6,4.7-1.4c0.7-0.4,1.4-0.8,2.2-1.1c2.8-1.1,6-0.9,9.1-1.1
						c5-0.3,9.9-1.5,14.5-3.7c0.3-0.1,0.5-0.3,0.6-0.6c0.5-0.9-0.4-1.6-1.2-2.1c-3.9-2.4-7.8-4.8-12.2-6c-4.4-1.2-9.4-1-13.1,1.6
						C59.9,195.7,58.3,202,57.6,207.3"/>
				</g>
			</g>
		</g>
		<g>
			<g>
				<g>
					<g>
						<path class="st7" d="M90.9,198.9c0,0-0.1-0.1-0.4-0.2c-0.3-0.1-0.6-0.3-1.1-0.6c-0.9-0.5-2.3-1.2-4-2.1
							c-1.7-0.8-3.8-1.7-6.2-2.4c-2.4-0.7-5.2-1-8.1-0.7c-2.9,0.4-5.5,1.5-7.4,3.2c-1.9,1.7-3,3.7-3.8,5.4c-0.8,1.7-1.3,3.2-1.7,4.2
							c-0.2,0.5-0.3,0.9-0.4,1.2c-0.1,0.3-0.2,0.4-0.2,0.4c0,0,0-0.1,0.1-0.4c0.1-0.3,0.2-0.7,0.4-1.2c0.3-1,0.8-2.5,1.6-4.3
							c0.8-1.7,1.9-3.8,3.8-5.5c1.9-1.7,4.6-2.9,7.5-3.3c2.9-0.4,5.8,0,8.2,0.7c2.5,0.7,4.5,1.6,6.3,2.5c1.7,0.9,3.1,1.6,4,2.1
							c0.4,0.3,0.8,0.5,1.1,0.6C90.8,198.8,90.9,198.9,90.9,198.9z"/>
					</g>
				</g>
			</g>
		</g>
		<g>
			<g>
				<g>
					<g>
						<path class="st7" d="M85.4,201.9c0,0.1-3.1-1.9-6.7-4.4c-3.7-2.5-6.6-4.5-6.6-4.6c0-0.1,3.1,1.9,6.7,4.4
							C82.5,199.8,85.4,201.8,85.4,201.9z"/>
					</g>
				</g>
			</g>
		</g>
		<g>
			<g>
				<g>
					<g>
						<path class="st7" d="M82.2,192.8c0,0.1-1,0.3-2.2,0.4c-1.2,0.1-2.2,0-2.2,0c0-0.1,1-0.1,2.2-0.2
							C81.2,192.8,82.2,192.7,82.2,192.8z"/>
					</g>
				</g>
			</g>
		</g>
		<g>
			<g>
				<g>
					<g>
						<path class="st7" d="M69,191.1c0.1,0-0.4,0.7-1,1.5c-0.6,0.8-1.2,1.5-1.3,1.4c-0.1,0,0.4-0.7,1-1.5
							C68.4,191.7,68.9,191,69,191.1z"/>
					</g>
				</g>
			</g>
		</g>
		<g>
			<g>
				<g>
					<g>
						<path class="st7" d="M71.7,203.7c0,0-0.6-0.3-1.4-0.8c-0.9-0.5-2-1.3-3.3-2.2c-1.3-0.9-2.4-1.8-3.2-2.4
							c-0.8-0.6-1.3-1-1.3-1.1c0,0,0.6,0.3,1.4,0.9c0.9,0.7,2,1.5,3.2,2.3c1.3,0.9,2.4,1.7,3.2,2.3
							C71.2,203.3,71.7,203.6,71.7,203.7z"/>
					</g>
				</g>
			</g>
		</g>
	</g>
	<g>
		<g>
			<g>
				<g>
					<path class="st49" d="M61,217.1c-2.2-0.6-4.8,1.6-5.3,3.8c-0.5,2.2,0.4,4.5,1.4,6.6c2.2,4.5,5.2,8.8,9.1,11.9s8.9,5.1,13.9,5.1
						c-0.9-4.3,0.2-8.8-0.3-13.2c-0.5-3.8-2.2-7.5-5-10.2c-2.7-2.7-6.4-4.5-10.2-4.9C63.2,216,61.5,215.8,61,217.1"/>
				</g>
			</g>
		</g>
		<g>
			<g>
				<g>
					<g>
						<path class="st7" d="M80,244.4c0,0-0.1,0-0.3-0.1c-0.2-0.1-0.5-0.3-0.8-0.6c-0.7-0.5-1.5-1.5-2.2-2.9
							c-0.4-0.7-0.7-1.4-1.1-2.2c-0.4-0.8-0.8-1.7-1.2-2.6c-0.4-0.9-0.9-1.9-1.5-2.8c-0.6-0.9-1.2-1.8-2-2.7
							c-1.5-1.8-3.1-3.3-4.5-4.8c-1.4-1.5-2.6-2.9-3.4-4.1c-0.9-1.3-1.4-2.4-1.7-3.2c-0.1-0.4-0.2-0.7-0.3-0.9
							c-0.1-0.2-0.1-0.3-0.1-0.3c0,0,0.2,0.4,0.5,1.2c0.3,0.8,0.9,1.9,1.7,3.1c0.9,1.2,2.1,2.6,3.5,4.1c1.4,1.4,3,3,4.5,4.8
							c0.8,0.9,1.4,1.8,2,2.8c0.6,0.9,1,1.9,1.5,2.8c0.4,0.9,0.8,1.8,1.2,2.6c0.4,0.8,0.7,1.6,1.1,2.2c0.7,1.4,1.4,2.4,2.1,2.9
							C79.6,244.2,80.1,244.4,80,244.4z"/>
					</g>
				</g>
			</g>
		</g>
		<g>
			<g>
				<g>
					<g>
						<path class="st7" d="M68.7,240.8c0,0,0-0.6,0.2-1.5c0.2-0.9,0.5-2.1,0.8-3.5c0.4-1.4,0.8-2.6,1.1-3.4c0.3-0.9,0.6-1.4,0.6-1.4
							c0,0-0.1,0.6-0.4,1.4c-0.3,0.9-0.6,2.1-1,3.4c-0.4,1.3-0.7,2.6-0.9,3.5C68.9,240.3,68.7,240.8,68.7,240.8z"/>
					</g>
				</g>
			</g>
		</g>
		<g>
			<g>
				<g>
					<g>
						<path class="st7" d="M79.6,230.2c0,0-0.6-0.1-1.5-0.4c-0.9-0.2-2.3-0.6-3.7-0.9c-1.5-0.3-2.8-0.6-3.7-0.8
							c-1-0.2-1.6-0.3-1.6-0.3c0,0,0.6,0,1.6,0.1c1,0.1,2.3,0.4,3.8,0.7c1.5,0.3,2.8,0.7,3.7,1C79.1,230,79.6,230.2,79.6,230.2z"/>
					</g>
				</g>
			</g>
		</g>
		<g>
			<g>
				<g>
					<g>
						<path class="st7" d="M60.5,233.3c0,0,0-0.7,0.2-1.7c0.2-1,0.5-2.5,0.9-4.1c0.4-1.6,0.8-3,1.2-4c0.3-1,0.6-1.6,0.6-1.6
							c0,0-0.1,0.6-0.4,1.7c-0.3,1-0.7,2.4-1.1,4c-0.4,1.6-0.7,3-1,4C60.7,232.7,60.6,233.3,60.5,233.3z"/>
					</g>
				</g>
			</g>
		</g>
		<g>
			<g>
				<g>
					<g>
						<path class="st7" d="M74.6,221c0,0.1-2.8-0.1-6.1-0.5c-3.4-0.4-6.1-0.7-6.1-0.8c0-0.1,2.8,0.1,6.1,0.5
							C71.9,220.6,74.6,220.9,74.6,221z"/>
					</g>
				</g>
			</g>
		</g>
	</g>
	<g>
		<g>
			<g>
				<g>
					<path class="st14" d="M72.6,254.3c0,0.1-9.6,0.2-21.5,0.2c-11.9,0-21.5-0.1-21.5-0.2c0-0.1,9.6-0.2,21.5-0.2
						C62.9,254.1,72.6,254.2,72.6,254.3z"/>
				</g>
			</g>
		</g>
	</g>
	<g>
		<g>
			<g>
				<g>
					<path class="st14" d="M65.9,266.7c0,0.1-6.5,0.2-14.5,0.2c-8,0-14.5-0.1-14.5-0.2c0-0.1,6.5-0.2,14.5-0.2
						C59.4,266.5,65.9,266.6,65.9,266.7z"/>
				</g>
			</g>
		</g>
	</g>
	<g>
		<g>
			<g>
				<g>
					<path class="st14" d="M65.6,268.4c0,0.1-6.4,0.2-14.3,0.2c-7.9,0-14.3-0.1-14.3-0.2c0-0.1,6.4-0.2,14.3-0.2
						C59.2,268.3,65.6,268.3,65.6,268.4z"/>
				</g>
			</g>
		</g>
	</g>
	<g>
		<g>
			<g>
				<g>
					<path class="st14" d="M66.1,265.2c0,0.1-6.7,0.2-15,0.2c-8.3,0-15-0.1-15-0.2c0-0.1,6.7-0.2,15-0.2
						C59.4,265,66.1,265.1,66.1,265.2z"/>
				</g>
			</g>
		</g>
	</g>
</g>
</svg>
