<?xml version="1.0" encoding="utf-8"?>
<!-- Generator: Adobe Illustrator 24.3.0, SVG Export Plug-In . SVG Version: 6.00 Build 0)  -->
<svg version="1.1" id="Layer_1" xmlns="http://www.w3.org/2000/svg" xmlns:xlink="http://www.w3.org/1999/xlink" x="0px" y="0px"
	 viewBox="0 0 800 500" style="enable-background:new 0 0 800 500;" xml:space="preserve">
<style type="text/css">
	.st0{fill:#E1E1E1;}
	.st1{fill:#FAFAFA;}
	.st2{fill:#FFFFFF;}
	.st3{fill:#ECECEC;}
	.st4{fill:#F5F5F5;}
	.st5{fill:#004033;}
	.st6{fill:#1A2E35;}
	.st7{fill:#7AC142;}
	.st8{fill:#FFD4B8;stroke:#1A2E35;stroke-width:0.25;stroke-linecap:round;stroke-linejoin:round;stroke-miterlimit:10;}
	.st9{fill:#9E493E;}
	.st10{fill:#FFC40D;stroke:#000000;stroke-width:0.25;stroke-miterlimit:10;}
	.st11{opacity:0.3;}
	.st12{fill:#FFB68C;}
	.st13{fill:#375A64;}
	.st14{fill:none;stroke:#000000;stroke-miterlimit:10;}
	.st15{fill:#7AC142;stroke:#000000;stroke-width:0.5;stroke-miterlimit:10;}
	.st16{fill:#FFD4B8;stroke:#1A2E35;stroke-width:0.5;stroke-linecap:round;stroke-linejoin:round;stroke-miterlimit:10;}
	.st17{fill:none;stroke:#FFFFFF;stroke-linecap:round;stroke-linejoin:round;stroke-miterlimit:10;}
	.st18{fill:#FF9A6C;}
	.st19{fill:none;stroke:#1A2E35;stroke-linecap:round;stroke-linejoin:round;stroke-miterlimit:10;}
	.st20{fill:#FFFFFF;stroke:#1A2E35;stroke-linecap:round;stroke-linejoin:round;stroke-miterlimit:10;}
	.st21{clip-path:url(#XMLID_6_);fill:#FF9A6C;}
	.st22{opacity:0.3;clip-path:url(#XMLID_7_);fill-opacity:0.7;}
	.st23{fill:none;stroke:#1A2E35;stroke-width:0.25;stroke-linecap:round;stroke-linejoin:round;stroke-miterlimit:10;}
	.st24{clip-path:url(#XMLID_8_);fill:#FF9A6C;}
	.st25{clip-path:url(#XMLID_9_);fill:#FF9A6C;}
	.st26{opacity:0.3;clip-path:url(#XMLID_10_);fill-opacity:0.7;}
	.st27{opacity:0.3;clip-path:url(#XMLID_11_);fill-opacity:0.7;}
	.st28{fill:#118C76;}
	.st29{opacity:0.3;clip-path:url(#XMLID_12_);fill:#FFFFFF;fill-opacity:0.7;}
	.st30{clip-path:url(#XMLID_13_);fill:#004033;}
	.st31{fill:#FFFFFF;stroke:#000000;stroke-width:2;stroke-linecap:round;stroke-linejoin:round;stroke-miterlimit:10;}
	.st32{fill:#FFFFFF;stroke:#000000;stroke-linecap:round;stroke-linejoin:round;stroke-miterlimit:10;}
	.st33{fill:#1A2E35;stroke:#000000;stroke-linecap:round;stroke-linejoin:round;stroke-miterlimit:10;}
	.st34{fill:#FFC40D;}
	.st35{fill:#FFFFFF;stroke:#000000;stroke-width:0.75;stroke-linecap:round;stroke-linejoin:round;stroke-miterlimit:10;}
	.st36{fill:#8C8C8C;stroke:#000000;stroke-width:0.75;stroke-linecap:round;stroke-linejoin:round;stroke-miterlimit:10;}
	.st37{fill:#FFBF9D;}
	.st38{stroke:#000000;stroke-linecap:round;stroke-linejoin:round;stroke-miterlimit:10;}
	.st39{fill:#011612;}
	.st40{fill:#7AC142;stroke:#000000;stroke-width:0.75;stroke-miterlimit:10;}
	.st41{fill:#5AE4A7;stroke:#000000;stroke-linecap:round;stroke-linejoin:round;stroke-miterlimit:10;}
	.st42{fill:#308618;stroke:#000000;stroke-width:0.5;stroke-miterlimit:10;}
	.st43{fill:#308618;}
	.st44{opacity:0.6;}
	.st45{fill:#27393C;stroke:#000000;stroke-width:0.75;stroke-miterlimit:10;}
	.st46{fill:#375A64;stroke:#000000;stroke-width:0.75;stroke-miterlimit:10;}
	.st47{opacity:0.2;}
	.st48{fill:#009438;}
	.st49{fill:#005E38;}
	.st50{fill:#FF4F5B;}
	.st51{fill:none;stroke:#1A2E35;stroke-miterlimit:10;}
	.st52{fill:#1A2E35;stroke:#1A2E35;stroke-linecap:round;stroke-linejoin:round;stroke-miterlimit:10;}
	.st53{fill:#7AC142;stroke:#000000;stroke-miterlimit:10;}
	.st54{fill:#AAFF00;stroke:#1A2E35;stroke-linecap:round;stroke-linejoin:round;stroke-miterlimit:10;}
	.st55{fill:#FFD29C;stroke:#1A2E35;stroke-linecap:round;stroke-linejoin:round;stroke-miterlimit:10;}
	.st56{fill:#FFD69C;stroke:#1A2E35;stroke-linecap:round;stroke-linejoin:round;stroke-miterlimit:10;}
	.st57{fill:none;stroke:#1A2E35;stroke-width:2;stroke-linecap:round;stroke-linejoin:round;stroke-miterlimit:10;}
	.st58{fill:#4E5E64;stroke:#1A2E35;stroke-linecap:round;stroke-linejoin:round;stroke-miterlimit:10;}
	.st59{fill:#FFC40D;stroke:#000000;stroke-miterlimit:10;}
	.st60{fill:#A3A3A3;stroke:#1A2E35;stroke-linecap:round;stroke-linejoin:round;stroke-miterlimit:10;}
	.st61{fill:#AAFF00;}
	.st62{fill:#1A2E35;stroke:#1A2E35;stroke-miterlimit:10;}
	.st63{fill:#4F4F4F;stroke:#1A2E35;stroke-linecap:round;stroke-linejoin:round;stroke-miterlimit:10;}
	.st64{fill:#EEF8EE;stroke:#000000;stroke-miterlimit:10;}
	.st65{fill:#FFC000;}
	.st66{fill:#FF9A6C;stroke:#000000;stroke-width:0.5;stroke-miterlimit:10;}
	.st67{fill:#118C76;stroke:#000000;stroke-miterlimit:10;}
	.st68{fill:#FFC40D;stroke:#000000;stroke-width:0.5;stroke-miterlimit:10;}
	.st69{fill:#7BC043;stroke:#000000;stroke-width:0.5;stroke-miterlimit:10;}
	.st70{fill:#FFBC98;stroke:#000000;stroke-width:0.5;stroke-miterlimit:10;}
	.st71{fill:url(#SVGID_1_);}
	.st72{fill:#F5F5F5;stroke:#000000;stroke-miterlimit:10;}
	.st73{fill:#FFFFFF;stroke:#000000;stroke-miterlimit:10;}
	.st74{fill:#7BC043;}
	.st75{fill:#FFC10E;stroke:#000000;stroke-width:0.75;stroke-miterlimit:10;}
	.st76{fill:#FFC10E;}
	.st77{fill:#5AE4A7;}
	.st78{fill:#FFFFFF;stroke:#1A2E35;stroke-miterlimit:10;}
	.st79{fill:#FFD8B6;stroke:#000000;stroke-miterlimit:10;}
	.st80{fill:#5AE4A7;stroke:#1A2E35;stroke-linecap:round;stroke-linejoin:round;stroke-miterlimit:10;}
	.st81{fill:none;stroke:#4C4C4C;stroke-linecap:round;stroke-linejoin:round;stroke-miterlimit:10;}
	.st82{fill:#FFAD80;}
	.st83{fill:#4C4C4C;stroke:#1A2E35;stroke-linecap:round;stroke-linejoin:round;stroke-miterlimit:10;}
	.st84{fill:#FFAD80;stroke:#000000;stroke-miterlimit:10;}
	.st85{fill:#B5B5B5;stroke:#1A2E35;stroke-linecap:round;stroke-linejoin:round;stroke-miterlimit:10;}
	.st86{fill:#FFFFFF;stroke:#1A2E35;stroke-width:0.75;stroke-linecap:round;stroke-linejoin:round;stroke-miterlimit:10;}
	.st87{fill:#808080;stroke:#1A2E35;stroke-linecap:round;stroke-linejoin:round;stroke-miterlimit:10;}
	.st88{fill:#9A4648;}
	.st89{fill:#FFC40D;stroke:#000000;stroke-width:0.75;stroke-miterlimit:10;}
	.st90{fill:#FFCAA4;stroke:#1A2E35;stroke-width:0.75;stroke-linecap:round;stroke-linejoin:round;stroke-miterlimit:10;}
	.st91{fill:#FFCAA4;stroke:#1A2E35;stroke-width:0.25;stroke-linecap:round;stroke-linejoin:round;stroke-miterlimit:10;}
	.st92{clip-path:url(#XMLID_15_);fill:#7AC142;stroke:#000000;stroke-width:0.5;stroke-miterlimit:10;}
	.st93{opacity:0.5;clip-path:url(#XMLID_15_);fill:#FFFFFF;}
	.st94{fill:#7AC142;stroke:#231F20;stroke-width:0.75;stroke-miterlimit:10;}
	.st95{opacity:0.2;fill-opacity:0.7;}
	.st96{fill:#FFC488;}
	.st97{fill:none;stroke:#FFFFFF;stroke-miterlimit:10;}
	.st98{opacity:0.5;fill:#FFFFFF;}
</style>
<g>
	<g>
		<g>
			<line class="st51" x1="112" y1="454" x2="701.2" y2="454"/>
			<line class="st51" x1="112" y1="342.4" x2="701.2" y2="342.4"/>
			<line class="st51" x1="112" y1="230.9" x2="701.2" y2="230.9"/>
			<line class="st51" x1="112" y1="119.3" x2="701.2" y2="119.3"/>
			<line class="st51" x1="246" y1="56" x2="246" y2="454.3"/>
			<line class="st51" x1="600.1" y1="56" x2="600.1" y2="454.3"/>
		</g>
		<g>
			<line class="st51" x1="259.1" y1="203.6" x2="254.7" y2="208.2"/>
			<line class="st51" x1="333.8" y1="124.8" x2="264.4" y2="198"/>
			<line class="st51" x1="338.1" y1="136.8" x2="299.1" y2="176.8"/>
		</g>
		<g>
			<line class="st51" x1="615.3" y1="203.6" x2="610.9" y2="208.2"/>
			<line class="st51" x1="690" y1="124.8" x2="620.6" y2="198"/>
			<line class="st51" x1="694.3" y1="136.8" x2="655.3" y2="176.8"/>
		</g>
		<g>
			<line class="st51" x1="103.1" y1="428.9" x2="98.8" y2="433.5"/>
			<line class="st51" x1="177.8" y1="350.1" x2="108.4" y2="423.3"/>
			<line class="st51" x1="182.2" y1="362" x2="143.2" y2="402.1"/>
		</g>
		<g>
			<line class="st51" x1="160.6" y1="108.3" x2="156.2" y2="112.9"/>
			<line class="st51" x1="235.2" y1="29.5" x2="165.8" y2="102.7"/>
			<line class="st51" x1="239.6" y1="41.4" x2="200.6" y2="81.5"/>
		</g>
		<g>
			<line class="st51" x1="485.1" y1="108.3" x2="480.7" y2="112.9"/>
			<line class="st51" x1="559.8" y1="29.5" x2="490.4" y2="102.7"/>
			<line class="st51" x1="564.1" y1="41.4" x2="525.1" y2="81.5"/>
		</g>
		<g>
			<line class="st51" x1="384.8" y1="319.5" x2="380.4" y2="324.1"/>
			<line class="st51" x1="459.4" y1="240.7" x2="390" y2="313.9"/>
			<line class="st51" x1="463.8" y1="252.7" x2="424.8" y2="292.7"/>
		</g>
	</g>
	<g>
		<path id="XMLID_121_" class="st52" d="M451.9,316.5H316.1V71.8c0-10.2,8.3-18.5,18.5-18.5h98.9c10.2,0,18.5,8.3,18.5,18.5V316.5z"
			/>
		<path id="XMLID_126_" class="st52" d="M468,454.7l-71.8-21.1V410h-4v-86.7h-12.8V410h-4v22.9l-71.8,21.7v3.4h1
			c-0.5,1-0.8,2.1-0.8,3.3c0,3.9,3.1,7,7,7c3.9,0,7-3.1,7-7c0-2.5-1.3-4.6-3.2-5.9l0.1-0.1l65.8-7.9v9.5c-1,1.2-1.6,2.8-1.6,4.4
			c0,3.9,3.1,7,7,7c3.9,0,7-3.1,7-7c0-1.7-0.6-3.2-1.6-4.4v-9.5l65.6,7.9c-2.1,1.2-3.5,3.5-3.5,6c0,3.9,3.1,7,7,7c3.9,0,7-3.1,7-7
			c0-1.2-0.3-2.3-0.8-3.3h1.4V454.7z"/>
		<path id="XMLID_122_" class="st20" d="M451.1,348.3H319.4c-4,0-7.3-3.3-7.3-7.3v-17.4c0-4,3.3-7.3,7.3-7.3h131.7
			c4,0,7.3,3.3,7.3,7.3v17.4C458.4,345.1,455.1,348.3,451.1,348.3z"/>
		<g>
			<rect id="XMLID_119_" x="335.7" y="264.4" class="st20" width="101.6" height="56.5"/>
			<g>
				<g>
					<path id="XMLID_64_" class="st20" d="M377.2,101.9l-15.6,6.1c0,0,5.6,35,13.1,53c7.4,18,35,46.7,35,46.7s14.2-20.7,19.2-37.2
						c5-16.5-0.2-62.7-0.2-62.7s-4.5-2.9-11.5-4.1C410.1,102.6,377.2,101.9,377.2,101.9z"/>
					<polygon id="XMLID_62_" class="st52" points="392.3,126.5 399.5,140.3 387.5,166.6 406.7,195.5 418.4,169.1 404.2,139.8 
						411.7,126.9 401.1,116.3 					"/>
					<path id="XMLID_46_" class="st20" d="M379.4,100.3l-5,1.4l-4.7,8.3l11.7,33.2l19.2-19.8l21,21.4c0,0,2.5-33.4,2.5-37.2
						s-3.4-5.2-5.9-5.9C415.7,101,379.4,100.3,379.4,100.3z"/>
					<path id="XMLID_65_" class="st53" d="M374.5,101.7c0,0,2.1,30,14.7,56.4c6.4,13.6,18.5,32.7,18.5,32s12-36.1,12.4-48
						c0.5-12,2.7-37.4,2.7-37.4s23.1,9.2,28.6,12.4c8.6,5,19.4,6.1,19.2,12c-0.1,2.1,1.4,16.1,3.2,33.1c0.3,2.7,14.8,25.9,15.1,28.7
						c3.1,28.3-7.5,40.2-8,40.4c-0.9,0.2-19.6,0-19.6,0s10.1,46.2,11.7,48.7c1.6,2.5,1.6,2.5,1.6,2.5H394l-3.4-10.1l-3,10.1h-82.8
						l11.1-50.3h-12.2c0,0-3.2-6.3,1.1-30c4.3-23.7,18.7-83,18.7-85C323.5,115,369.7,106.6,374.5,101.7z"/>
					<g id="XMLID_44_">
						<line id="XMLID_45_" class="st20" x1="391.7" y1="218.9" x2="390.6" y2="272.2"/>
						<path id="XMLID_69_" class="st54" d="M422.7,198.7c13.3-12.4,19.2-37.2,19.2-37.2l-12-5.2l11.5-5.6l-9.9-42.4
							c-5.6-4.9-8.9-4.7-8.8-3.6c0,0-2.3,25.5-2.7,37.4s-12.4,47.4-12.4,48c0,0.7-13.3-17.9-18.5-32c-12.2-32.8-14.5-52.7-14.9-56.4
							c0-0.3-0.3-0.4-0.6-0.3c-1.7,1-5.8,1.8-8.8,4.4c-0.8,5.9-1.9,14.3-2.6,23.7c-1.4,17.4-1.4,25-1.4,25l15.6,3.8l-11.1,6.3
							c0,0,12.2,12.4,22.3,21.7c10.1,9.2,16.9,12.6,16.9,12.6l-13,20C391.7,218.9,409.4,211.1,422.7,198.7z"/>
					</g>
					<path id="XMLID_61_" class="st55" d="M377.2,85.4v19.4c0,0,5,16.2,22.6,17.4c18.5,1.2,21.7-16.7,21.7-16.7V88.4
						C421.4,88.4,387.1,96.7,377.2,85.4z"/>
					<g>
						<path id="XMLID_59_" class="st56" d="M425.7,59.3c0,0,0.7-8.8,6.1-8.8s5.4,10.1,4.1,14.2s-8.3,7-10.6,3.8"/>
						<path id="XMLID_43_" class="st56" d="M403.2,15.4c0,0-19.9-0.7-26.8,4.3S371,38.5,371,42.9s3.3,41.7,5.4,47.1
							c2.2,5.4,18.1,13.8,31.9,10.5c13.8-3.3,18.1-13,18.8-18.1c0.7-5.1,0.7-43.8,0-54C426.4,18.3,413,16.4,403.2,15.4z"/>
						<path id="XMLID_42_" class="st52" d="M427.3,32.4c-0.1-1.6-0.1-3-0.2-4c-0.7-10.1-14.1-12-23.9-13c0,0-19.9-0.7-26.8,4.3
							S371,38.5,371,42.9c0,1.7,0.5,8.8,1.3,16.9c1.3,0.5,2.9,0.6,3.8-1.7c1.4-4-0.7-7.6,1.1-12.7s2.5-8.3,6.9-10.9s8.7-3.6,8.7-3.6
							s-9.1,10.5,10.9,10.1C416.5,40.8,423.8,38.2,427.3,32.4z"/>
						<path id="XMLID_41_" class="st19" d="M407.2,50.9c0,0,3.4,16,0.2,17.6c-3.2,1.6-5.2,2-7.9-3.4"/>
						<path id="XMLID_40_" class="st19" d="M389.6,68.3c0,0-0.7,7.4,14.4,6.3"/>
						<path id="XMLID_39_" class="st6" d="M394.3,51.3c0,1.6-0.7,2.8-1.5,2.8c-0.8,0-1.5-1.3-1.5-2.8c0-1.6,0.7-2.8,1.5-2.8
							C393.7,48.4,394.3,49.7,394.3,51.3z"/>
						<path id="XMLID_38_" class="st6" d="M417,51.3c0,1.6-0.7,2.8-1.5,2.8c-0.8,0-1.5-1.3-1.5-2.8c0-1.6,0.7-2.8,1.5-2.8
							C416.3,48.4,417,49.7,417,51.3z"/>
						<path id="XMLID_37_" class="st57" d="M397.8,57.9h-12.3c-1.3,0-2.4-0.9-2.7-2.2l-1.6-8.6h20.3l-1.1,8.4
							C400.3,56.9,399.1,57.9,397.8,57.9z"/>
						<path id="XMLID_36_" class="st57" d="M423.9,57.9h-12.3c-1.3,0-2.4-0.9-2.7-2.2l-1.6-8.6h20.3l-1.1,8.4
							C426.5,56.9,425.3,57.9,423.9,57.9z"/>
						<line id="XMLID_35_" class="st57" x1="401.5" y1="47.1" x2="407.4" y2="47.1"/>
						<line id="XMLID_57_" class="st57" x1="381.2" y1="47.1" x2="371.5" y2="51.4"/>
						<path id="XMLID_58_" class="st56" d="M373.8,59.3c0,0-0.7-8.8-6.1-8.8c-5.4,0-5.4,10.1-4.1,14.2s8.3,7,10.6,3.8"/>
					</g>
				</g>
				<g>
					<g>
						<path id="XMLID_68_" class="st56" d="M432.2,171.8c0,0-4.8-4.7-10.8-6c-3.5-0.8-2.3-0.3-4.1-0.3c-1.8,0-10.8-3.2-13.1-3.9
							c-2.3-0.7-3.6,1.6-2.9,4.1c0.7,2.5,5.5,4.6,7.3,5c1.8,0.5,1,0.5,1,0.5s2.9,7.2,1.6,9.9s-6.1,8.8-4.5,13.1
							c1.6,4.3,4.1,6.5,9,6.5c5,0,7.9,0.2,9,0c1.1-0.2,21.2,9.7,18.9,9.9c-2.3,0.2-0.9-20.1-0.9-20.1L432.2,171.8z"/>
						<path id="XMLID_66_" class="st56" d="M386.6,183.8c0,0,10.6-5.2,15.8-10.4s7-6.5,8.8-7c1.8-0.5,9-2.5,10.8-4.1
							c1.8-1.6,3.2,1.4,0.5,3.6c-2.7,2.3-5.2,3.6-6.3,4.3c-1.1,0.7-2.3,3.8-2.3,3.8s11.1-4.7,14.9-3.6c3.8,1.1,7.6,4.5,7.4,6.6
							c-0.2,2-0.9,1-3.4,0.8c-2.5-0.2-6-1.3-8.7-0.2c-2.7,1.1-5.9,3.8-5.9,5s3.2,1.8,5.6,1.6c2.5-0.2,4.3-0.9,6.8-0.5
							c2.5,0.5,4.5,1.8,4.7,3.2c0.2,1.4-0.9,1.4-3.6,1.6s-7.4,0.5-9,1.6c-1.6,1.1-9.7,5-8.3,6.3s2.2,1.4,4.9,1.4s5.6-2.1,7.2-2
							c2.1,0.2,3.3,0.3,3.3,0.3s3.8,0.2,3.4,1.6c-0.5,2.4-1.8,2.4-7.2,2.7c-4.3,0.2-5.4-0.2-9.2,0.7s-3.6,1.4-10.1,1.8
							c-6.5,0.5-18.3-2.7-18.3-2.7L386.6,183.8z"/>
						<path id="XMLID_123_" class="st56" d="M429.2,169c0,0-4.6-4.2-7.2-4.4c-2.6-0.2-10.6,6.9-11.7,9.5c-1.1,2.6,1.5,1.6,3.6,1
							c2.1-0.7,7.8-3.3,9.8-4.1c2-0.8,2.8-0.9,5.2-0.5"/>
						<path id="XMLID_124_" class="st56" d="M435.1,178.3c0,0-6.5-3.3-10.6-1.5c-4.1,1.8-9.1,5.4-9.1,7c0,1.6,0.8,1.3,4.4,1.1
							s10-1.2,10.9-1.3c0.9,0,3.8,0.8,3.8,0.8"/>
					</g>
					<path id="XMLID_63_" class="st53" d="M343.6,158.7l-5.6,30.2c0,0,48.9-9.7,50.7-8.3s3.4,37.2,3.4,37.2s-63.2,11-70.6,13.5
						c-7.4,2.5-15.1,2.9-17.8,0.7c-2.7-2.3-2.9-7.9-0.9-18.9c2-11.1,21.4-91.8,21.4-91.8"/>
					<path id="XMLID_67_" class="st53" d="M457,156.7l2,34.5l-16.2-0.7l-1.6,28.6c0,0,44.8,10.4,47.3,11.8s2-1.4,5-5.6
						c2.9-4.3,5.4-13.5,5.2-17.6c-0.2-4.1-9.5-17.6-9.7-16.9"/>
					<line id="XMLID_71_" class="st19" x1="459" y1="191.2" x2="474.2" y2="191.2"/>
					<line id="XMLID_72_" class="st19" x1="337.9" y1="189" x2="317.9" y2="195.9"/>
				</g>
			</g>
			<g id="XMLID_75_">
				<g id="XMLID_73_">
					<path id="XMLID_74_" class="st52" d="M342.7,433.5c0,0-3.3,14.1-7.9,19c-4.6,4.9-8.8,8.2-8.5,12.1c0.3,3.9,0.3,3.9,0.3,3.9
						h47.1c0,0,0-4.9,0-11.8s-2.9-19-2.9-23.9s-29.4,0.3-29.4,0.3"/>
					<path id="XMLID_78_" class="st58" d="M327.5,460.6c-0.8,1.3-1.2,2.6-1.1,3.9c0.3,3.9,0.3,3.9,0.3,3.9h47.1c0,0,0-3.1,0-7.9
						H327.5z"/>
				</g>
				<path id="XMLID_70_" class="st58" d="M383.6,308.5c0,0,4.6-29.1-3.3-42.5c-7.9-13.4-35.3-13.7-50.7-4.6
					c-15.4,9.2-21.3,24.2-15.8,43.5c5.6,19.3,18.4,19.7,18.4,19.7s-3.3,26.5-3.3,37c0,10.5,11.1,75.6,11.1,75.6h32.4
					C372.5,437.1,383,322.3,383.6,308.5z"/>
				<line id="XMLID_76_" class="st20" x1="332.3" y1="324.6" x2="335.5" y2="297.7"/>
			</g>
			<g id="XMLID_79_">
				<g id="XMLID_82_">
					<path id="XMLID_84_" class="st52" d="M437.9,433.5c0,0,3.3,14.1,7.9,19s8.8,8.2,8.5,12.1c-0.3,3.9-0.3,3.9-0.3,3.9h-47.1
						c0,0,0-4.9,0-11.8s2.9-19,2.9-23.9s29.4,0.3,29.4,0.3"/>
					<path id="XMLID_83_" class="st58" d="M453.2,460.6c0.8,1.3,1.2,2.6,1.1,3.9c-0.3,3.9-0.3,3.9-0.3,3.9h-47.1c0,0,0-3.1,0-7.9
						H453.2z"/>
				</g>
				<path id="XMLID_81_" class="st58" d="M397.1,308.5c0,0-4.6-29.1,3.3-42.5c7.9-13.4,35.3-13.7,50.7-4.6
					c15.4,9.2,21.5,24.2,15.9,43.5c-5.6,19.3-18.5,19.7-18.5,19.7s3.3,26.5,3.3,37c0,10.5-11.1,75.6-11.1,75.6h-32.4
					C408.2,437.1,397.7,322.3,397.1,308.5z"/>
				<line id="XMLID_80_" class="st20" x1="448.4" y1="324.6" x2="445.1" y2="297.7"/>
			</g>
		</g>
	</g>
	<g id="XMLID_77_">
		<path id="XMLID_91_" class="st52" d="M367.6,213.1h64.7c3.8,0,6.9,3.1,6.9,6.9v30c0,3.8-3.1,6.9-6.9,6.9h-19.4l5.1,13.7L402,257
			h-34.4c-3.8,0-6.9-3.1-6.9-6.9v-30C360.7,216.2,363.8,213.1,367.6,213.1z"/>
		<g id="XMLID_86_">
			<circle id="XMLID_85_" class="st59" cx="416.2" cy="234.2" r="3.8"/>
			<circle id="XMLID_87_" class="st59" cx="398.2" cy="234.2" r="3.8"/>
			<circle id="XMLID_88_" class="st59" cx="380.2" cy="234.2" r="3.8"/>
		</g>
	</g>
	<g>
		<polygon class="st52" points="364.6,229.9 353.3,253.9 385.5,253.9 396.8,231.1 		"/>
		<polygon class="st59" points="435.4,229.9 364.6,229.9 376,253.9 446.7,253.9 		"/>
	</g>
	<g>
		<rect id="XMLID_118_" x="135.2" y="247" class="st60" width="15.9" height="205.1"/>
		<rect id="XMLID_120_" x="645.3" y="247.5" class="st60" width="15.9" height="205.1"/>
		<rect id="XMLID_117_" x="131.8" y="213.3" class="st60" width="536.5" height="197.7"/>
		<rect id="XMLID_34_" x="131.8" y="213.3" class="st52" width="536.5" height="20.6"/>
		<rect id="XMLID_114_" x="118.1" y="213.3" class="st20" width="563.8" height="12.3"/>
	</g>
	<g>
		<g>
			<path class="st61" d="M196,428.6c0,0-36.2-77.1-28.3-79.4c7.9-2.2,24.4,10.1,24.4,10.1s-48.4-129.7-35.9-139.7
				c12.5-10.1,35.9,41.4,35.9,41.4s-25-79.4-22-109.5s34.7-1.1,34.7-1.1s-25.4-108.4-1.8-114c23.6-5.6,22.8,124.1,22.8,124.1
				s7.7-92.8,17.2-67.1c9.5,25.7-10.4,111.8-10.4,111.8s13-29.1,20.2-2.2c7.2,26.8-14.3,135.3-14.3,135.3s18.3-17.9,20,4.5
				c1.7,22.4-37.9,91.7-37.9,91.7l-22.4,2.2L196,428.6z"/>
			<path class="st48" d="M196,428.6c0,0-36.2-77.1-28.3-79.4c7.9-2.2,24.4,10.1,24.4,10.1s-48.4-129.7-35.9-139.7
				c12.5-10.1,35.9,41.4,35.9,41.4s-25-79.4-22-109.5s34.7-1.1,34.7-1.1s-25.4-108.4-1.8-114c23.6-5.6,22.8,124.1,22.8,124.1
				s7.7-92.8,17.2-67.1c9.5,25.7-10.4,111.8-10.4,111.8s13-29.1,20.2-2.2c7.2,26.8-14.3,135.3-14.3,135.3s18.3-17.9,20,4.5
				c1.7,22.4-37.9,91.7-37.9,91.7l-22.4,2.2L196,428.6z"/>
			<path class="st19" d="M203.7,431.9c0,0-30.2-53.7-24.6-63.7c5.6-10.1,22.4,13.4,22.4,13.4s-38-95-32.4-104
				c5.6-8.9,23.5,30.2,23.5,30.2s-6.7-130.8,4.5-126.3c11.2,4.5,12.3,67.1,12.3,67.1s-6.7-148.7,3.4-144.2
				c10.1,4.5,8.9,169.9,8.9,169.9s20.1-63.7,23.5-34.7c3.4,29.1-25.7,107.3-25.7,107.3s27.9-61.5,31.3-29.1
				c3.4,32.4-22.4,92.8-22.4,92.8s10.1-24.6,10.1-11.2c0,13.4-7.8,30.2-7.8,30.2"/>
		</g>
		<rect x="180.6" y="431.5" class="st62" width="63.9" height="55.3"/>
	</g>
	<g>
		<path id="XMLID_89_" class="st56" d="M543.3,41.1c0,0-6.5,10.8-7.5,15.7c-1,4.9,0.7,6.9-0.7,10.5c-1.3,3.6-6.9,3.6-6.9,7.2
			s3.9,6.9,5.2,7.9c1.3,1-1,5.2,1.3,11.4c2.3,6.2,3.3,14.1,7.2,14.1c3.9,0,12.1-1.3,12.1-1.3l2,11.9l27-2.5c0,0-0.3-11.8,6.9-16.7
			c7.2-4.9,21.4-33,12.9-51.4C594.3,29.7,558.7,26.1,543.3,41.1z"/>
		<path id="XMLID_90_" d="M534.3,27.5c-0.9,2.7-1.2,5.7-1,8.9c0.3,5.7,2.3,11.4,5.2,16.3c3.3,5.5,11.3,9,13.3,14.9
			c0.7,2,2.3,7.2,6.9,8.5c4.6,1.3,3.6,1.3,2.3,10.1s2.6,17.7,10.5,20c7.9,2.3,15.4,0.3,21.6-4.6s18-25.2,18.3-43.5
			c0.6-32.4-31.4-48.3-60.2-44.3C542.5,15,536.7,20.3,534.3,27.5z"/>
		<path id="XMLID_94_" class="st20" d="M569,110.1c0,0-7,0-12.6,3c-3.7,1.9-16.4,14.1-19.6,16c-3.3,2-9.5,1-5.9,2.6
			c3.6,1.6,6.2,2,12.4-0.3c6.2-2.3,19.3-6.9,23.2-6.9s18.3,2,19.6,2.3c1.3,0.3,9.8,4.3,9.8,4.3s-4.3-9.2-9.2-13.7
			C581.9,112.7,575.9,109.7,569,110.1z"/>
		<path id="XMLID_95_" class="st56" d="M558.4,69.4c-1.4,0.5-2.3,2-2.1,3.6c0.3,2.9,0.7,8.9-0.2,13c-1.3,5.6,5.6,5.6,7.2-3.6
			C564.2,76.3,561.9,68.1,558.4,69.4z"/>
		<g id="XMLID_99_">
			<path id="XMLID_97_" class="st59" d="M503.7,144.8c0,0-3.9,2-4.3,11.4c-0.3,9.5-16.7,76.2-17.7,86.7c-1,10.5,4.6,17.3,14.1,20.9
				c9.5,3.6,27.5,9.5,30.7,7.9c3.3-1.6,9.5-35.3,11.8-50c2.3-14.7-25.2-65.7-26.5-67.7S506,145.1,503.7,144.8z"/>
			<line id="XMLID_98_" class="st19" x1="525" y1="223" x2="507" y2="249.8"/>
		</g>
		<path id="XMLID_103_" class="st20" d="M559.7,342.1l22.7,125.8c0.3,1.7,2,2.7,3.6,2.2l0,0c1.3-0.4,2.1-1.7,1.9-3l-16.8-127.6
			L559.7,342.1z"/>
		<g id="XMLID_113_">
			<path id="XMLID_108_" class="st56" d="M534.5,314.6c0,0-8.5,114.8-8.5,118.1c0,3.3-8.8,37.6-8.8,37.6h23.6c0,0,2.3-4.6,2.3-14.1
				c0-9.5,1-29.8,1-31.7c0-2,26.2-103.4,26.2-103.4s-1.3-10.1-14.1-16C543.3,299.2,536.4,312,534.5,314.6z"/>
			<g id="XMLID_112_">
				<path id="XMLID_115_" class="st52" d="M543,456.2c0-8.7,0.8-26.3,1-30.8c-10.9-6.1-17.6,2-17.6,2l0,0c-0.2,3-0.3,4.8-0.3,5.2
					c0,3.3-8.8,37.6-8.8,37.6h23.6C540.7,470.3,543,465.7,543,456.2z"/>
				<path id="XMLID_116_" class="st63" d="M540.7,470.3c0,0,2.3-4.6,2.3-14.1c0-3.5,0.1-8.5,0.3-13.6c-2.3-2.7-7.2-6.7-12.4-0.5
					c-2.3,2.7-8.3,19.8-11.2,28.1H540.7z"/>
				<path id="XMLID_109_" class="st52" d="M530.9,442.2l2,28.1h5.9l4.9-28.8C543.6,441.5,537.1,433.7,530.9,442.2z"/>
			</g>
		</g>
		<g id="XMLID_107_">
			<path id="XMLID_102_" class="st56" d="M486.7,299.5c0,0-10.1,11.1-11.1,20.6c-1,9.5,34,109.9,34,109.9s-0.7,5.2-5.6,11.4
				c-4.9,6.2-11.8,15-12.8,20.9c-1,5.9,0,7.9,0,7.9h23.2c0,0,8.2-20.9,11.4-26.2c3.3-5.2,1.3-15.4,0.3-20
				c-1-4.6-9.8-110.2-9.8-110.2S509.6,291.7,486.7,299.5z"/>
			<path id="XMLID_110_" class="st52" d="M526,444.1c2.8-4.5,1.7-12.8,0.8-17.9c-1.9-1.5-5-3-8.9-2.1c-6.9,1.6-8.2,5.9-8.2,5.9
				s-0.7,5.2-5.6,11.4c-4.9,6.2-11.8,15-12.8,20.9c-1,5.9,0,7.9,0,7.9h23.2C514.5,470.3,522.7,449.4,526,444.1z"/>
			<path id="XMLID_111_" class="st63" d="M502.6,470.3h11.9c0,0,7.3-18.6,10.8-25.1c-1.8-1.6-7.1-5.7-12.2-1.7
				c-6.2,4.9-6.9,17-8.5,21.6C503.9,467.2,503.2,469,502.6,470.3z"/>
			<path id="XMLID_106_" class="st52" d="M513.2,443.5l1.3,26.8h4.3l7.2-26.2C526,444.1,519.4,437.6,513.2,443.5z"/>
		</g>
		<g>
			<path id="XMLID_96_" class="st59" d="M513.1,189.1c5.4,18.4,10.3,52.8,10.3,56c0,5.9-17.1,39.7-17.1,39.7s-19,9.8-23.6,16.7
				c-4.6,6.9-4.6,14.4-1.3,20.9c3.3,6.5,8.2,9.5,19,11.4s111.2,0,111.2,0s10.5-12.8,5.6-33c-2.3-9.4-4.8-17.6-7.5-29.1
				c0,0,10.8,0.3,18.6-6.2c7.9-6.5,8.2-16.7,8.2-24.2s-4.9-70.3-4.9-76.5s-0.3-14.1-6.2-18.6c-5.9-4.6-19.6-11.8-32.1-18.3
				c-9.8-5.2-17-4.3-24.9-4.3c-7.9,0-17.3,5.9-17.3,5.9s-43.5,11.4-46.8,13.4c-3.1,1.8-2.1,4-0.9,11.2"/>
			<path id="XMLID_92_" class="st19" d="M614.9,163.1c0,0-13.4,77.8-13.4,82.1c0,4.3,8.2,26.5,8.2,26.5"/>
			<path class="st62" d="M522.7,248.4c-3.2,10.3-16.4,36.4-16.4,36.4s-19,9.8-23.6,16.7c-4.6,6.9-4.6,14.4-1.3,20.9
				c3.3,6.5,8.2,9.5,19,11.4c10.8,2,111.2,0,111.2,0s10.5-12.8,5.6-33c-2.3-9.4-4.8-17.6-7.5-29.1l-8.2-23.3H522.7z"/>
		</g>
		<path id="XMLID_101_" class="st20" d="M494.6,340.7l-16.9,126.7c-0.2,1.7,1.1,3.2,2.8,3.2l0,0c1.4,0,2.5-1,2.8-2.3l23.1-126.6
			L494.6,340.7z"/>
		<path id="XMLID_105_" class="st20" d="M606.5,340.7l16.9,126.7c0.2,1.7-1.1,3.2-2.8,3.2h0c-1.4,0-2.5-1-2.8-2.3l-23.1-126.6
			L606.5,340.7z"/>
		<path id="XMLID_104_" class="st20" d="M540.7,340.7l-16.9,126.7c-0.2,1.7,1.1,3.2,2.8,3.2l0,0c1.4,0,2.5-1,2.8-2.3l23.1-126.6
			L540.7,340.7z"/>
		<path id="XMLID_100_" class="st28" d="M624.8,195.8H519.1c0,0-2.9,24.9-1.3,46.1c1.6,21.3,5.2,48.4,4.6,65.8
			c-0.7,17.3-10.5,26.8-10.5,26.8h-23.6c-2.3,0-4.3,1.9-4.3,4.3l0,0c0,2.3,1.9,4.3,4.3,4.3h127.2c0,0,11.8-16.7,10.8-41.5
			c-1-24.9-10.8-53-7.5-72.9C622.1,208.6,624.8,195.8,624.8,195.8z"/>
		<path id="XMLID_93_" d="M596.8,43.9c0,0-6.5,2.6-6.9,8.8c-0.3,6.2-2.3,27.5-10.1,39.6c-7.9,12.1,0,31.4,19.3,34.3
			c19.3,2.9,35-26.2,27.8-56.3C619.7,40.3,603.3,41.3,596.8,43.9z"/>
	</g>
	<line class="st19" x1="80.3" y1="241.9" x2="719.7" y2="241.9"/>
</g>
</svg>
